<?xml version="1.0" standalone="no"?>
<!DOCTYPE svg PUBLIC "-//W3C//DTD SVG 1.1//EN" "http://www.w3.org/Graphics/SVG/1.1/DTD/svg11.dtd" >
<svg xmlns="http://www.w3.org/2000/svg" xmlns:xlink="http://www.w3.org/1999/xlink" version="1.1">
<metadata>
Created by FontForge 20161013 at Fri Sep 17 12:37:25 2010
 By ,,,
Copyright (c) 2008 - 2010 Linotype GmbH, www.linotype.com. All rights reserved. This font software may not be reproduced, modified, disclosed or transferred without the express written approval of Linotype GmbH.
</metadata>
<defs>
<font id="DINNextRoundedLTPro-Bold" horiz-adv-x="556" >
  <font-face 
    font-family="DIN Next Rounded LT Pro"
    font-weight="700"
    font-stretch="normal"
    units-per-em="1000"
    panose-1="2 15 8 3 2 2 3 5 2 3"
    ascent="750"
    descent="-250"
    x-height="484"
    cap-height="686"
    bbox="-142 -241 1077 926"
    underline-thickness="50"
    underline-position="-200"
    unicode-range="U+0020-FB04"
  />
<missing-glyph horiz-adv-x="506" 
d="M0 35v610q0 35 35 35h437q34 0 34 -35v-610q0 -35 -34 -35h-437q-35 0 -35 35zM69 71q0 -6 6 -6h356q6 0 6 6v538q0 6 -6 6h-356q-6 0 -6 -6v-538zM245 236q-20 0 -32.5 12t-12.5 31v7q0 33 24 61l40 45q24 27 24 50q0 19 -11 31t-30 12q-28 0 -44 -28t-39 -28
q-17 0 -28.5 10.5t-11.5 28.5q0 8 1 12q8 36 41.5 59.5t84.5 23.5q56 0 91.5 -33.5t35.5 -83.5q0 -45 -32 -81l-45 -49q-12 -13 -12 -31v-6q0 -19 -12 -31t-32 -12zM191 155q0 22 15.5 37t37.5 15q21 0 36.5 -15t15.5 -37t-15.5 -37.5t-36.5 -15.5q-22 0 -37.5 15.5
t-15.5 37.5z" />
    <glyph glyph-name="IJ" unicode="IJ" horiz-adv-x="798" 
d="M65 72v536q0 35 20.5 56.5t53.5 21.5q32 0 52.5 -21.5t20.5 -56.5v-536q0 -35 -20.5 -56.5t-52.5 -21.5q-33 0 -53.5 21.5t-20.5 56.5zM334 46q-20 23 -20 51q0 26 18.5 44t46.5 18q24 0 56 -22q26 -18 61 -18q93 0 93 115v374q0 35 20.5 56.5t52.5 21.5q33 0 53.5 -21
t20.5 -57v-364q0 -124 -63.5 -189.5t-181.5 -65.5q-47 0 -91.5 16.5t-65.5 40.5z" />
    <glyph glyph-name="ij" unicode="ij" horiz-adv-x="532" 
d="M133 533q-33 0 -56 23t-23 56t23 56t56 23t56 -23t23 -56t-23 -56t-56 -23zM133 -6q-31 0 -50.5 20t-19.5 54v348q0 34 19.5 54t50.5 20t50.5 -20t19.5 -54v-348q0 -34 -19.5 -54t-50.5 -20zM399 533q-33 0 -56 23t-23 56t23 56t56 23t56 -23t23 -56t-23 -56t-56 -23z
M299 -180q-30 0 -46.5 16.5t-16.5 42.5q0 51 54 61q22 4 30.5 16t8.5 39v421q0 34 19.5 54t50.5 20t50.5 -20t19.5 -54v-420q0 -91 -42.5 -133.5t-127.5 -42.5z" />
    <glyph glyph-name="napostrophe" unicode="&#x22;n" horiz-adv-x="553" 
d="M424 -6q-31 0 -50.5 20t-19.5 54v220q0 41 -19.5 64.5t-56.5 23.5t-56 -23.5t-19 -64.5v-220q0 -34 -19.5 -54t-50.5 -20t-50.5 20t-19.5 54v348q0 34 19.5 54t50.5 20q54 0 67 -51h1q43 56 128 56q78 0 121.5 -49.5t43.5 -130.5v-247q0 -34 -19.5 -54t-50.5 -20zM72 541
q-16 -47 -55 -47q-26 0 -42.5 15t-16.5 41q0 15 4 27l20 62q16 47 55 47q26 0 42.5 -15.5t16.5 -41.5q0 -14 -4 -26z" />
    <glyph glyph-name="f_f" unicode="ff" horiz-adv-x="678" 
d="M151 -6q-31 0 -50.5 20t-19.5 54v306q0 6 -7 6h-4q-27 0 -41.5 14t-14.5 38t14.5 38t41.5 14h4q7 0 7 6v23q0 88 41 127.5t129 39.5h10q31 0 47.5 -15.5t16.5 -41.5t-16 -42t-45 -16q-23 0 -33 -11.5t-10 -38.5v-25q0 -6 6 -6h38q27 0 41.5 -14t14.5 -38t-14.5 -38
t-41.5 -14h-38q-6 0 -6 -6v-306q0 -34 -19.5 -54t-50.5 -20zM490 -6q-31 0 -50.5 20t-19.5 54v306q0 6 -7 6h-4q-27 0 -41.5 14t-14.5 38t14.5 38t41.5 14h4q7 0 7 6v23q0 88 41 127.5t129 39.5h10q31 0 47.5 -15.5t16.5 -41.5t-16 -42t-45 -16q-23 0 -33 -11.5t-10 -38.5
v-25q0 -6 6 -6h38q27 0 41.5 -14t14.5 -38t-14.5 -38t-41.5 -14h-38q-6 0 -6 -6v-306q0 -34 -19.5 -54t-50.5 -20z" />
    <glyph glyph-name="fi" unicode="fi" horiz-adv-x="605" 
d="M151 -6q-31 0 -50.5 20t-19.5 54v306q0 6 -7 6h-4q-27 0 -41.5 14t-14.5 38t14.5 38t41.5 14h4q7 0 7 6v23q0 88 41 127.5t129 39.5h10q31 0 47.5 -15.5t16.5 -41.5t-16 -42t-45 -16q-23 0 -33 -11.5t-10 -38.5v-25q0 -6 6 -6h38q27 0 41.5 -14t14.5 -38t-14.5 -38
t-41.5 -14h-38q-6 0 -6 -6v-306q0 -34 -19.5 -54t-50.5 -20zM472 533q-33 0 -56 23t-23 56t23 56t56 23t56 -23t23 -56t-23 -56t-56 -23zM472 -6q-31 0 -50.5 20t-19.5 54v348q0 34 19.5 54t50.5 20t50.5 -20t19.5 -54v-348q0 -34 -19.5 -54t-50.5 -20z" />
    <glyph glyph-name="fl" unicode="fl" horiz-adv-x="643" 
d="M151 -6q-31 0 -50.5 20t-19.5 54v306q0 6 -7 6h-4q-27 0 -41.5 14t-14.5 38t14.5 38t41.5 14h4q7 0 7 6v23q0 88 41 127.5t129 39.5h10q31 0 47.5 -15.5t16.5 -41.5t-16 -42t-45 -16q-23 0 -33 -11.5t-10 -38.5v-25q0 -6 6 -6h38q27 0 41.5 -14t14.5 -38t-14.5 -38
t-41.5 -14h-38q-6 0 -6 -6v-306q0 -34 -19.5 -54t-50.5 -20zM555 -6h-6q-80 0 -114.5 38.5t-34.5 115.5v464q0 34 19.5 54t50.5 20t50.5 -20t19.5 -54v-452q0 -38 32 -44q56 -10 56 -61q0 -27 -18.5 -44t-54.5 -17z" />
    <glyph glyph-name="f_f_i" unicode="ffi" horiz-adv-x="944" 
d="M151 -6q-31 0 -50.5 20t-19.5 54v306q0 6 -7 6h-4q-27 0 -41.5 14t-14.5 38t14.5 38t41.5 14h4q7 0 7 6v23q0 88 41 127.5t129 39.5h10q31 0 47.5 -15.5t16.5 -41.5t-16 -42t-45 -16q-23 0 -33 -11.5t-10 -38.5v-25q0 -6 6 -6h38q27 0 41.5 -14t14.5 -38t-14.5 -38
t-41.5 -14h-38q-6 0 -6 -6v-306q0 -34 -19.5 -54t-50.5 -20zM490 -6q-31 0 -50.5 20t-19.5 54v306q0 6 -7 6h-4q-27 0 -41.5 14t-14.5 38t14.5 38t41.5 14h4q7 0 7 6v23q0 88 41 127.5t129 39.5h10q31 0 47.5 -15.5t16.5 -41.5t-16 -42t-45 -16q-23 0 -33 -11.5t-10 -38.5
v-25q0 -6 6 -6h38q27 0 41.5 -14t14.5 -38t-14.5 -38t-41.5 -14h-38q-6 0 -6 -6v-306q0 -34 -19.5 -54t-50.5 -20zM811 533q-33 0 -56 23t-23 56t23 56t56 23t56 -23t23 -56t-23 -56t-56 -23zM811 -6q-31 0 -50.5 20t-19.5 54v348q0 34 19.5 54t50.5 20t50.5 -20t19.5 -54
v-348q0 -34 -19.5 -54t-50.5 -20z" />
    <glyph glyph-name="f_f_l" unicode="ffl" horiz-adv-x="982" 
d="M151 -6q-31 0 -50.5 20t-19.5 54v306q0 6 -7 6h-4q-27 0 -41.5 14t-14.5 38t14.5 38t41.5 14h4q7 0 7 6v23q0 88 41 127.5t129 39.5h10q31 0 47.5 -15.5t16.5 -41.5t-16 -42t-45 -16q-23 0 -33 -11.5t-10 -38.5v-25q0 -6 6 -6h38q27 0 41.5 -14t14.5 -38t-14.5 -38
t-41.5 -14h-38q-6 0 -6 -6v-306q0 -34 -19.5 -54t-50.5 -20zM490 -6q-31 0 -50.5 20t-19.5 54v306q0 6 -7 6h-4q-27 0 -41.5 14t-14.5 38t14.5 38t41.5 14h4q7 0 7 6v23q0 88 41 127.5t129 39.5h10q31 0 47.5 -15.5t16.5 -41.5t-16 -42t-45 -16q-23 0 -33 -11.5t-10 -38.5
v-25q0 -6 6 -6h38q27 0 41.5 -14t14.5 -38t-14.5 -38t-41.5 -14h-38q-6 0 -6 -6v-306q0 -34 -19.5 -54t-50.5 -20zM894 -6h-6q-80 0 -114.5 38.5t-34.5 115.5v464q0 34 19.5 54t50.5 20t50.5 -20t19.5 -54v-452q0 -38 32 -44q56 -10 56 -61q0 -27 -18.5 -44t-54.5 -17z" />
    <glyph glyph-name=".notdef" horiz-adv-x="506" 
d="M0 35v610q0 35 35 35h437q34 0 34 -35v-610q0 -35 -34 -35h-437q-35 0 -35 35zM69 71q0 -6 6 -6h356q6 0 6 6v538q0 6 -6 6h-356q-6 0 -6 -6v-538zM245 236q-20 0 -32.5 12t-12.5 31v7q0 33 24 61l40 45q24 27 24 50q0 19 -11 31t-30 12q-28 0 -44 -28t-39 -28
q-17 0 -28.5 10.5t-11.5 28.5q0 8 1 12q8 36 41.5 59.5t84.5 23.5q56 0 91.5 -33.5t35.5 -83.5q0 -45 -32 -81l-45 -49q-12 -13 -12 -31v-6q0 -19 -12 -31t-32 -12zM191 155q0 22 15.5 37t37.5 15q21 0 36.5 -15t15.5 -37t-15.5 -37.5t-36.5 -15.5q-22 0 -37.5 15.5
t-15.5 37.5z" />
    <glyph glyph-name=".null" horiz-adv-x="500" 
 />
    <glyph glyph-name="nonmarkingreturn" horiz-adv-x="333" 
 />
    <glyph glyph-name="space" unicode=" " horiz-adv-x="236" 
 />
    <glyph glyph-name="exclam" unicode="!" horiz-adv-x="312" 
d="M156 199q-31 0 -51 20t-20 55v338q0 34 20 54t51 20t50.5 -20t19.5 -54v-338q0 -35 -19.5 -55t-50.5 -20zM74 71q0 34 24 58t58 24t58 -24t24 -58t-24 -58t-58 -24t-58 24t-24 58z" />
    <glyph glyph-name="quotedbl" unicode="&#x22;" horiz-adv-x="374" 
d="M267 466q-23 0 -36.5 14t-13.5 39v114q0 25 13.5 39t36.5 14q22 0 35.5 -14t13.5 -39v-114q0 -25 -13.5 -39t-35.5 -14zM108 466q-23 0 -36.5 14t-13.5 39v114q0 25 13.5 39t36.5 14q22 0 35.5 -14t13.5 -39v-114q0 -25 -13.5 -39t-35.5 -14z" />
    <glyph glyph-name="numbersign" unicode="#" horiz-adv-x="547" 
d="M72 58l19 137h-26q-26 0 -40.5 13.5t-14.5 36.5t14.5 36t40.5 13h39l14 102h-27q-26 0 -40.5 13.5t-14.5 36.5t14.5 36t40.5 13h40l20 141q3 23 17.5 36.5t36.5 13.5q26 0 41.5 -18t11.5 -46l-18 -127h105l20 141q3 23 17.5 36.5t36.5 13.5q26 0 41.5 -18t11.5 -46
l-18 -127h28q26 0 40.5 -13t14.5 -36t-14.5 -36.5t-40.5 -13.5h-41l-14 -102h29q26 0 40.5 -13t14.5 -36t-14.5 -36.5t-40.5 -13.5h-43l-20 -151q-3 -23 -17.5 -36.5t-36.5 -13.5q-26 0 -41.5 18t-11.5 46l19 137h-106l-20 -151q-3 -23 -17.5 -36.5t-36.5 -13.5
q-26 0 -41.5 18t-11.5 46zM213 294h105l14 102h-105z" />
    <glyph glyph-name="dollar" unicode="$" 
d="M85 39q-31 18 -31 54q0 26 17.5 44.5t45.5 18.5q20 0 39 -11q46 -28 94 -34v171q-88 13 -138 65t-50 131q0 85 52 142.5t136 68.5v39q0 16 9 25.5t24 9.5t24 -9.5t9 -25.5v-38q68 -6 122 -36q34 -19 34 -54q0 -25 -17 -43t-42 -18q-15 0 -31 7q-36 17 -66 22v-161
q93 -13 141 -65t48 -133q0 -88 -50.5 -145.5t-138.5 -70.5v-41q0 -16 -9 -25.5t-24 -9.5t-24 9.5t-9 25.5v38q-89 4 -165 49zM250 420v144q-50 -19 -50 -74q0 -51 50 -70zM316 118q51 19 51 81q0 50 -51 69v-150z" />
    <glyph glyph-name="percent" unicode="%" horiz-adv-x="817" 
d="M184 27q0 14 8 28l354 613q16 28 44 28q19 0 31 -12.5t12 -31.5q0 -14 -8 -28l-354 -613q-16 -28 -44 -28q-19 0 -31 12.5t-12 31.5zM198 330q-101 0 -128 83q-10 31 -10 96t10 96q27 83 128 83t128 -83q10 -31 10 -96t-10 -96q-27 -83 -128 -83zM198 408q27 0 35 25
q5 15 5 76t-5 76q-8 25 -35 25t-35 -25q-5 -15 -5 -76t5 -76q8 -25 35 -25zM491 74q-10 31 -10 96t10 96q27 83 128 83t128 -83q10 -31 10 -96t-10 -96q-27 -83 -128 -83t-128 83zM584 94q8 -25 35 -25t35 25q5 15 5 76t-5 76q-8 25 -35 25t-35 -25q-5 -15 -5 -76t5 -76z
" />
    <glyph glyph-name="ampersand" unicode="&#x26;" horiz-adv-x="648" 
d="M56 173q0 55 29 103t98 102q-40 51 -57 84.5t-17 67.5q0 70 52 115.5t129 45.5q79 0 128 -46t49 -114q0 -45 -25.5 -83.5t-88.5 -87.5l86 -109l38 43q19 22 47 22q23 0 40 -16.5t17 -40.5q0 -23 -17 -43l-51 -60l17 -20q15 -18 33 -21q51 -8 51 -58q0 -25 -15.5 -41
t-42.5 -16h-7q-42 0 -65 11.5t-49 44.5l-6 7q-79 -74 -176 -74q-93 0 -145 50.5t-52 133.5zM282 451q36 28 48.5 45.5t12.5 36.5q0 23 -15 38.5t-37 15.5q-24 0 -38.5 -15t-14.5 -39q0 -14 7.5 -29t36.5 -53zM185 183q0 -35 20 -56t57 -21q23 0 43 10t51 41l-101 129
q-70 -54 -70 -103z" />
    <glyph glyph-name="quotesingle" unicode="'" horiz-adv-x="215" 
d="M108 466q-23 0 -36.5 14t-13.5 39v114q0 25 13.5 39t36.5 14q22 0 35.5 -14t13.5 -39v-114q0 -25 -13.5 -39t-35.5 -14z" />
    <glyph glyph-name="parenleft" unicode="(" horiz-adv-x="311" 
d="M153 -49q-102 184 -102 377t102 377q23 39 57 39q24 0 38.5 -15.5t14.5 -38.5q0 -15 -7 -32q-72 -179 -72 -330t72 -330q7 -17 7 -32q0 -23 -14.5 -38.5t-38.5 -15.5q-34 0 -57 39z" />
    <glyph glyph-name="parenright" unicode=")" horiz-adv-x="311" 
d="M55 -2q72 179 72 330t-72 330q-7 17 -7 32q0 23 14.5 38.5t38.5 15.5q35 0 57 -39q102 -184 102 -377t-102 -377q-22 -39 -57 -39q-24 0 -38.5 15.5t-14.5 38.5q0 15 7 32z" />
    <glyph glyph-name="asterisk" unicode="*" horiz-adv-x="366" 
d="M183 368q-17 0 -28 12t-10 30l1 53l-45 -27q-11 -7 -25 -7q-15 0 -25.5 10.5t-10.5 26.5q0 24 23 36l46 25l-46 25q-23 12 -23 36q0 16 10.5 26.5t25.5 10.5q14 0 25 -7l45 -28l-1 54q-1 18 10 30t28 12t28 -12t10 -30l-2 -54l46 28q11 7 25 7q15 0 25.5 -10.5
t10.5 -26.5q0 -24 -23 -36l-47 -25l47 -25q23 -12 23 -36q0 -16 -10.5 -26.5t-25.5 -10.5q-14 0 -25 7l-46 27l2 -53q1 -18 -10 -30t-28 -12z" />
    <glyph glyph-name="plus" unicode="+" 
d="M109 217q-29 0 -46 16t-17 43t17 43t46 16h102q6 0 6 6v102q0 30 17 47.5t44 17.5t44 -17.5t17 -47.5v-102q0 -6 6 -6h102q29 0 46 -16t17 -43t-17 -43t-46 -16h-102q-6 0 -6 -6v-102q0 -30 -17 -47.5t-44 -17.5t-44 17.5t-17 47.5v102q0 6 -6 6h-102z" />
    <glyph glyph-name="comma" unicode="," horiz-adv-x="250" 
d="M31 -49l47 155q7 21 23 33.5t37 12.5q27 0 45.5 -17t18.5 -45q0 -12 -4 -23l-52 -155q-7 -22 -23.5 -35.5t-36.5 -13.5q-26 0 -42.5 17t-16.5 45q0 14 4 26z" />
    <glyph glyph-name="hyphen" unicode="-" horiz-adv-x="392" 
d="M101 204q-30 0 -47.5 17t-17.5 44t17.5 44t47.5 17h190q30 0 47.5 -17t17.5 -44t-17.5 -44t-47.5 -17h-190z" />
    <glyph glyph-name="period" unicode="." horiz-adv-x="260" 
d="M48 71q0 34 24 58t58 24t58 -24t24 -58t-24 -58t-58 -24t-58 24t-24 58z" />
    <glyph glyph-name="slash" unicode="/" horiz-adv-x="424" 
d="M56 44q0 14 4 25l185 579q15 48 60 48q26 0 44.5 -16.5t18.5 -43.5q0 -14 -4 -25l-185 -579q-15 -48 -60 -48q-26 0 -44.5 16.5t-18.5 43.5z" />
    <glyph glyph-name="zero" unicode="0" 
d="M72 128q-14 43 -14 212t14 212q46 139 206 139t206 -139q14 -43 14 -212t-14 -212q-46 -139 -206 -139t-206 139zM210 153q15 -45 68 -45t68 45q9 27 9 187t-9 187q-15 45 -68 45t-68 -45q-9 -27 -9 -187t9 -187z" />
    <glyph glyph-name="one" unicode="1" 
d="M247 68v451h-2l-63 -43q-19 -13 -42 -13q-24 0 -41 17t-17 42q0 36 35 59l107 74q45 31 85 31q36 0 57 -23.5t21 -61.5v-533q0 -34 -19.5 -54t-50.5 -20t-50.5 20t-19.5 54z" />
    <glyph glyph-name="two" unicode="2" 
d="M56 60q0 37 42 87l212 254q40 48 40 94q0 35 -20 56.5t-55 21.5q-54 0 -82 -57q-22 -45 -63 -45q-27 0 -45 17.5t-18 44.5q0 5 2 17q12 59 69 100t143 41q95 0 152 -55t57 -139q0 -83 -69 -165l-179 -211v-2h191q30 0 47 -16.5t17 -43.5t-17 -43t-47 -16h-312
q-30 0 -47.5 16.5t-17.5 43.5z" />
    <glyph glyph-name="three" unicode="3" 
d="M78 93q-7 15 -7 34q0 27 17 44.5t46 17.5q39 0 64 -40q26 -42 77 -42q38 0 61 24.5t23 64.5q0 43 -26 69t-64 26h-7q-27 0 -44 16.5t-17 42.5t17 42.5t44 16.5h7q34 0 55.5 23t21.5 61q0 36 -21 58t-55 22q-49 0 -69 -41q-20 -40 -62 -40q-27 0 -44.5 17.5t-17.5 44.5
q0 16 8 35q20 45 70 73.5t121 28.5q98 0 154 -52t56 -136q0 -90 -76 -140v-2q36 -17 62.5 -59.5t26.5 -104.5q0 -92 -62.5 -150t-159.5 -58q-73 0 -125 27t-74 77z" />
    <glyph glyph-name="four" unicode="4" 
d="M106 99q-36 0 -56.5 19.5t-20.5 51.5q0 24 23 76l177 396q20 44 64 44q29 0 48 -19t19 -49q0 -17 -7 -33l-165 -363v-2h123q6 0 6 6v90q0 33 19 52.5t49 19.5t49 -19.5t19 -52.5v-90q0 -6 6 -6h4q29 0 47 -17t18 -43q0 -27 -18 -44t-47 -17h-4q-6 0 -6 -6v-27
q0 -33 -19 -52.5t-49 -19.5t-49 19.5t-19 52.5v27q0 6 -6 6h-205z" />
    <glyph glyph-name="five" unicode="5" 
d="M79 92q-5 15 -5 26q0 26 17.5 43.5t45.5 17.5q34 0 61 -33q30 -38 76 -38q57 0 74 48q9 27 9 65q0 41 -8 67q-17 47 -71 47q-39 0 -62 -29q-26 -33 -69 -33q-31 0 -49.5 19.5t-18.5 52.5v275q0 28 16.5 44t44.5 16h281q29 0 46.5 -16.5t17.5 -43.5t-17.5 -44t-46.5 -17
h-213q-6 0 -6 -6v-133h3q33 33 102 33q137 0 175 -113q14 -45 14 -119q0 -58 -15 -103q-20 -61 -76 -95t-130 -34q-75 0 -128.5 29.5t-67.5 73.5z" />
    <glyph glyph-name="six" unicode="6" 
d="M50 203q0 77 50 168l149 276q21 39 62 39q27 0 46 -17t19 -45q0 -21 -11 -40l-99 -179l2 -1q12 7 43 7q83 0 139 -56.5t56 -147.5q0 -100 -64.5 -159t-163.5 -59q-100 0 -164 58t-64 156zM188 202q0 -42 25 -68.5t65 -26.5t65 26.5t25 68.5t-25 68t-65 26t-65 -26
t-25 -68z" />
    <glyph glyph-name="seven" unicode="7" 
d="M158 61q0 15 6 30l186 464v3h-144q-6 0 -6 -6v-17q0 -32 -18 -51t-47 -19q-30 0 -48 19t-18 51v79q0 31 18 48.5t49 17.5h288q38 0 58.5 -20t20.5 -55q0 -31 -25 -93l-188 -473q-19 -45 -66 -45q-29 0 -47.5 19t-18.5 48z" />
    <glyph glyph-name="eight" unicode="8" 
d="M48 196q0 104 81 159v2q-27 19 -46.5 55t-19.5 81q0 83 58 140.5t157 57.5t157 -57.5t58 -140.5q0 -45 -19.5 -81t-46.5 -55v-2q81 -55 81 -159q0 -93 -65 -150t-165 -57t-165 57t-65 150zM278 414q34 0 56 23t22 56q0 34 -21.5 57t-56.5 23t-56.5 -23t-21.5 -57
q0 -33 22 -56t56 -23zM186 202q0 -42 25.5 -68.5t66.5 -26.5t66.5 26.5t25.5 68.5q0 41 -25.5 67.5t-66.5 26.5t-66.5 -26.5t-25.5 -67.5z" />
    <glyph glyph-name="nine" unicode="9" 
d="M180 56q0 21 11 40l99 179l-2 1q-12 -7 -43 -7q-83 0 -139 56.5t-56 147.5q0 100 64.5 159t163.5 59q100 0 164 -58t64 -156q0 -77 -50 -168l-149 -276q-21 -39 -62 -39q-27 0 -46 17t-19 45zM278 384q40 0 65 26t25 68t-25 68.5t-65 26.5t-65 -26.5t-25 -68.5t25 -68
t65 -26z" />
    <glyph glyph-name="colon" unicode=":" horiz-adv-x="270" 
d="M135 326q-34 0 -58 24t-24 58t24 58t58 24t58 -24t24 -58t-24 -58t-58 -24zM53 71q0 34 24 58t58 24t58 -24t24 -58t-24 -58t-58 -24t-58 24t-24 58z" />
    <glyph glyph-name="semicolon" unicode=";" horiz-adv-x="270" 
d="M135 326q-34 0 -58 24t-24 58t24 58t58 24t58 -24t24 -58t-24 -58t-58 -24zM31 -49l47 155q7 21 23 33.5t37 12.5q27 0 45.5 -17t18.5 -45q0 -12 -4 -23l-52 -155q-7 -22 -23.5 -35.5t-36.5 -13.5q-26 0 -42.5 17t-16.5 45q0 14 4 26z" />
    <glyph glyph-name="less" unicode="&#x3c;" 
d="M111 201q-65 25 -65 75t65 75l311 122q15 5 28 5q25 0 42.5 -15.5t17.5 -41.5q0 -43 -45 -59l-233 -85v-2l233 -85q45 -16 45 -59q0 -26 -17.5 -41.5t-42.5 -15.5q-13 0 -28 5z" />
    <glyph glyph-name="equal" unicode="=" 
d="M109 322q-29 0 -46 16t-17 43t17 43t46 16h338q29 0 46 -16t17 -43t-17 -43t-46 -16h-338zM109 112q-29 0 -46 16t-17 43t17 43t46 16h338q29 0 46 -16t17 -43t-17 -43t-46 -16h-338z" />
    <glyph glyph-name="greater" unicode="&#x3e;" 
d="M106 74q-25 0 -42.5 15.5t-17.5 41.5q0 43 45 59l233 85v2l-233 85q-45 16 -45 59q0 26 17.5 41.5t42.5 15.5q13 0 28 -5l311 -122q65 -25 65 -75t-65 -75l-311 -122q-15 -5 -28 -5z" />
    <glyph glyph-name="question" unicode="?" horiz-adv-x="473" 
d="M228 193q-29 0 -48.5 18.5t-19.5 49.5q0 53 44 102l54 61q40 44 40 81q0 29 -18 47.5t-48 18.5q-49 0 -70 -49q-21 -44 -64 -44q-29 0 -46.5 16.5t-17.5 44.5q0 12 5 27q18 56 70 90.5t126 34.5q88 0 144.5 -51.5t56.5 -129.5q0 -73 -54 -131l-62 -69q-23 -26 -23 -49
q0 -31 -20 -49.5t-49 -18.5zM146 71q0 34 24 58t58 24t58 -24t24 -58t-24 -58t-58 -24t-58 24t-24 58z" />
    <glyph glyph-name="at" unicode="@" horiz-adv-x="910" 
d="M43 265q0 181 113.5 293t296.5 112q182 0 296 -112t114 -290q0 -104 -51.5 -159.5t-127.5 -55.5q-93 0 -130 65h-1q-35 -65 -132 -65q-54 0 -91.5 25t-52.5 72q-14 44 -14 115t14 115q30 96 134 96q37 0 65.5 -14t42.5 -36h2q3 18 17.5 31t38.5 13q25 0 40.5 -15.5
t15.5 -41.5v-199q0 -32 15 -48t38 -16q66 0 66 117q0 138 -81 222t-218 84q-138 0 -218.5 -84.5t-80.5 -223.5q0 -137 80.5 -220.5t218.5 -83.5q96 0 181 35q13 5 23 5q19 0 33 -13t14 -33q0 -31 -32 -46q-95 -46 -219 -46q-182 0 -296 111.5t-114 290.5zM384 200
q16 -48 65 -48q48 0 64 48q8 22 8 65t-8 64q-16 49 -64 49q-49 0 -65 -49q-7 -23 -7 -64t7 -65z" />
    <glyph glyph-name="A" unicode="A" horiz-adv-x="644" 
d="M33 63q0 15 5 28l184 509q30 86 101 86q72 0 102 -86l181 -509q5 -13 5 -28q0 -30 -21 -49.5t-50 -19.5q-52 0 -69 52l-28 83h-243l-27 -83q-17 -52 -69 -52q-29 0 -50 19.5t-21 49.5zM242 254h160l-78 238h-3z" />
    <glyph glyph-name="B" unicode="B" horiz-adv-x="610" 
d="M65 64v551q0 30 17 47.5t47 17.5h211q108 0 162.5 -48.5t54.5 -132.5q0 -102 -79 -145v-2q37 -15 64 -56t27 -98q0 -99 -61.5 -148.5t-174.5 -49.5h-204q-30 0 -47 17.5t-17 46.5zM218 402h103q42 0 66 21t24 59t-23.5 58.5t-66.5 20.5h-103q-6 0 -6 -6v-147q0 -6 6 -6z
M212 125q0 -6 6 -6h111q45 0 69 22.5t24 63.5q0 39 -24.5 61.5t-68.5 22.5h-111q-6 0 -6 -6v-158z" />
    <glyph glyph-name="C" unicode="C" horiz-adv-x="575" 
d="M66 156q-19 61 -19 184t19 184q27 82 90 124.5t153 42.5q74 0 129 -30t82 -78q13 -23 13 -44q0 -29 -19.5 -47.5t-47.5 -18.5q-38 0 -65 38q-19 27 -40 38.5t-52 11.5q-78 0 -102 -75q-11 -34 -11 -146t11 -146q24 -75 102 -75q31 0 52 11.5t40 38.5q27 38 65 38
q28 0 47.5 -18.5t19.5 -47.5q0 -21 -13 -44q-27 -48 -82 -78t-129 -30q-90 0 -153 42.5t-90 124.5z" />
    <glyph glyph-name="D" unicode="D" horiz-adv-x="628" 
d="M65 64v551q0 30 17 47.5t47 17.5h161q111 0 177.5 -37.5t93.5 -119.5q20 -60 20 -183t-20 -183q-27 -82 -93.5 -119.5t-177.5 -37.5h-161q-30 0 -47 17.5t-17 46.5zM212 137q0 -6 6 -6h68q110 0 134 77q12 39 12 132t-12 132q-24 77 -134 77h-68q-6 0 -6 -6v-406z" />
    <glyph glyph-name="E" unicode="E" horiz-adv-x="565" 
d="M65 65v550q0 30 17 47.5t47 17.5h330q30 0 49 -18t19 -46q0 -27 -19 -45t-49 -18h-241q-6 0 -6 -6v-135q0 -6 6 -6h193q30 0 48.5 -17.5t18.5 -45.5t-18.5 -45.5t-48.5 -17.5h-193q-6 0 -6 -6v-141q0 -6 6 -6h241q30 0 49 -18t19 -45q0 -28 -19 -46t-49 -18h-330
q-30 0 -47 17.5t-17 47.5z" />
    <glyph glyph-name="F" unicode="F" horiz-adv-x="557" 
d="M65 72v543q0 30 17 47.5t47 17.5h330q30 0 49 -18t19 -46q0 -27 -19 -45t-49 -18h-241q-6 0 -6 -6v-143q0 -6 6 -6h192q32 0 50 -17.5t18 -45.5t-18 -45.5t-50 -17.5h-192q-6 0 -6 -6v-194q0 -35 -20.5 -56.5t-52.5 -21.5q-33 0 -53.5 21.5t-20.5 56.5z" />
    <glyph glyph-name="G" unicode="G" horiz-adv-x="628" 
d="M66 154q-19 61 -19 186t19 186q26 81 91.5 123t158.5 42q79 0 136.5 -29t85.5 -77q13 -23 13 -44q0 -29 -19.5 -47.5t-47.5 -18.5q-39 0 -65 36q-36 50 -103 50q-85 0 -109 -76q-11 -34 -11 -145q0 -112 11 -146q24 -75 111 -75q39 0 69 19t40 51q8 24 8 67q0 6 -6 6h-46
q-28 0 -45 16t-17 42t17 42t45 16h140q58 0 58 -58v-7q0 -100 -17 -154q-26 -81 -91.5 -125.5t-156.5 -44.5q-93 0 -158.5 42t-91.5 123z" />
    <glyph glyph-name="H" unicode="H" horiz-adv-x="658" 
d="M65 72v536q0 36 20.5 57t53.5 21q32 0 52.5 -21.5t20.5 -56.5v-193q0 -6 6 -6h222q6 0 6 6v193q0 35 20.5 56.5t52.5 21.5q33 0 53.5 -21t20.5 -57v-536q0 -36 -20.5 -57t-53.5 -21q-32 0 -52.5 21.5t-20.5 56.5v200q0 6 -6 6h-222q-6 0 -6 -6v-200q0 -35 -21 -56.5
t-53 -21.5q-33 0 -53 21t-20 57z" />
    <glyph glyph-name="I" unicode="I" horiz-adv-x="277" 
d="M65 72v536q0 35 20.5 56.5t53.5 21.5q32 0 52.5 -21.5t20.5 -56.5v-536q0 -35 -20.5 -56.5t-52.5 -21.5q-33 0 -53.5 21.5t-20.5 56.5z" />
    <glyph glyph-name="J" unicode="J" horiz-adv-x="521" 
d="M57 46q-20 23 -20 51q0 26 18.5 44t46.5 18q24 0 56 -22q26 -18 61 -18q93 0 93 115v374q0 35 20.5 56.5t52.5 21.5q33 0 53.5 -21t20.5 -57v-364q0 -124 -63.5 -189.5t-181.5 -65.5q-47 0 -91.5 16.5t-65.5 40.5z" />
    <glyph glyph-name="K" unicode="K" horiz-adv-x="615" 
d="M65 72v536q0 35 20.5 56.5t53.5 21.5q32 0 52.5 -21.5t20.5 -56.5v-228l225 274q27 32 60 32q27 0 46.5 -18.5t19.5 -46.5q0 -27 -17 -47l-146 -168l172 -297q13 -23 13 -45q0 -29 -20 -49.5t-50 -20.5q-45 0 -70 43l-143 257l-90 -113v-109q0 -35 -20.5 -56.5
t-52.5 -21.5q-33 0 -53.5 21.5t-20.5 56.5z" />
    <glyph glyph-name="L" unicode="L" horiz-adv-x="550" 
d="M65 74v534q0 35 20.5 56.5t53.5 21.5q32 0 52.5 -21.5t20.5 -56.5v-471q0 -6 6 -6h242q33 0 53.5 -18t20.5 -47t-20 -47.5t-54 -18.5h-321q-34 0 -54 20.5t-20 53.5z" />
    <glyph glyph-name="M" unicode="M" horiz-adv-x="763" 
d="M65 65v533q0 40 22 64t59 24q32 0 52.5 -18t38.5 -58l145 -328h4l142 328q17 40 37.5 58t52.5 18q37 0 58.5 -24t21.5 -64v-533q0 -33 -18.5 -52t-48.5 -19t-48.5 19t-18.5 52v328h-5l-105 -244q-16 -36 -31 -49t-41 -13t-41 13t-31 49l-106 244h-5v-328q0 -33 -18.5 -52
t-47.5 -19q-31 0 -49.5 19t-18.5 52z" />
    <glyph glyph-name="N" unicode="N" horiz-adv-x="655" 
d="M65 65v533q0 40 22 64t60 24q56 0 97 -72l208 -371h4v372q0 33 18.5 52t48.5 19t48.5 -19t18.5 -52v-533q0 -40 -22 -64t-60 -24q-56 0 -97 72l-208 370h-4v-371q0 -33 -18.5 -52t-48.5 -19t-48.5 19t-18.5 52z" />
    <glyph glyph-name="O" unicode="O" horiz-adv-x="628" 
d="M314 -11q-91 0 -156.5 42t-91.5 123q-19 61 -19 186t19 186q26 81 91.5 123t156.5 42t156.5 -42t91.5 -123q19 -61 19 -186t-19 -186q-26 -81 -91.5 -123t-156.5 -42zM314 119q83 0 107 74q11 34 11 147t-11 147q-24 74 -107 74t-107 -74q-11 -34 -11 -147t11 -147
q24 -74 107 -74z" />
    <glyph glyph-name="P" unicode="P" horiz-adv-x="605" 
d="M139 -6q-33 0 -53.5 21.5t-20.5 56.5v543q0 30 17 47.5t47 17.5h210q110 0 173.5 -60t63.5 -159q0 -97 -64 -157.5t-173 -60.5h-121q-6 0 -6 -6v-165q0 -35 -20.5 -56.5t-52.5 -21.5zM330 370q46 0 72.5 24.5t26.5 66.5t-26.5 67t-72.5 25h-112q-6 0 -6 -6v-171
q0 -6 6 -6h112z" />
    <glyph glyph-name="Q" unicode="Q" horiz-adv-x="629" 
d="M586 84q21 -21 21 -50q0 -28 -20 -47.5t-48 -19.5q-29 0 -50 21l-34 34q-60 -33 -141 -33q-91 0 -156.5 42t-91.5 123q-19 61 -19 186t19 186q26 81 91.5 123t156.5 42t156.5 -42t91.5 -123q19 -61 19 -186t-19 -186q-7 -21 -13 -33zM314 119q20 0 38 5l-25 26
q-20 20 -20 50q0 27 19.5 47t47.5 20q29 0 50 -21l6 -7q3 35 3 101q0 112 -11 146q-24 75 -108 75t-108 -75q-11 -34 -11 -146t11 -146q24 -75 108 -75z" />
    <glyph glyph-name="R" unicode="R" horiz-adv-x="624" 
d="M504 -6q-48 0 -72 46l-114 219h-100q-6 0 -6 -6v-181q0 -35 -20.5 -56.5t-52.5 -21.5q-33 0 -53.5 21.5t-20.5 56.5v543q0 30 17 47.5t47 17.5h216q104 0 168 -58.5t64 -152.5q0 -62 -29.5 -110t-82.5 -74l99 -180q10 -19 10 -41q0 -30 -19 -50t-51 -20zM338 384
q42 0 67 23t25 61q0 39 -25 62t-67 23h-120q-6 0 -6 -6v-157q0 -6 6 -6h120z" />
    <glyph glyph-name="S" unicode="S" horiz-adv-x="595" 
d="M291 -11q-121 0 -214 58q-35 23 -35 62q0 27 19 46t47 19q22 0 43 -12q79 -44 146 -44q53 0 82 22t29 58q0 32 -23.5 50t-81.5 26l-36 5q-215 29 -215 204q0 94 65.5 151t175.5 57q118 0 190 -45q35 -22 35 -59q0 -28 -18.5 -46t-45.5 -18q-21 0 -43 11q-58 28 -117 28
q-44 0 -68 -20t-24 -53q0 -60 106 -75l36 -5q107 -15 160.5 -65t53.5 -141q0 -96 -69 -155t-198 -59z" />
    <glyph glyph-name="T" unicode="T" horiz-adv-x="559" 
d="M279 -6q-32 0 -52.5 21.5t-20.5 56.5v471q0 6 -6 6h-115q-33 0 -53.5 18t-20.5 47t20 47.5t54 18.5h389q34 0 54 -18.5t20 -47.5t-20.5 -47t-53.5 -18h-115q-6 0 -6 -6v-471q0 -35 -20.5 -56.5t-53.5 -21.5z" />
    <glyph glyph-name="U" unicode="U" horiz-adv-x="645" 
d="M323 -11q-121 0 -191 68t-70 194v357q0 35 20.5 56.5t53.5 21.5q32 0 52.5 -21.5t20.5 -56.5v-362q0 -60 32 -93.5t82 -33.5q52 0 82.5 33.5t30.5 93.5v362q0 35 20.5 56.5t52.5 21.5q33 0 53.5 -21.5t20.5 -56.5v-357q0 -125 -71 -193.5t-189 -68.5z" />
    <glyph glyph-name="V" unicode="V" horiz-adv-x="595" 
d="M298 -6q-34 0 -56 19.5t-38 66.5l-173 506q-5 17 -5 31q0 29 20.5 49t51.5 20q52 0 71 -57l131 -405h3l124 405q18 57 71 57q31 0 51 -20t20 -49q0 -14 -5 -31l-173 -506q-16 -46 -38 -66t-55 -20z" />
    <glyph glyph-name="W" unicode="W" horiz-adv-x="864" 
d="M615 -6q-31 0 -49.5 18t-30.5 59l-103 361h-2l-101 -361q-11 -41 -30 -59t-50 -18q-59 0 -80 77l-140 516q-4 18 -4 29q0 30 19.5 50t52.5 20q55 0 72 -68l89 -376h2l103 381q18 63 69 63q52 0 70 -63l106 -381h2l86 376q15 68 72 68q32 0 51.5 -19.5t19.5 -50.5
q0 -11 -4 -29l-140 -516q-21 -77 -80 -77z" />
    <glyph glyph-name="X" unicode="X" horiz-adv-x="594" 
d="M493 -6q-38 0 -61 35l-134 198h-2l-134 -198q-23 -35 -61 -35q-30 0 -49.5 19t-19.5 47q0 22 15 45l166 244l-154 226q-15 23 -15 45q0 28 19.5 47t49.5 19q38 0 61 -35l122 -180h2l122 180q23 35 61 35q30 0 49.5 -19t19.5 -47q0 -22 -15 -45l-155 -226l167 -244
q15 -23 15 -45q0 -28 -19.5 -47t-49.5 -19z" />
    <glyph glyph-name="Y" unicode="Y" horiz-adv-x="568" 
d="M283 -6q-31 0 -52 21.5t-21 56.5v198l-174 310q-11 20 -11 40q0 28 20 47t49 19q41 0 65 -44l124 -233h3l125 233q23 44 65 44q29 0 48 -18.5t19 -47.5q0 -20 -11 -40l-175 -310v-198q0 -36 -20.5 -57t-53.5 -21z" />
    <glyph glyph-name="Z" unicode="Z" horiz-adv-x="546" 
d="M442 0h-331q-36 0 -56.5 20t-20.5 50q0 25 10 47t37 61l250 369v2h-216q-32 0 -51 18t-19 47t19 47.5t51 18.5h320q37 0 57 -20t20 -50q0 -23 -8.5 -43.5t-34.5 -58.5l-254 -375v-2h227q33 0 51.5 -18.5t18.5 -47.5t-18.5 -47t-51.5 -18z" />
    <glyph glyph-name="bracketleft" unicode="[" horiz-adv-x="302" 
d="M224 -84h-107q-25 0 -39 14t-14 38v720q0 24 14 38t39 14h107q27 0 42 -14t15 -38t-15 -38t-42 -14h-30q-6 0 -6 -6v-604q0 -6 6 -6h30q27 0 42 -14t15 -38t-15 -38t-42 -14z" />
    <glyph glyph-name="backslash" unicode="\" horiz-adv-x="424" 
d="M305 -16q-45 0 -60 48l-185 579q-4 11 -4 25q0 27 18.5 43.5t44.5 16.5q45 0 60 -48l185 -579q4 -11 4 -25q0 -27 -18.5 -43.5t-44.5 -16.5z" />
    <glyph glyph-name="bracketright" unicode="]" horiz-adv-x="302" 
d="M185 -84h-107q-27 0 -42 14t-15 38t15 38t42 14h30q6 0 6 6v604q0 6 -6 6h-30q-27 0 -42 14t-15 38t15 38t42 14h107q25 0 39 -14t14 -38v-720q0 -24 -14 -38t-39 -14z" />
    <glyph glyph-name="asciicircum" unicode="^" 
d="M426 248q-42 0 -59 44l-88 219h-2l-88 -219q-17 -44 -59 -44q-26 0 -42.5 15t-16.5 41q0 17 7 32l127 297q23 53 73 53t73 -53l127 -297q7 -15 7 -32q0 -26 -16.5 -41t-42.5 -15z" />
    <glyph glyph-name="underscore" unicode="_" horiz-adv-x="520" 
d="M520 -152h-520v88h520v-88z" />
    <glyph glyph-name="grave" unicode="`" horiz-adv-x="454" 
d="M250 540q-28 0 -47 25l-44 59q-13 18 -13 40t16 36.5t37 14.5q29 0 47 -24l43 -61q13 -20 13 -41q0 -22 -15 -35.5t-37 -13.5z" />
    <glyph glyph-name="a" unicode="a" horiz-adv-x="528" 
d="M491 100q12 -19 12 -41q0 -28 -20.5 -46.5t-49.5 -18.5q-37 0 -57 27l-12 17h-1q-40 -49 -137 -49q-91 0 -137.5 39t-46.5 109q0 78 53.5 117t146.5 39h87q6 0 6 6v5q0 72 -99 72q-42 0 -78 -14q-21 -7 -33 -7q-25 0 -40.5 15.5t-15.5 40.5q0 38 36 56q56 28 148 28
q107 0 161.5 -51t54.5 -144v-132q0 -31 9 -46zM245 94q90 0 90 67v33q0 6 -6 6h-68q-86 0 -86 -55q0 -51 70 -51z" />
    <glyph glyph-name="b" unicode="b" horiz-adv-x="551" 
d="M327 -11q-86 0 -126 56h-1q-14 -51 -67 -51q-31 0 -50.5 20t-19.5 54v544q0 34 19.5 54t50.5 20t50.5 -20t19.5 -54v-169h1q35 52 123 52q59 0 104 -33t64 -90q17 -51 17 -130t-17 -130q-19 -57 -64 -90t-104 -33zM286 107q57 0 75 56q9 27 9 79t-9 79q-18 56 -75 56
q-56 0 -74 -56q-9 -27 -9 -79t9 -79q18 -56 74 -56z" />
    <glyph glyph-name="c" unicode="c" horiz-adv-x="477" 
d="M261 -11q-77 0 -130.5 35.5t-75.5 102.5q-16 46 -16 115t16 115q22 67 75.5 102.5t130.5 35.5q99 0 152 -53q28 -28 28 -56q0 -26 -17.5 -43t-43.5 -17q-25 0 -57 29q-23 22 -60 22q-57 0 -73 -53q-9 -28 -9 -82t9 -82q16 -53 73 -53q37 0 60 22q32 29 57 29
q26 0 43.5 -17t17.5 -43q0 -28 -28 -56q-53 -53 -152 -53z" />
    <glyph glyph-name="d" unicode="d" horiz-adv-x="551" 
d="M418 -6q-53 0 -67 51h-1q-40 -56 -126 -56q-59 0 -104 33t-64 90q-17 51 -17 130t17 130q19 57 64 90t104 33q88 0 123 -52h1v169q0 34 19.5 54t50.5 20t50.5 -20t19.5 -54v-544q0 -34 -19.5 -54t-50.5 -20zM265 107q56 0 74 56q9 27 9 79t-9 79q-18 56 -74 56
q-57 0 -75 -56q-9 -27 -9 -79t9 -79q18 -56 75 -56z" />
    <glyph glyph-name="e" unicode="e" horiz-adv-x="527" 
d="M271 -11q-83 0 -139 36t-77 102q-16 48 -16 115q0 71 15 116q22 66 76.5 101.5t132.5 35.5q80 0 134 -35.5t75 -100.5q16 -49 16 -113q0 -21 -12.5 -33.5t-33.5 -12.5h-257q-6 0 -6 -6q0 -13 5 -28q20 -63 100 -63q45 0 91 25q25 15 48 15q22 0 36.5 -15t14.5 -37
q0 -31 -28 -50q-75 -52 -175 -52zM185 293h159q6 0 6 6q0 19 -5 36q-17 53 -81 53q-63 0 -80 -53q-5 -17 -5 -36q0 -6 6 -6z" />
    <glyph glyph-name="f" unicode="f" horiz-adv-x="339" 
d="M151 -6q-31 0 -50.5 20t-19.5 54v306q0 6 -7 6h-4q-27 0 -41.5 14t-14.5 38t14.5 38t41.5 14h4q7 0 7 6v23q0 88 41 127.5t129 39.5h10q31 0 47.5 -15.5t16.5 -41.5t-16 -42t-45 -16q-23 0 -33 -11.5t-10 -38.5v-25q0 -6 6 -6h38q27 0 41.5 -14t14.5 -38t-14.5 -38
t-41.5 -14h-38q-6 0 -6 -6v-306q0 -34 -19.5 -54t-50.5 -20z" />
    <glyph glyph-name="g" unicode="g" horiz-adv-x="544" 
d="M240 -191q-48 0 -93.5 16.5t-64.5 37.5q-19 20 -19 46q0 24 17 41.5t42 17.5q22 0 55 -18q37 -20 70 -20q94 0 94 104v39h-1q-41 -54 -123 -54q-60 0 -102 31t-61 89q-16 49 -16 118t16 118q19 58 61 89t102 31q86 0 126 -56h1q14 51 67 51q31 0 50.5 -20t19.5 -54v-363
q0 -244 -241 -244zM261 136q53 0 71 53q9 27 9 67q0 41 -9 68q-18 53 -71 53q-54 0 -72 -53q-9 -27 -9 -68q0 -40 9 -67q18 -53 72 -53z" />
    <glyph glyph-name="h" unicode="h" horiz-adv-x="553" 
d="M424 -6q-31 0 -50.5 20t-19.5 54v220q0 41 -19.5 64.5t-56.5 23.5t-56 -23.5t-19 -64.5v-220q0 -34 -19.5 -54t-50.5 -20t-50.5 20t-19.5 54v544q0 34 19.5 54t50.5 20t50.5 -20t19.5 -54v-169h1q44 52 125 52q78 0 121.5 -49.5t43.5 -130.5v-247q0 -34 -19.5 -54
t-50.5 -20z" />
    <glyph glyph-name="i" unicode="i" horiz-adv-x="266" 
d="M133 533q-33 0 -56 23t-23 56t23 56t56 23t56 -23t23 -56t-23 -56t-56 -23zM133 -6q-31 0 -50.5 20t-19.5 54v348q0 34 19.5 54t50.5 20t50.5 -20t19.5 -54v-348q0 -34 -19.5 -54t-50.5 -20z" />
    <glyph glyph-name="j" unicode="j" horiz-adv-x="266" 
d="M133 533q-33 0 -56 23t-23 56t23 56t56 23t56 -23t23 -56t-23 -56t-56 -23zM33 -180q-30 0 -46.5 16.5t-16.5 42.5q0 51 54 61q22 4 30.5 16t8.5 39v421q0 34 19.5 54t50.5 20t50.5 -20t19.5 -54v-420q0 -91 -42.5 -133.5t-127.5 -42.5z" />
    <glyph glyph-name="k" unicode="k" horiz-adv-x="531" 
d="M422 -6q-40 0 -63 38l-106 178l-50 -52v-90q0 -34 -19.5 -54t-50.5 -20t-50.5 20t-19.5 54v544q0 34 19.5 54t50.5 20t50.5 -20t19.5 -54v-302l151 155q25 25 54 25q23 0 39.5 -16t16.5 -40q0 -30 -22 -51l-91 -85l127 -201q11 -18 11 -39q0 -27 -19.5 -45.5t-47.5 -18.5
z" />
    <glyph glyph-name="l" unicode="l" horiz-adv-x="304" 
d="M216 -6h-6q-80 0 -114.5 38.5t-34.5 115.5v464q0 34 19.5 54t50.5 20t50.5 -20t19.5 -54v-452q0 -38 32 -44q56 -10 56 -61q0 -27 -18.5 -44t-54.5 -17z" />
    <glyph glyph-name="m" unicode="m" horiz-adv-x="844" 
d="M715 -6q-31 0 -50.5 20t-19.5 54v220q0 41 -19.5 64.5t-56.5 23.5q-36 0 -55.5 -23.5t-19.5 -64.5v-220q0 -34 -19.5 -54t-50.5 -20t-50.5 20t-19.5 54v220q0 41 -19.5 64.5t-56.5 23.5t-56 -23.5t-19 -64.5v-220q0 -34 -19.5 -54t-50.5 -20t-50.5 20t-19.5 54v348
q0 34 19.5 54t50.5 20q54 0 67 -51h1q43 56 128 56q88 0 131 -63h1q57 63 152 63q83 0 127.5 -49t44.5 -131v-247q0 -34 -19.5 -54t-50.5 -20z" />
    <glyph glyph-name="n" unicode="n" horiz-adv-x="553" 
d="M424 -6q-31 0 -50.5 20t-19.5 54v220q0 41 -19.5 64.5t-56.5 23.5t-56 -23.5t-19 -64.5v-220q0 -34 -19.5 -54t-50.5 -20t-50.5 20t-19.5 54v348q0 34 19.5 54t50.5 20q54 0 67 -51h1q43 56 128 56q78 0 121.5 -49.5t43.5 -130.5v-247q0 -34 -19.5 -54t-50.5 -20z" />
    <glyph glyph-name="o" unicode="o" horiz-adv-x="530" 
d="M265 -11q-79 0 -133.5 36t-76.5 103q-16 51 -16 114t16 114q22 67 76.5 103t133.5 36t133.5 -36t76.5 -103q16 -51 16 -114t-16 -114q-22 -67 -76.5 -103t-133.5 -36zM265 107q58 0 75 54q9 27 9 81t-9 81q-17 54 -75 54t-75 -54q-9 -27 -9 -81t9 -81q17 -54 75 -54z" />
    <glyph glyph-name="p" unicode="p" horiz-adv-x="551" 
d="M133 -186q-31 0 -50.5 20t-19.5 54v528q0 34 19.5 54t50.5 20q53 0 67 -51h1q40 56 126 56q59 0 104 -33t64 -90q17 -51 17 -130t-17 -130q-19 -57 -64 -90t-104 -33q-88 0 -123 52h-1v-153q0 -34 -19.5 -54t-50.5 -20zM286 107q57 0 75 56q9 27 9 79t-9 79
q-18 56 -75 56q-56 0 -74 -56q-9 -27 -9 -79t9 -79q18 -56 74 -56z" />
    <glyph glyph-name="q" unicode="q" horiz-adv-x="551" 
d="M418 -186q-31 0 -50.5 20t-19.5 54v153h-1q-35 -52 -123 -52q-59 0 -104 33t-64 90q-17 51 -17 130t17 130q19 57 64 90t104 33q86 0 126 -56h1q14 51 67 51q31 0 50.5 -20t19.5 -54v-528q0 -34 -19.5 -54t-50.5 -20zM265 107q56 0 74 56q9 27 9 79t-9 79q-18 56 -74 56
q-57 0 -75 -56q-9 -27 -9 -79t9 -79q18 -56 75 -56z" />
    <glyph glyph-name="r" unicode="r" horiz-adv-x="428" 
d="M133 -6q-31 0 -50.5 20t-19.5 54v348q0 34 19.5 54t50.5 20q25 0 43.5 -14t24.5 -40v-1h1q18 26 50.5 43t71.5 17q29 0 51 -10q37 -18 37 -57q0 -31 -19 -51t-50 -20q-13 0 -30 5t-36 5q-74 0 -74 -102v-197q0 -34 -19.5 -54t-50.5 -20z" />
    <glyph glyph-name="s" unicode="s" horiz-adv-x="505" 
d="M250 -11q-103 0 -177 46q-34 21 -34 56q0 23 17 39.5t41 16.5q18 0 41 -13q61 -35 119 -35q75 0 75 45q0 18 -14.5 27.5t-55.5 13.5l-53 6q-158 18 -158 148q0 72 53 114t147 42q85 0 147 -32q41 -21 41 -55q0 -24 -15.5 -39.5t-39.5 -15.5q-15 0 -40 12q-45 21 -98 21
q-61 0 -61 -38q0 -18 14 -27t53 -13l53 -6q161 -18 161 -147q0 -75 -57.5 -120.5t-158.5 -45.5z" />
    <glyph glyph-name="t" unicode="t" horiz-adv-x="331" 
d="M234 -6h-6q-84 0 -119.5 39t-35.5 123v218q0 6 -7 6h-4q-27 0 -41.5 14t-14.5 38t14.5 38t41.5 14h4q7 0 7 6v72q0 34 19.5 54t50.5 20t50 -20t19 -54v-72q0 -6 6 -6h38q27 0 41.5 -14t14.5 -38t-14.5 -38t-41.5 -14h-38q-6 0 -6 -6v-214q0 -40 37 -44q31 -4 46.5 -21
t15.5 -41q0 -27 -19.5 -43.5t-57.5 -16.5z" />
    <glyph glyph-name="u" unicode="u" horiz-adv-x="549" 
d="M416 -6q-54 0 -67 51h-1q-43 -56 -128 -56q-78 0 -120 49.5t-42 130.5v247q0 34 20 54t51 20t50 -20t19 -54v-220q0 -41 18.5 -64.5t55.5 -23.5q36 0 55 23.5t19 64.5v220q0 34 19.5 54t50.5 20t50.5 -20t19.5 -54v-348q0 -34 -19.5 -54t-50.5 -20z" />
    <glyph glyph-name="v" unicode="v" horiz-adv-x="508" 
d="M254 -6q-34 0 -53.5 18.5t-39.5 67.5l-125 311q-7 17 -7 33q0 28 20 47t49 19q47 0 65 -49l93 -253h2l89 253q17 49 64 49q29 0 48.5 -19t19.5 -47q0 -16 -7 -33l-125 -311q-20 -49 -39.5 -67.5t-53.5 -18.5z" />
    <glyph glyph-name="w" unicode="w" horiz-adv-x="765" 
d="M532 -6q-60 0 -79 65l-69 232h-2l-70 -232q-21 -65 -77 -65q-57 0 -79 65l-113 335q-5 17 -5 29q0 29 19.5 48t48.5 19q50 0 67 -59l70 -245h2l69 244q18 60 69 60q50 0 68 -60l73 -244h2l67 245q17 59 67 59q29 0 48 -19t19 -48q0 -12 -5 -29l-113 -335q-22 -65 -77 -65
z" />
    <glyph glyph-name="x" unicode="x" horiz-adv-x="515" 
d="M407 -6q-34 0 -58 31l-91 120h-1l-91 -120q-24 -31 -58 -31q-27 0 -44.5 18t-17.5 43q0 23 17 46l114 149l-102 133q-17 23 -17 46q0 25 17.5 43t44.5 18q34 0 58 -31l79 -104h1l79 104q24 31 58 31q27 0 44.5 -18t17.5 -43q0 -23 -17 -46l-102 -133l114 -149
q17 -23 17 -46q0 -25 -17.5 -43t-44.5 -18z" />
    <glyph glyph-name="y" unicode="y" horiz-adv-x="507" 
d="M126 -180h-6q-30 0 -47.5 16.5t-17.5 42.5q0 27 17.5 43t47.5 17q43 1 59 49l13 36l-155 367q-7 17 -7 33q0 28 20 47t49 19q46 0 65 -49l93 -247h2l86 247q17 49 64 49q29 0 48.5 -19t19.5 -47q0 -16 -7 -33l-173 -433q-31 -78 -68.5 -108t-102.5 -30z" />
    <glyph glyph-name="z" unicode="z" horiz-adv-x="478" 
d="M386 0h-293q-29 0 -46 16t-17 44q0 35 45 86l196 219v2h-164q-30 0 -46.5 16t-16.5 42q0 27 16.5 43t46.5 16h279q28 0 45 -16t17 -44q0 -37 -44 -87l-195 -218v-2h177q29 0 45.5 -16t16.5 -43q0 -26 -16.5 -42t-45.5 -16z" />
    <glyph glyph-name="braceleft" unicode="{" horiz-adv-x="357" 
d="M281 -84h-20q-136 0 -136 126v150q0 34 -10 51t-34 28q-41 17 -41 59t41 59q24 11 34 28t10 51v146q0 126 136 126h20q27 0 42 -14.5t15 -37.5q0 -48 -52 -54l-9 -1q-29 -3 -29 -41v-135q0 -56 -16.5 -84t-55.5 -42v-2q39 -14 55.5 -42t16.5 -84v-139q0 -38 29 -41l9 -1
q52 -6 52 -54q0 -23 -15 -37.5t-42 -14.5z" />
    <glyph glyph-name="bar" unicode="|" horiz-adv-x="335" 
d="M168 -90q-27 0 -43.5 17.5t-16.5 46.5v708q0 29 16.5 46.5t43.5 17.5q26 0 42.5 -17.5t16.5 -46.5v-708q0 -29 -16.5 -46.5t-42.5 -17.5z" />
    <glyph glyph-name="braceright" unicode="}" horiz-adv-x="357" 
d="M96 -84h-20q-27 0 -42 14.5t-15 37.5q0 48 52 54l9 1q29 3 29 41v139q0 56 16.5 84t55.5 42v2q-39 14 -55.5 42t-16.5 84v135q0 38 -29 41l-9 1q-52 6 -52 54q0 23 15 37.5t42 14.5h20q136 0 136 -126v-146q0 -34 10 -51t34 -28q41 -17 41 -59t-41 -59q-24 -11 -34 -28
t-10 -51v-150q0 -126 -136 -126z" />
    <glyph glyph-name="asciitilde" unicode="~" 
d="M367 191q-53 0 -105 34q-40 26 -67 26q-28 0 -49 -25q-23 -27 -48 -27q-21 0 -35.5 13t-14.5 35q0 20 13 40q20 31 54.5 52t73.5 21q53 0 105 -34q40 -26 67 -26q28 0 49 25q23 27 48 27q21 0 35.5 -13t14.5 -35q0 -20 -13 -40q-20 -31 -54.5 -52t-73.5 -21z" />
    <glyph glyph-name="uni00A0" unicode="&#xa0;" horiz-adv-x="236" 
 />
    <glyph glyph-name="exclamdown" unicode="&#xa1;" horiz-adv-x="312" 
d="M156 280q31 0 51 -20t20 -55v-338q0 -34 -20 -54t-51 -20t-50.5 20t-19.5 54v338q0 35 19.5 55t50.5 20zM238 408q0 -34 -24 -58t-58 -24t-58 24t-24 58t24 58t58 24t58 -24t24 -58z" />
    <glyph glyph-name="cent" unicode="&#xa2;" 
d="M265 -70v61q-66 7 -112.5 41.5t-65.5 94.5q-16 46 -16 115t16 115q19 59 65.5 94t112.5 42v61q0 16 9 25t24 9q14 0 23 -9t9 -25v-61q102 -14 138 -78q9 -18 9 -35q0 -24 -16.5 -41t-41.5 -17q-28 0 -58 28q-15 13 -31 20v-256q16 7 31 20q30 28 58 28q25 0 41.5 -17
t16.5 -41q0 -17 -9 -35q-36 -64 -138 -78v-61q0 -16 -9 -25t-23 -9q-15 0 -24 9t-9 25zM222 161q10 -35 43 -48v257q-32 -11 -43 -47q-8 -25 -8 -81t8 -81z" />
    <glyph glyph-name="sterling" unicode="&#xa3;" 
d="M439 0h-308q-30 0 -47.5 16.5t-17.5 43.5q0 32 35 70q24 25 24 75v58q0 6 -6 6h-11q-26 0 -40.5 13.5t-14.5 36.5t14.5 36t40.5 13h11q6 0 6 6v122q0 92 51 143.5t140 51.5q61 0 103.5 -26t56.5 -66q5 -14 5 -29q0 -27 -17.5 -45t-44.5 -18q-40 0 -59 35q-17 30 -45 30
q-49 0 -49 -61v-137q0 -6 6 -6h83q26 0 40.5 -13t14.5 -36t-14.5 -36.5t-40.5 -13.5h-83q-6 0 -6 -6v-43q0 -68 -26 -98v-2h199q30 0 47 -16.5t17 -43.5t-17 -43.5t-47 -16.5z" />
    <glyph glyph-name="currency" unicode="&#xa4;" 
d="M278 100q-55 0 -100 25l-35 -35q-20 -20 -45 -20t-42 17t-17 41q0 25 20 45l36 36q-23 43 -23 96t24 97l-37 37q-20 20 -20 45q0 24 17 41t42 17t45 -20l36 -37q45 25 99 25q53 0 98 -25l36 37q20 20 45 20t42 -17t17 -41q0 -25 -20 -45l-37 -37q24 -46 24 -97t-24 -96
l37 -36q20 -20 20 -45q0 -24 -17 -41t-42 -17t-45 20l-35 35q-45 -25 -99 -25zM278 204q42 0 70 29t28 72q0 44 -27.5 73t-70.5 29t-71 -29t-28 -73q0 -43 28 -72t71 -29z" />
    <glyph glyph-name="yen" unicode="&#xa5;" 
d="M278 -6q-31 0 -50.5 20t-19.5 54v57q0 6 -6 6h-88q-20 0 -31.5 11.5t-11.5 29.5t11.5 29.5t31.5 11.5h88q6 0 6 6v34q0 6 -6 6h-88q-20 0 -31.5 11.5t-11.5 29.5t11.5 29.5t31.5 11.5h64v2l-120 246q-7 15 -7 33q0 27 19 45.5t49 18.5q43 0 63 -45l98 -228h3l94 228
q19 45 62 45q29 0 47.5 -18.5t18.5 -45.5q0 -18 -7 -33l-120 -246v-2h64q20 0 31.5 -11.5t11.5 -29.5t-11.5 -29.5t-31.5 -11.5h-88q-6 0 -6 -6v-34q0 -6 6 -6h88q20 0 31.5 -11.5t11.5 -29.5t-11.5 -29.5t-31.5 -11.5h-88q-6 0 -6 -6v-57q0 -34 -19.5 -54t-50.5 -20z" />
    <glyph glyph-name="brokenbar" unicode="&#xa6;" horiz-adv-x="335" 
d="M168 382q-27 0 -43.5 17t-16.5 47v236q0 30 16.5 47t43.5 17t43 -17t16 -47v-236q0 -30 -16 -47t-43 -17zM168 -90q-27 0 -43.5 17t-16.5 47v236q0 30 16.5 47t43.5 17t43 -17t16 -47v-236q0 -30 -16 -47t-43 -17z" />
    <glyph glyph-name="section" unicode="&#xa7;" horiz-adv-x="558" 
d="M276 -191q-75 0 -124.5 36t-58.5 87q-1 6 -1 14q0 26 16.5 41.5t44.5 15.5q41 0 57 -43q17 -45 66 -45q29 0 45.5 16t16.5 43q0 32 -24 51t-85 35q-156 40 -156 191q0 104 88 153v1q-64 42 -64 124q0 68 51.5 115t133.5 47q69 0 117 -31.5t57 -81.5q2 -8 2 -17
q0 -26 -16 -41.5t-43 -15.5q-40 0 -56 42q-16 39 -58 39q-28 0 -44.5 -15.5t-16.5 -41.5q0 -31 23.5 -50t80.5 -34q157 -42 157 -191q0 -50 -25 -91t-63 -62v-1q67 -41 67 -124q0 -76 -51.5 -121t-136.5 -45zM279 168q36 0 57.5 22.5t21.5 61.5t-21.5 61.5t-57.5 22.5
q-37 0 -58 -22t-21 -62t21 -62t58 -22z" />
    <glyph glyph-name="dieresis" unicode="&#xa8;" horiz-adv-x="454" 
d="M328 543q-30 0 -51 21t-21 51q0 29 21 50t51 21q29 0 50 -21t21 -50q0 -30 -21 -51t-50 -21zM127 543q-30 0 -51 21t-21 51q0 29 21 50t51 21q29 0 50 -21t21 -50q0 -30 -21 -51t-50 -21z" />
    <glyph glyph-name="copyright" unicode="&#xa9;" horiz-adv-x="813" 
d="M406 -11q-149 0 -250 100.5t-101 250.5t101 250.5t250 100.5q150 0 251 -100.5t101 -250.5t-101 -250.5t-251 -100.5zM406 68q116 0 192.5 77.5t76.5 194.5t-76.5 194.5t-192.5 77.5q-115 0 -191.5 -77.5t-76.5 -194.5t76.5 -194.5t191.5 -77.5zM415 143q-127 0 -166 111
q-11 30 -11 86t11 86q39 111 166 111q82 0 119 -46q13 -16 13 -35q0 -18 -13 -31.5t-32 -13.5q-23 0 -41 17q-20 17 -43 17q-49 0 -64 -44q-6 -17 -6 -61t6 -61q15 -44 64 -44q23 0 43 17q18 17 41 17q19 0 32 -13.5t13 -31.5q0 -19 -13 -35q-37 -46 -119 -46z" />
    <glyph glyph-name="ordfeminine" unicode="&#xaa;" horiz-adv-x="356" 
d="M329 466q11 -14 11 -31q0 -20 -13.5 -33.5t-35.5 -13.5q-26 0 -41 23l-4 6h-1q-28 -30 -88 -30q-123 0 -123 91q0 92 129 92h49q6 0 6 6v4q0 31 -55 31q-26 0 -56 -10q-11 -4 -23 -4q-17 0 -27 10t-10 26q0 24 23 36q35 19 102 19q144 0 144 -115v-70q0 -19 7 -29z
M166 458q52 0 52 35v8q0 6 -6 6h-41q-41 0 -41 -25q0 -24 36 -24z" />
    <glyph glyph-name="guillemotleft" unicode="&#xab;" horiz-adv-x="564" 
d="M476 63q-24 0 -43 19l-140 140q-22 22 -22 42t22 42l140 140q19 19 43 19q20 0 34 -13.5t14 -34.5q0 -23 -19 -42l-107 -106q-5 -5 0 -10l107 -106q19 -19 19 -42q0 -21 -14 -34.5t-34 -13.5zM233 63q-24 0 -43 19l-140 140q-22 22 -22 42t22 42l140 140q19 19 43 19
q20 0 34 -13.5t14 -34.5q0 -23 -19 -42l-107 -106q-5 -5 0 -10l107 -106q19 -19 19 -42q0 -21 -14 -34.5t-34 -13.5z" />
    <glyph glyph-name="logicalnot" unicode="&#xac;" 
d="M444 78q-27 0 -44 17.5t-17 47.5v68q0 6 -6 6h-268q-29 0 -46 16t-17 43t17 43t46 16h337q26 0 42.5 -16t16.5 -43v-133q0 -30 -17 -47.5t-44 -17.5z" />
    <glyph glyph-name="uni00AD" unicode="&#xad;" horiz-adv-x="392" 
d="M291 204h-190q-30 0 -47.5 17t-17.5 44t17.5 44t47.5 17h190q30 0 47.5 -17t17.5 -44t-17.5 -44t-47.5 -17z" />
    <glyph glyph-name="registered" unicode="&#xae;" horiz-adv-x="440" 
d="M220 301q-81 0 -136.5 55t-55.5 137q0 81 55.5 136t136.5 55q82 0 137 -55t55 -136q0 -82 -55 -137t-137 -55zM220 341q64 0 107 43t43 109t-43 108.5t-107 42.5t-106.5 -42.5t-42.5 -108.5t42.5 -109t106.5 -43zM166 385q-28 0 -28 30v157q0 28 28 28h68q38 0 59 -18
t21 -50q0 -42 -33 -58l26 -47q5 -6 5 -17t-7.5 -18t-18.5 -7q-18 0 -29 20l-33 60h-25q-4 0 -4 -5v-45q0 -30 -29 -30zM230 510q29 0 29 22q0 23 -29 23h-31q-4 0 -4 -4v-37q0 -4 4 -4h31z" />
    <glyph glyph-name="macron" unicode="&#xaf;" horiz-adv-x="454" 
d="M334 575h-213q-25 0 -39 13.5t-14 35.5t14 36t39 14h213q24 0 38 -14t14 -36t-14 -35.5t-38 -13.5z" />
    <glyph glyph-name="degree" unicode="&#xb0;" horiz-adv-x="439" 
d="M220 386q-66 0 -110 44t-44 109q0 66 44 110t110 44q65 0 109 -44t44 -110q0 -65 -44 -109t-109 -44zM220 467q30 0 49.5 20.5t19.5 51.5q0 32 -19 52.5t-50 20.5t-50.5 -20.5t-19.5 -52.5q0 -31 19.5 -51.5t50.5 -20.5z" />
    <glyph glyph-name="plusminus" unicode="&#xb1;" 
d="M278 164q-27 0 -44 17.5t-17 47.5v102q0 6 -6 6h-102q-29 0 -46 16t-17 43t17 43t46 16h102q6 0 6 6v102q0 30 17 47.5t44 17.5t44 -17.5t17 -47.5v-102q0 -6 6 -6h102q29 0 46 -16t17 -43t-17 -43t-46 -16h-102q-6 0 -6 -6v-102q0 -30 -17 -47.5t-44 -17.5zM447 0h-338
q-29 0 -46 16t-17 43t17 43t46 16h338q29 0 46 -16t17 -43t-17 -43t-46 -16z" />
    <glyph glyph-name="twosuperior" unicode="&#xb2;" horiz-adv-x="358" 
d="M278 430h-194q-24 0 -37.5 13t-13.5 34q0 30 40 70l118 123q25 25 25 52q0 16 -10.5 25.5t-28.5 9.5q-25 0 -43 -27q-20 -29 -46 -29q-20 0 -33.5 12t-13.5 32q0 11 5 26q12 31 48.5 52t85.5 21q62 0 101 -33.5t39 -88.5q0 -56 -49 -105l-95 -97v-1h102q23 0 35.5 -12
t12.5 -32q0 -21 -12.5 -33t-35.5 -12z" />
    <glyph glyph-name="threesuperior" unicode="&#xb3;" horiz-adv-x="358" 
d="M179 422q-46 0 -83 17t-49 47q-5 13 -5 22q0 19 13.5 32t34.5 13q25 0 47 -27q14 -17 40 -17q20 0 32 11.5t12 31.5q0 19 -13 30.5t-36 11.5q-21 0 -33 12t-12 31t12 31t33 12q17 0 28.5 10.5t11.5 27.5q0 18 -11 28.5t-29 10.5q-21 0 -36 -15q-25 -25 -45 -25
q-19 0 -32.5 11.5t-13.5 30.5q0 9 5 22q11 27 45 45t81 18q65 0 102.5 -32t37.5 -84q0 -50 -42 -82v-1q21 -9 36 -34t15 -60q0 -58 -40.5 -93.5t-105.5 -35.5z" />
    <glyph glyph-name="acute" unicode="&#xb4;" horiz-adv-x="454" 
d="M251 565q-19 -25 -47 -25q-22 0 -37 13.5t-15 35.5q0 21 13 41l43 61q18 24 47 24q21 0 37 -14.5t16 -36.5t-13 -40z" />
    <glyph glyph-name="mu" unicode="&#xb5;" horiz-adv-x="554" 
d="M421 -6q-54 0 -67 51h-1q-13 -22 -40 -37t-58 -15q-33 0 -50 15h-1v-120q0 -34 -19.5 -54t-50.5 -20t-51 20t-20 54v528q0 34 20 54t51 20t50 -20t19 -54v-220q0 -41 18.5 -64.5t55.5 -23.5q36 0 55 23.5t19 64.5v220q0 34 19.5 54t50.5 20t50.5 -20t19.5 -54v-348
q0 -34 -19.5 -54t-50.5 -20z" />
    <glyph glyph-name="mu" unicode="&#x3bc;" horiz-adv-x="554" 
d="M421 -6q-54 0 -67 51h-1q-13 -22 -40 -37t-58 -15q-33 0 -50 15h-1v-120q0 -34 -19.5 -54t-50.5 -20t-51 20t-20 54v528q0 34 20 54t51 20t50 -20t19 -54v-220q0 -41 18.5 -64.5t55.5 -23.5q36 0 55 23.5t19 64.5v220q0 34 19.5 54t50.5 20t50.5 -20t19.5 -54v-348
q0 -34 -19.5 -54t-50.5 -20z" />
    <glyph glyph-name="paragraph" unicode="&#xb6;" horiz-adv-x="657" 
d="M521 -186q-27 0 -42.5 16.5t-15.5 45.5v694q0 6 -6 6h-69q-6 0 -6 -6v-694q0 -29 -15.5 -45.5t-42.5 -16.5t-42.5 16.5t-15.5 45.5v361q-91 6 -148 67.5t-57 153.5q0 97 63.5 159.5t172.5 62.5h223q28 0 43.5 -15.5t15.5 -43.5v-745q0 -29 -15.5 -45.5t-42.5 -16.5z" />
    <glyph glyph-name="periodcentered" unicode="&#xb7;" horiz-adv-x="260" 
d="M130 184q-34 0 -58 24t-24 58t24 58t58 24t58 -24t24 -58t-24 -58t-58 -24z" />
    <glyph glyph-name="cedilla" unicode="&#xb8;" horiz-adv-x="454" 
d="M257 -138q-12 -39 -51 -39q-23 0 -40 13.5t-17 36.5q0 12 5 25l39 102q4 10 14 10h91q10 0 7 -10z" />
    <glyph glyph-name="onesuperior" unicode="&#xb9;" horiz-adv-x="358" 
d="M204 424q-24 0 -38.5 15.5t-14.5 41.5v241h-2l-23 -14q-15 -9 -32 -9q-19 0 -30.5 13t-11.5 32q0 27 24 42l53 33q37 23 69 23q59 0 59 -63v-298q0 -26 -14.5 -41.5t-38.5 -15.5z" />
    <glyph glyph-name="ordmasculine" unicode="&#xba;" horiz-adv-x="372" 
d="M186 384q-113 0 -142 88q-9 26 -9 64t9 64q29 88 142 88t142 -88q9 -26 9 -64t-9 -64q-29 -88 -142 -88zM186 468q32 0 42 28q5 13 5 40t-5 40q-10 28 -42 28t-42 -28q-5 -13 -5 -40t5 -40q10 -28 42 -28z" />
    <glyph glyph-name="guillemotright" unicode="&#xbb;" horiz-adv-x="564" 
d="M331 63q-20 0 -34 13.5t-14 34.5q0 23 19 42l107 106q5 5 0 10l-107 106q-19 19 -19 42q0 21 14 34.5t34 13.5q24 0 43 -19l140 -140q22 -22 22 -42t-22 -42l-140 -140q-19 -19 -43 -19zM88 63q-20 0 -34 13.5t-14 34.5q0 23 19 42l107 106q5 5 0 10l-107 106
q-19 19 -19 42q0 21 14 34.5t34 13.5q24 0 43 -19l140 -140q22 -22 22 -42t-22 -42l-140 -140q-19 -19 -43 -19z" />
    <glyph glyph-name="onequarter" unicode="&#xbc;" horiz-adv-x="873" 
d="M226 268q-24 0 -38.5 15.5t-14.5 41.5v241h-2l-23 -14q-15 -9 -32 -9q-19 0 -30.5 13t-11.5 32q0 27 24 42l53 33q37 23 69 23q59 0 59 -63v-298q0 -26 -14.5 -41.5t-38.5 -15.5zM716 -6q-22 0 -36 13.5t-14 37.5v5q0 6 -6 6h-130q-22 0 -35 12t-13 32q0 26 18 66l96 211
q16 36 49 36q21 0 35.5 -14t14.5 -36q0 -13 -6 -26l-90 -192v-1h61q6 0 6 6v33q0 24 14 38t36 14q21 0 35 -14t14 -38v-33q0 -6 6 -6q20 0 32.5 -12t12.5 -32t-12.5 -32t-32.5 -12q-6 0 -6 -6v-5q0 -23 -13.5 -37t-35.5 -14zM295 11q-16 -28 -44 -28q-19 0 -31 12.5
t-12 31.5q0 14 8 28l355 613q16 28 44 28q19 0 31 -12.5t12 -31.5q0 -14 -8 -28z" />
    <glyph glyph-name="onehalf" unicode="&#xbd;" horiz-adv-x="907" 
d="M226 268q-24 0 -38.5 15.5t-14.5 41.5v241h-2l-23 -14q-15 -9 -32 -9q-19 0 -30.5 13t-11.5 32q0 27 24 42l53 33q37 23 69 23q59 0 59 -63v-298q0 -26 -14.5 -41.5t-38.5 -15.5zM790 0h-194q-24 0 -37.5 13t-13.5 34q0 30 40 70l118 123q25 25 25 52q0 16 -10.5 25.5
t-28.5 9.5q-25 0 -43 -27q-20 -29 -46 -29q-20 0 -33.5 12t-13.5 32q0 11 5 26q12 31 48.5 52t85.5 21q62 0 101 -33.5t39 -88.5q0 -56 -49 -105l-95 -97v-1h102q23 0 35.5 -12t12.5 -32q0 -21 -12.5 -33t-35.5 -12zM295 11q-16 -28 -44 -28q-19 0 -31 12.5t-12 31.5
q0 14 8 28l355 613q16 28 44 28q19 0 31 -12.5t12 -31.5q0 -14 -8 -28z" />
    <glyph glyph-name="threequarters" unicode="&#xbe;" horiz-adv-x="941" 
d="M764 -6q-22 0 -36 13.5t-14 37.5v5q0 6 -6 6h-130q-22 0 -35 12t-13 32q0 26 18 66l96 211q16 36 49 36q21 0 35.5 -14t14.5 -36q0 -13 -6 -26l-90 -192v-1h61q6 0 6 6v33q0 24 14 38t36 14q21 0 35 -14t14 -38v-33q0 -6 6 -6q20 0 32.5 -12t12.5 -32t-12.5 -32
t-32.5 -12q-6 0 -6 -6v-5q0 -23 -13.5 -37t-35.5 -14zM346 11q-16 -28 -44 -28q-19 0 -31 12.5t-12 31.5q0 14 8 28l355 613q16 28 44 28q19 0 31 -12.5t12 -31.5q0 -14 -8 -28zM223 266q-46 0 -83 17t-49 47q-5 13 -5 22q0 19 13.5 32t34.5 13q24 0 47 -27q14 -17 40 -17
q20 0 32 11.5t12 31.5q0 19 -13 30.5t-36 11.5q-21 0 -33 12t-12 31t12 31t33 12q17 0 28.5 10.5t11.5 27.5q0 18 -11 28.5t-29 10.5q-21 0 -36 -15q-25 -25 -45 -25q-19 0 -32.5 11.5t-13.5 30.5q0 9 5 22q11 27 45 45t81 18q65 0 102.5 -32t37.5 -84q0 -50 -42 -82v-1
q21 -9 36 -34t15 -60q0 -58 -40.5 -93.5t-105.5 -35.5z" />
    <glyph glyph-name="questiondown" unicode="&#xbf;" horiz-adv-x="473" 
d="M245 286q29 0 48.5 -18.5t19.5 -49.5q0 -53 -44 -102l-54 -61q-40 -44 -40 -81q0 -29 18 -47.5t48 -18.5q49 0 70 49q21 44 64 44q29 0 46.5 -16.5t17.5 -44.5q0 -12 -5 -27q-18 -56 -70 -90.5t-126 -34.5q-88 0 -144.5 51.5t-56.5 129.5q0 73 54 131l62 69q23 26 23 49
q0 31 20 49.5t49 18.5zM327 408q0 -34 -24 -58t-58 -24t-58 24t-24 58t24 58t58 24t58 -24t24 -58z" />
    <glyph glyph-name="Agrave" unicode="&#xc0;" horiz-adv-x="644" 
d="M33 63q0 15 5 28l184 509q30 86 101 86q72 0 102 -86l181 -509q5 -13 5 -28q0 -30 -21 -49.5t-50 -19.5q-52 0 -69 52l-28 83h-243l-27 -83q-17 -52 -69 -52q-29 0 -50 19.5t-21 49.5zM242 254h160l-78 238h-3zM256 761l-53 56q-17 17 -17 44q0 22 15.5 36t37.5 14
q26 0 46 -21l49 -55q19 -21 19 -47q0 -21 -15 -35t-35 -14q-28 0 -47 22z" />
    <glyph glyph-name="Aacute" unicode="&#xc1;" horiz-adv-x="644" 
d="M33 63q0 15 5 28l184 509q30 86 101 86q72 0 102 -86l181 -509q5 -13 5 -28q0 -30 -21 -49.5t-50 -19.5q-52 0 -69 52l-28 83h-243l-27 -83q-17 -52 -69 -52q-29 0 -50 19.5t-21 49.5zM242 254h160l-78 238h-3zM374 761q-19 -22 -47 -22q-20 0 -35 14t-15 35q0 27 17 45
l51 57q20 21 46 21q22 0 37.5 -14t15.5 -36q0 -27 -17 -44z" />
    <glyph glyph-name="Acircumflex" unicode="&#xc2;" horiz-adv-x="644" 
d="M33 63q0 15 5 28l184 509q30 86 101 86q72 0 102 -86l181 -509q5 -13 5 -28q0 -30 -21 -49.5t-50 -19.5q-52 0 -69 52l-28 83h-243l-27 -83q-17 -52 -69 -52q-29 0 -50 19.5t-21 49.5zM242 254h160l-78 238h-3zM421 735q-21 0 -39 18l-59 57h-2l-59 -57q-18 -18 -39 -18
q-17 0 -29.5 11.5t-12.5 28.5t12 30l64 74q31 36 65 36t65 -36l64 -74q12 -13 12 -30t-12.5 -28.5t-29.5 -11.5z" />
    <glyph glyph-name="Atilde" unicode="&#xc3;" horiz-adv-x="644" 
d="M33 63q0 15 5 28l184 509q30 86 101 86q72 0 102 -86l181 -509q5 -13 5 -28q0 -30 -21 -49.5t-50 -19.5q-52 0 -69 52l-28 83h-243l-27 -83q-17 -52 -69 -52q-29 0 -50 19.5t-21 49.5zM242 254h160l-78 238h-3zM383 748q-34 0 -70 22q-28 17 -43 17q-16 0 -33 -16
q-18 -16 -36 -16q-19 0 -31 12t-12 30q0 20 14 39q41 50 91 50q34 0 70 -22q28 -17 43 -17q16 0 33 16q18 16 36 16q19 0 31 -12t12 -30q0 -20 -14 -39q-41 -50 -91 -50z" />
    <glyph glyph-name="Adieresis" unicode="&#xc4;" horiz-adv-x="644" 
d="M33 63q0 15 5 28l184 509q30 86 101 86q72 0 102 -86l181 -509q5 -13 5 -28q0 -30 -21 -49.5t-50 -19.5q-52 0 -69 52l-28 83h-243l-27 -83q-17 -52 -69 -52q-29 0 -50 19.5t-21 49.5zM242 254h160l-78 238h-3zM423 748q-30 0 -51 20.5t-21 50.5t21 50.5t51 20.5
q29 0 50 -20.5t21 -50.5t-21 -50.5t-50 -20.5zM222 748q-30 0 -51 20.5t-21 50.5t21 50.5t51 20.5q29 0 50 -20.5t21 -50.5t-21 -50.5t-50 -20.5z" />
    <glyph glyph-name="Aring" unicode="&#xc5;" horiz-adv-x="644" 
d="M33 63q0 15 5 28l184 509q30 86 101 86q72 0 102 -86l181 -509q5 -13 5 -28q0 -30 -21 -49.5t-50 -19.5q-52 0 -69 52l-28 83h-243l-27 -83q-17 -52 -69 -52q-29 0 -50 19.5t-21 49.5zM242 254h160l-78 238h-3zM322 712q-47 0 -77.5 30.5t-30.5 76.5t30.5 76.5t77.5 30.5
t77.5 -30.5t30.5 -76.5t-30.5 -76.5t-77.5 -30.5zM322 771q20 0 33 13.5t13 34.5t-13 34.5t-33 13.5t-33 -13.5t-13 -34.5t13 -34.5t33 -13.5z" />
    <glyph glyph-name="AE" unicode="&#xc6;" horiz-adv-x="925" 
d="M819 0h-330q-29 0 -46.5 17.5t-17.5 46.5v59q0 6 -6 6h-202l-43 -88q-23 -47 -69 -47q-30 0 -51.5 19t-21.5 50q0 19 11 43l257 507q34 67 107 67h412q30 0 49 -18t19 -46t-19 -46t-49 -18h-240q-6 0 -6 -6v-134q0 -6 6 -6h192q30 0 48.5 -17.5t18.5 -45.5t-18.5 -45.5
t-48.5 -17.5h-192q-6 0 -6 -6v-140q0 -6 6 -6h240q30 0 49 -18t19 -46t-19 -46t-49 -18zM422 552l-145 -298h142q6 0 6 6v292h-3z" />
    <glyph glyph-name="Ccedilla" unicode="&#xc7;" horiz-adv-x="575" 
d="M313 -138q-12 -39 -51 -39q-23 0 -40 13.5t-17 36.5q0 12 5 25l37 97q-138 25 -181 161q-19 61 -19 184t19 184q27 82 90 124.5t153 42.5q74 0 129 -30t82 -78q13 -23 13 -44q0 -29 -19.5 -47.5t-47.5 -18.5q-38 0 -65 38q-19 27 -40 38.5t-52 11.5q-78 0 -102 -75
q-11 -34 -11 -146t11 -146q24 -75 102 -75q31 0 52 11.5t40 38.5q27 38 65 38q28 0 47.5 -18.5t19.5 -47.5q0 -21 -13 -44q-22 -40 -64 -67.5t-98 -36.5z" />
    <glyph glyph-name="Egrave" unicode="&#xc8;" horiz-adv-x="565" 
d="M65 65v550q0 30 17 47.5t47 17.5h330q30 0 49 -18t19 -46q0 -27 -19 -45t-49 -18h-241q-6 0 -6 -6v-135q0 -6 6 -6h193q30 0 48.5 -17.5t18.5 -45.5t-18.5 -45.5t-48.5 -17.5h-193q-6 0 -6 -6v-141q0 -6 6 -6h241q30 0 49 -18t19 -45q0 -28 -19 -46t-49 -18h-330
q-30 0 -47 17.5t-17 47.5zM236 761l-53 56q-17 17 -17 44q0 22 15.5 36t37.5 14q26 0 46 -21l49 -55q19 -21 19 -47q0 -21 -15 -35t-35 -14q-28 0 -47 22z" />
    <glyph glyph-name="Eacute" unicode="&#xc9;" horiz-adv-x="565" 
d="M65 65v550q0 30 17 47.5t47 17.5h330q30 0 49 -18t19 -46q0 -27 -19 -45t-49 -18h-241q-6 0 -6 -6v-135q0 -6 6 -6h193q30 0 48.5 -17.5t18.5 -45.5t-18.5 -45.5t-48.5 -17.5h-193q-6 0 -6 -6v-141q0 -6 6 -6h241q30 0 49 -18t19 -45q0 -28 -19 -46t-49 -18h-330
q-30 0 -47 17.5t-17 47.5zM333 761q-19 -22 -47 -22q-20 0 -35 14t-15 35q0 27 17 45l51 57q20 21 46 21q22 0 37.5 -14t15.5 -36q0 -27 -17 -44z" />
    <glyph glyph-name="Ecircumflex" unicode="&#xca;" horiz-adv-x="565" 
d="M65 65v550q0 30 17 47.5t47 17.5h330q30 0 49 -18t19 -46q0 -27 -19 -45t-49 -18h-241q-6 0 -6 -6v-135q0 -6 6 -6h193q30 0 48.5 -17.5t18.5 -45.5t-18.5 -45.5t-48.5 -17.5h-193q-6 0 -6 -6v-141q0 -6 6 -6h241q30 0 49 -18t19 -45q0 -28 -19 -46t-49 -18h-330
q-30 0 -47 17.5t-17 47.5zM393 735q-21 0 -39 18l-59 57h-2l-59 -57q-18 -18 -39 -18q-17 0 -29.5 11.5t-12.5 28.5t12 30l64 74q31 36 65 36t65 -36l64 -74q12 -13 12 -30t-12.5 -28.5t-29.5 -11.5z" />
    <glyph glyph-name="Edieresis" unicode="&#xcb;" horiz-adv-x="565" 
d="M65 65v550q0 30 17 47.5t47 17.5h330q30 0 49 -18t19 -46q0 -27 -19 -45t-49 -18h-241q-6 0 -6 -6v-135q0 -6 6 -6h193q30 0 48.5 -17.5t18.5 -45.5t-18.5 -45.5t-48.5 -17.5h-193q-6 0 -6 -6v-141q0 -6 6 -6h241q30 0 49 -18t19 -45q0 -28 -19 -46t-49 -18h-330
q-30 0 -47 17.5t-17 47.5zM396 748q-30 0 -51 20.5t-21 50.5t21 50.5t51 20.5q29 0 50 -20.5t21 -50.5t-21 -50.5t-50 -20.5zM195 748q-30 0 -51 20.5t-21 50.5t21 50.5t51 20.5q29 0 50 -20.5t21 -50.5t-21 -50.5t-50 -20.5z" />
    <glyph glyph-name="Igrave" unicode="&#xcc;" horiz-adv-x="277" 
d="M65 72v536q0 35 20.5 56.5t53.5 21.5q32 0 52.5 -21.5t20.5 -56.5v-536q0 -35 -20.5 -56.5t-52.5 -21.5q-33 0 -53.5 21.5t-20.5 56.5zM83 761l-53 56q-17 17 -17 44q0 22 15.5 36t37.5 14q26 0 46 -21l49 -55q19 -21 19 -47q0 -21 -15 -35t-35 -14q-28 0 -47 22z" />
    <glyph glyph-name="Iacute" unicode="&#xcd;" horiz-adv-x="277" 
d="M65 72v536q0 35 20.5 56.5t53.5 21.5q32 0 52.5 -21.5t20.5 -56.5v-536q0 -35 -20.5 -56.5t-52.5 -21.5q-33 0 -53.5 21.5t-20.5 56.5zM190 761q-19 -22 -47 -22q-20 0 -35 14t-15 35q0 27 17 45l51 57q20 21 46 21q22 0 37.5 -14t15.5 -36q0 -27 -17 -44z" />
    <glyph glyph-name="Icircumflex" unicode="&#xce;" horiz-adv-x="277" 
d="M65 72v536q0 35 20.5 56.5t53.5 21.5q32 0 52.5 -21.5t20.5 -56.5v-536q0 -35 -20.5 -56.5t-52.5 -21.5q-33 0 -53.5 21.5t-20.5 56.5zM238 735q-21 0 -39 18l-59 57h-2l-59 -57q-18 -18 -39 -18q-17 0 -29.5 11.5t-12.5 28.5t12 30l64 74q31 36 65 36t65 -36l64 -74
q12 -13 12 -30t-12.5 -28.5t-29.5 -11.5z" />
    <glyph glyph-name="Idieresis" unicode="&#xcf;" horiz-adv-x="277" 
d="M65 72v536q0 35 20.5 56.5t53.5 21.5q32 0 52.5 -21.5t20.5 -56.5v-536q0 -35 -20.5 -56.5t-52.5 -21.5q-33 0 -53.5 21.5t-20.5 56.5zM239 748q-30 0 -51 20.5t-21 50.5t21 50.5t51 20.5q29 0 50 -20.5t21 -50.5t-21 -50.5t-50 -20.5zM38 748q-30 0 -51 20.5t-21 50.5
t21 50.5t51 20.5q29 0 50 -20.5t21 -50.5t-21 -50.5t-50 -20.5z" />
    <glyph glyph-name="Eth" unicode="&#xd0;" horiz-adv-x="628" 
d="M290 0h-161q-30 0 -47 17.5t-17 46.5v219q0 6 -6 6h-5q-24 0 -39 15t-15 39t15 39t39 15h5q6 0 6 6v212q0 30 17 47.5t47 17.5h161q111 0 177.5 -37.5t93.5 -119.5q20 -60 20 -183t-20 -183q-27 -82 -93.5 -119.5t-177.5 -37.5zM286 131q110 0 134 77q12 39 12 132
t-12 132q-24 77 -134 77h-67q-6 0 -6 -6v-140q0 -6 6 -6h45q25 0 41 -15t16 -39t-16 -39t-41 -15h-45q-6 0 -6 -6v-146q0 -6 6 -6h67z" />
    <glyph glyph-name="Ntilde" unicode="&#xd1;" horiz-adv-x="655" 
d="M65 65v533q0 40 22 64t60 24q56 0 97 -72l208 -371h4v372q0 33 18.5 52t48.5 19t48.5 -19t18.5 -52v-533q0 -40 -22 -64t-60 -24q-56 0 -97 72l-208 370h-4v-371q0 -33 -18.5 -52t-48.5 -19t-48.5 19t-18.5 52zM392 748q-34 0 -70 22q-28 17 -43 17q-16 0 -33 -16
q-18 -16 -36 -16q-19 0 -31 12t-12 30q0 20 14 39q41 50 91 50q34 0 70 -22q28 -17 43 -17q16 0 33 16q18 16 36 16q19 0 31 -12t12 -30q0 -20 -14 -39q-41 -50 -91 -50z" />
    <glyph glyph-name="Ograve" unicode="&#xd2;" horiz-adv-x="628" 
d="M314 -11q-91 0 -156.5 42t-91.5 123q-19 61 -19 186t19 186q26 81 91.5 123t156.5 42t156.5 -42t91.5 -123q19 -61 19 -186t-19 -186q-26 -81 -91.5 -123t-156.5 -42zM314 119q83 0 107 74q11 34 11 147t-11 147q-24 74 -107 74t-107 -74q-11 -34 -11 -147t11 -147
q24 -74 107 -74zM261 761l-53 56q-17 17 -17 44q0 22 15.5 36t37.5 14q26 0 46 -21l49 -55q19 -21 19 -47q0 -21 -15 -35t-35 -14q-28 0 -47 22z" />
    <glyph glyph-name="Oacute" unicode="&#xd3;" horiz-adv-x="628" 
d="M314 -11q-91 0 -156.5 42t-91.5 123q-19 61 -19 186t19 186q26 81 91.5 123t156.5 42t156.5 -42t91.5 -123q19 -61 19 -186t-19 -186q-26 -81 -91.5 -123t-156.5 -42zM314 119q83 0 107 74q11 34 11 147t-11 147q-24 74 -107 74t-107 -74q-11 -34 -11 -147t11 -147
q24 -74 107 -74zM364 761q-19 -22 -47 -22q-20 0 -35 14t-15 35q0 27 17 45l51 57q20 21 46 21q22 0 37.5 -14t15.5 -36q0 -27 -17 -44z" />
    <glyph glyph-name="Ocircumflex" unicode="&#xd4;" horiz-adv-x="628" 
d="M314 -11q-91 0 -156.5 42t-91.5 123q-19 61 -19 186t19 186q26 81 91.5 123t156.5 42t156.5 -42t91.5 -123q19 -61 19 -186t-19 -186q-26 -81 -91.5 -123t-156.5 -42zM314 119q83 0 107 74q11 34 11 147t-11 147q-24 74 -107 74t-107 -74q-11 -34 -11 -147t11 -147
q24 -74 107 -74zM413 735q-21 0 -39 18l-59 57h-2l-59 -57q-18 -18 -39 -18q-17 0 -29.5 11.5t-12.5 28.5t12 30l64 74q31 36 65 36t65 -36l64 -74q12 -13 12 -30t-12.5 -28.5t-29.5 -11.5z" />
    <glyph glyph-name="Otilde" unicode="&#xd5;" horiz-adv-x="628" 
d="M314 -11q-91 0 -156.5 42t-91.5 123q-19 61 -19 186t19 186q26 81 91.5 123t156.5 42t156.5 -42t91.5 -123q19 -61 19 -186t-19 -186q-26 -81 -91.5 -123t-156.5 -42zM314 119q83 0 107 74q11 34 11 147t-11 147q-24 74 -107 74t-107 -74q-11 -34 -11 -147t11 -147
q24 -74 107 -74zM374 748q-34 0 -70 22q-28 17 -43 17q-16 0 -33 -16q-18 -16 -36 -16q-19 0 -31 12t-12 30q0 20 14 39q41 50 91 50q34 0 70 -22q28 -17 43 -17q16 0 33 16q18 16 36 16q19 0 31 -12t12 -30q0 -20 -14 -39q-41 -50 -91 -50z" />
    <glyph glyph-name="Odieresis" unicode="&#xd6;" horiz-adv-x="628" 
d="M314 -11q-91 0 -156.5 42t-91.5 123q-19 61 -19 186t19 186q26 81 91.5 123t156.5 42t156.5 -42t91.5 -123q19 -61 19 -186t-19 -186q-26 -81 -91.5 -123t-156.5 -42zM314 119q83 0 107 74q11 34 11 147t-11 147q-24 74 -107 74t-107 -74q-11 -34 -11 -147t11 -147
q24 -74 107 -74zM415 748q-30 0 -51 20.5t-21 50.5t21 50.5t51 20.5q29 0 50 -20.5t21 -50.5t-21 -50.5t-50 -20.5zM214 748q-30 0 -51 20.5t-21 50.5t21 50.5t51 20.5q29 0 50 -20.5t21 -50.5t-21 -50.5t-50 -20.5z" />
    <glyph glyph-name="multiply" unicode="&#xd7;" 
d="M448 187q22 -22 22 -46t-15.5 -40.5t-40.5 -16.5t-47 22l-85 85q-4 5 -8 0l-84 -84q-22 -22 -47 -22t-40.5 16.5t-15.5 40.5q0 22 22 46l84 84q5 4 0 8l-85 85q-22 22 -22 46t15.5 40.5t40.5 16.5t47 -22l85 -85q4 -5 8 0l84 84q22 22 47 22t40.5 -16.5t15.5 -40.5
q0 -22 -22 -46l-84 -84q-5 -4 0 -8z" />
    <glyph glyph-name="Oslash" unicode="&#xd8;" horiz-adv-x="628" 
d="M142 -13q-14 -23 -37 -23q-16 0 -27.5 11t-11.5 28q0 13 8 26l31 50q-27 35 -39 75q-19 61 -19 186t19 186q26 81 91.5 123t156.5 42q86 0 148 -37l24 39q14 23 37 23q16 0 27.5 -11t11.5 -28q0 -13 -8 -26l-31 -51q24 -31 39 -74q19 -61 19 -186t-19 -186
q-26 -81 -91.5 -123t-156.5 -42q-86 0 -148 36zM194 340q0 -84 4 -116l190 315q-29 23 -74 23q-85 0 -109 -74q-11 -34 -11 -148zM314 118q85 0 109 74q11 34 11 148q0 82 -4 114l-189 -314q28 -22 73 -22z" />
    <glyph glyph-name="Ugrave" unicode="&#xd9;" horiz-adv-x="645" 
d="M323 -11q-121 0 -191 68t-70 194v357q0 35 20.5 56.5t53.5 21.5q32 0 52.5 -21.5t20.5 -56.5v-362q0 -60 32 -93.5t82 -33.5q52 0 82.5 33.5t30.5 93.5v362q0 35 20.5 56.5t52.5 21.5q33 0 53.5 -21.5t20.5 -56.5v-357q0 -125 -71 -193.5t-189 -68.5zM274 761l-53 56
q-17 17 -17 44q0 22 15.5 36t37.5 14q26 0 46 -21l49 -55q19 -21 19 -47q0 -21 -15 -35t-35 -14q-28 0 -47 22z" />
    <glyph glyph-name="Uacute" unicode="&#xda;" horiz-adv-x="645" 
d="M323 -11q-121 0 -191 68t-70 194v357q0 35 20.5 56.5t53.5 21.5q32 0 52.5 -21.5t20.5 -56.5v-362q0 -60 32 -93.5t82 -33.5q52 0 82.5 33.5t30.5 93.5v362q0 35 20.5 56.5t52.5 21.5q33 0 53.5 -21.5t20.5 -56.5v-357q0 -125 -71 -193.5t-189 -68.5zM369 761
q-19 -22 -47 -22q-20 0 -35 14t-15 35q0 27 17 45l51 57q20 21 46 21q22 0 37.5 -14t15.5 -36q0 -27 -17 -44z" />
    <glyph glyph-name="Ucircumflex" unicode="&#xdb;" horiz-adv-x="645" 
d="M323 -11q-121 0 -191 68t-70 194v357q0 35 20.5 56.5t53.5 21.5q32 0 52.5 -21.5t20.5 -56.5v-362q0 -60 32 -93.5t82 -33.5q52 0 82.5 33.5t30.5 93.5v362q0 35 20.5 56.5t52.5 21.5q33 0 53.5 -21.5t20.5 -56.5v-357q0 -125 -71 -193.5t-189 -68.5zM421 735
q-21 0 -39 18l-59 57h-2l-59 -57q-18 -18 -39 -18q-17 0 -29.5 11.5t-12.5 28.5t12 30l64 74q31 36 65 36t65 -36l64 -74q12 -13 12 -30t-12.5 -28.5t-29.5 -11.5z" />
    <glyph glyph-name="Udieresis" unicode="&#xdc;" horiz-adv-x="645" 
d="M323 -11q-121 0 -191 68t-70 194v357q0 35 20.5 56.5t53.5 21.5q32 0 52.5 -21.5t20.5 -56.5v-362q0 -60 32 -93.5t82 -33.5q52 0 82.5 33.5t30.5 93.5v362q0 35 20.5 56.5t52.5 21.5q33 0 53.5 -21.5t20.5 -56.5v-357q0 -125 -71 -193.5t-189 -68.5zM423 748
q-30 0 -51 20.5t-21 50.5t21 50.5t51 20.5q29 0 50 -20.5t21 -50.5t-21 -50.5t-50 -20.5zM222 748q-30 0 -51 20.5t-21 50.5t21 50.5t51 20.5q29 0 50 -20.5t21 -50.5t-21 -50.5t-50 -20.5z" />
    <glyph glyph-name="Yacute" unicode="&#xdd;" horiz-adv-x="567" 
d="M283 -6q-31 0 -52 21.5t-21 56.5v198l-174 310q-11 20 -11 40q0 28 20 47t49 19q41 0 65 -44l124 -233h3l125 233q23 44 65 44q29 0 48 -18.5t19 -47.5q0 -20 -11 -40l-175 -310v-198q0 -36 -20.5 -57t-53.5 -21zM331 761q-19 -22 -47 -22q-20 0 -35 14t-15 35
q0 27 17 45l51 57q20 21 46 21q22 0 37.5 -14t15.5 -36q0 -27 -17 -44z" />
    <glyph glyph-name="Thorn" unicode="&#xde;" horiz-adv-x="605" 
d="M139 -6q-33 0 -53.5 21.5t-20.5 56.5v536q0 35 20.5 56.5t53.5 21.5q32 0 52.5 -21.5t20.5 -56.5v-30q0 -6 6 -6h121q110 0 173.5 -60t63.5 -159q0 -98 -63.5 -158t-173.5 -60h-121q-6 0 -6 -6v-57q0 -35 -20.5 -56.5t-52.5 -21.5zM330 262q46 0 72.5 24.5t26.5 66.5
t-26.5 67t-72.5 25h-112q-6 0 -6 -6v-171q0 -6 6 -6h112z" />
    <glyph glyph-name="germandbls" unicode="&#xdf;" horiz-adv-x="562" 
d="M324 -4q-28 0 -44 16t-16 41q0 51 59 59q43 6 52 40q6 20 6 75q0 58 -9 85q-11 37 -55 37q-29 0 -45.5 16t-16.5 41q0 27 16.5 42.5t45.5 15.5q55 0 55 55q0 56 -80 56q-47 0 -68 -20.5t-21 -66.5v-420q0 -34 -19.5 -54t-50.5 -20t-50.5 20t-19.5 54v417q0 206 227 206
q106 0 164 -43.5t58 -123.5q0 -73 -57 -113v-2q37 -19 53 -68q13 -41 13 -116q0 -83 -14 -125q-17 -54 -61 -79t-122 -25z" />
    <glyph glyph-name="agrave" unicode="&#xe0;" horiz-adv-x="528" 
d="M491 100q12 -19 12 -41q0 -28 -20.5 -46.5t-49.5 -18.5q-37 0 -57 27l-12 17h-1q-40 -49 -137 -49q-91 0 -137.5 39t-46.5 109q0 78 53.5 117t146.5 39h87q6 0 6 6v5q0 72 -99 72q-42 0 -78 -14q-21 -7 -33 -7q-25 0 -40.5 15.5t-15.5 40.5q0 38 36 56q56 28 148 28
q107 0 161.5 -51t54.5 -144v-132q0 -31 9 -46zM245 94q90 0 90 67v33q0 6 -6 6h-68q-86 0 -86 -55q0 -51 70 -51zM274 540q-28 0 -47 25l-44 59q-13 18 -13 40t16 36.5t37 14.5q29 0 47 -24l43 -61q13 -20 13 -41q0 -22 -15 -35.5t-37 -13.5z" />
    <glyph glyph-name="aacute" unicode="&#xe1;" horiz-adv-x="528" 
d="M491 100q12 -19 12 -41q0 -28 -20.5 -46.5t-49.5 -18.5q-37 0 -57 27l-12 17h-1q-40 -49 -137 -49q-91 0 -137.5 39t-46.5 109q0 78 53.5 117t146.5 39h87q6 0 6 6v5q0 72 -99 72q-42 0 -78 -14q-21 -7 -33 -7q-25 0 -40.5 15.5t-15.5 40.5q0 38 36 56q56 28 148 28
q107 0 161.5 -51t54.5 -144v-132q0 -31 9 -46zM245 94q90 0 90 67v33q0 6 -6 6h-68q-86 0 -86 -55q0 -51 70 -51zM313 565q-19 -25 -47 -25q-22 0 -37 13.5t-15 35.5q0 21 13 41l43 61q18 24 47 24q21 0 37 -14.5t16 -36.5t-13 -40z" />
    <glyph glyph-name="acircumflex" unicode="&#xe2;" horiz-adv-x="528" 
d="M491 100q12 -19 12 -41q0 -28 -20.5 -46.5t-49.5 -18.5q-37 0 -57 27l-12 17h-1q-40 -49 -137 -49q-91 0 -137.5 39t-46.5 109q0 78 53.5 117t146.5 39h87q6 0 6 6v5q0 72 -99 72q-42 0 -78 -14q-21 -7 -33 -7q-25 0 -40.5 15.5t-15.5 40.5q0 38 36 56q56 28 148 28
q107 0 161.5 -51t54.5 -144v-132q0 -31 9 -46zM245 94q90 0 90 67v33q0 6 -6 6h-68q-86 0 -86 -55q0 -51 70 -51zM363 538q-21 0 -39 18l-59 57h-2l-59 -57q-18 -18 -39 -18q-17 0 -29.5 11.5t-12.5 28.5q0 16 12 30l64 74q31 36 65 36t65 -36l64 -74q12 -14 12 -30
q0 -17 -12.5 -28.5t-29.5 -11.5z" />
    <glyph glyph-name="atilde" unicode="&#xe3;" horiz-adv-x="528" 
d="M491 100q12 -19 12 -41q0 -28 -20.5 -46.5t-49.5 -18.5q-37 0 -57 27l-12 17h-1q-40 -49 -137 -49q-91 0 -137.5 39t-46.5 109q0 78 53.5 117t146.5 39h87q6 0 6 6v5q0 72 -99 72q-42 0 -78 -14q-21 -7 -33 -7q-25 0 -40.5 15.5t-15.5 40.5q0 38 36 56q56 28 148 28
q107 0 161.5 -51t54.5 -144v-132q0 -31 9 -46zM245 94q90 0 90 67v33q0 6 -6 6h-68q-86 0 -86 -55q0 -51 70 -51zM323 553q-34 0 -70 22q-28 17 -43 17q-16 0 -33 -16q-18 -16 -36 -16q-19 0 -31 12t-12 30q0 20 14 39q41 50 91 50q34 0 70 -22q28 -17 43 -17q16 0 33 16
q18 16 36 16q19 0 31 -12t12 -30q0 -20 -14 -39q-41 -50 -91 -50z" />
    <glyph glyph-name="adieresis" unicode="&#xe4;" horiz-adv-x="528" 
d="M491 100q12 -19 12 -41q0 -28 -20.5 -46.5t-49.5 -18.5q-37 0 -57 27l-12 17h-1q-40 -49 -137 -49q-91 0 -137.5 39t-46.5 109q0 78 53.5 117t146.5 39h87q6 0 6 6v5q0 72 -99 72q-42 0 -78 -14q-21 -7 -33 -7q-25 0 -40.5 15.5t-15.5 40.5q0 38 36 56q56 28 148 28
q107 0 161.5 -51t54.5 -144v-132q0 -31 9 -46zM245 94q90 0 90 67v33q0 6 -6 6h-68q-86 0 -86 -55q0 -51 70 -51zM365 543q-30 0 -51 21t-21 51q0 29 21 50t51 21q29 0 50 -21t21 -50q0 -30 -21 -51t-50 -21zM164 543q-30 0 -51 21t-21 51q0 29 21 50t51 21q29 0 50 -21
t21 -50q0 -30 -21 -51t-50 -21z" />
    <glyph glyph-name="aring" unicode="&#xe5;" horiz-adv-x="528" 
d="M491 100q12 -19 12 -41q0 -28 -20.5 -46.5t-49.5 -18.5q-37 0 -57 27l-12 17h-1q-40 -49 -137 -49q-91 0 -137.5 39t-46.5 109q0 78 53.5 117t146.5 39h87q6 0 6 6v5q0 72 -99 72q-42 0 -78 -14q-21 -7 -33 -7q-25 0 -40.5 15.5t-15.5 40.5q0 38 36 56q56 28 148 28
q107 0 161.5 -51t54.5 -144v-132q0 -31 9 -46zM245 94q90 0 90 67v33q0 6 -6 6h-68q-86 0 -86 -55q0 -51 70 -51zM266 524q-47 0 -77.5 30.5t-30.5 76.5t30.5 76.5t77.5 30.5t77.5 -30.5t30.5 -76.5t-30.5 -76.5t-77.5 -30.5zM266 583q20 0 33 13.5t13 34.5t-13 34.5
t-33 13.5t-33 -13.5t-13 -34.5t13 -34.5t33 -13.5z" />
    <glyph glyph-name="ae" unicode="&#xe6;" horiz-adv-x="816" 
d="M560 -11q-108 0 -167 59h-1q-34 -33 -72 -46t-94 -13q-91 0 -137.5 39t-46.5 109q0 78 53.5 117t146.5 39h87q6 0 6 6v5q0 72 -99 72q-42 0 -78 -14q-21 -7 -33 -7q-25 0 -40.5 15.5t-15.5 40.5q0 38 36 56q56 28 148 28q101 0 154 -45h1q55 45 144 45q80 0 134 -35.5
t75 -100.5q16 -49 16 -113q0 -21 -12.5 -33.5t-33.5 -12.5h-257q-6 0 -6 -6q0 -13 5 -28q20 -63 100 -63q45 0 91 25q26 15 48 15t36.5 -15t14.5 -37q0 -31 -28 -50q-75 -52 -175 -52zM474 293h159q6 0 6 6q0 19 -5 36q-17 53 -81 53q-63 0 -80 -53q-5 -17 -5 -36q0 -6 6 -6
zM245 94q90 0 90 67v33q0 6 -6 6h-68q-86 0 -86 -55q0 -51 70 -51z" />
    <glyph glyph-name="ccedilla" unicode="&#xe7;" horiz-adv-x="477" 
d="M261 -138q-12 -39 -51 -39q-23 0 -40 13.5t-17 36.5q0 12 5 25l37 99q-107 25 -140 130q-16 46 -16 115t16 115q22 67 75.5 102.5t130.5 35.5q99 0 152 -53q28 -28 28 -56q0 -26 -17.5 -43t-43.5 -17q-25 0 -57 29q-23 22 -60 22q-57 0 -73 -53q-9 -28 -9 -82t9 -82
q16 -53 73 -53q37 0 60 22q32 29 57 29q26 0 43.5 -17t17.5 -43q0 -28 -28 -56q-39 -39 -107 -49z" />
    <glyph glyph-name="egrave" unicode="&#xe8;" horiz-adv-x="527" 
d="M271 -11q-83 0 -139 36t-77 102q-16 48 -16 115q0 71 15 116q22 66 76.5 101.5t132.5 35.5q80 0 134 -35.5t75 -100.5q16 -49 16 -113q0 -21 -12.5 -33.5t-33.5 -12.5h-257q-6 0 -6 -6q0 -13 5 -28q20 -63 100 -63q45 0 91 25q25 15 48 15q22 0 36.5 -15t14.5 -37
q0 -31 -28 -50q-75 -52 -175 -52zM185 293h159q6 0 6 6q0 19 -5 36q-17 53 -81 53q-63 0 -80 -53q-5 -17 -5 -36q0 -6 6 -6zM264 540q-28 0 -47 25l-44 59q-13 18 -13 40t16 36.5t37 14.5q29 0 47 -24l43 -61q13 -20 13 -41q0 -22 -15 -35.5t-37 -13.5z" />
    <glyph glyph-name="eacute" unicode="&#xe9;" horiz-adv-x="527" 
d="M271 -11q-83 0 -139 36t-77 102q-16 48 -16 115q0 71 15 116q22 66 76.5 101.5t132.5 35.5q80 0 134 -35.5t75 -100.5q16 -49 16 -113q0 -21 -12.5 -33.5t-33.5 -12.5h-257q-6 0 -6 -6q0 -13 5 -28q20 -63 100 -63q45 0 91 25q25 15 48 15q22 0 36.5 -15t14.5 -37
q0 -31 -28 -50q-75 -52 -175 -52zM185 293h159q6 0 6 6q0 19 -5 36q-17 53 -81 53q-63 0 -80 -53q-5 -17 -5 -36q0 -6 6 -6zM305 565q-19 -25 -47 -25q-22 0 -37 13.5t-15 35.5q0 21 13 41l43 61q18 24 47 24q21 0 37 -14.5t16 -36.5t-13 -40z" />
    <glyph glyph-name="ecircumflex" unicode="&#xea;" horiz-adv-x="527" 
d="M271 -11q-83 0 -139 36t-77 102q-16 48 -16 115q0 71 15 116q22 66 76.5 101.5t132.5 35.5q80 0 134 -35.5t75 -100.5q16 -49 16 -113q0 -21 -12.5 -33.5t-33.5 -12.5h-257q-6 0 -6 -6q0 -13 5 -28q20 -63 100 -63q45 0 91 25q25 15 48 15q22 0 36.5 -15t14.5 -37
q0 -31 -28 -50q-75 -52 -175 -52zM185 293h159q6 0 6 6q0 19 -5 36q-17 53 -81 53q-63 0 -80 -53q-5 -17 -5 -36q0 -6 6 -6zM363 538q-21 0 -39 18l-59 57h-2l-59 -57q-18 -18 -39 -18q-17 0 -29.5 11.5t-12.5 28.5q0 16 12 30l64 74q31 36 65 36t65 -36l64 -74
q12 -14 12 -30q0 -17 -12.5 -28.5t-29.5 -11.5z" />
    <glyph glyph-name="edieresis" unicode="&#xeb;" horiz-adv-x="527" 
d="M271 -11q-83 0 -139 36t-77 102q-16 48 -16 115q0 71 15 116q22 66 76.5 101.5t132.5 35.5q80 0 134 -35.5t75 -100.5q16 -49 16 -113q0 -21 -12.5 -33.5t-33.5 -12.5h-257q-6 0 -6 -6q0 -13 5 -28q20 -63 100 -63q45 0 91 25q25 15 48 15q22 0 36.5 -15t14.5 -37
q0 -31 -28 -50q-75 -52 -175 -52zM185 293h159q6 0 6 6q0 19 -5 36q-17 53 -81 53q-63 0 -80 -53q-5 -17 -5 -36q0 -6 6 -6zM365 543q-30 0 -51 21t-21 51q0 29 21 50t51 21q29 0 50 -21t21 -50q0 -30 -21 -51t-50 -21zM164 543q-30 0 -51 21t-21 51q0 29 21 50t51 21
q29 0 50 -21t21 -50q0 -30 -21 -51t-50 -21z" />
    <glyph glyph-name="igrave" unicode="&#xec;" horiz-adv-x="266" 
d="M133 -6q-31 0 -50.5 20t-19.5 54v348q0 34 19.5 54t50.5 20t50.5 -20t19.5 -54v-348q0 -34 -19.5 -54t-50.5 -20zM124 540q-28 0 -47 25l-44 59q-13 18 -13 40t16 36.5t37 14.5q29 0 47 -24l43 -61q13 -20 13 -41q0 -22 -15 -35.5t-37 -13.5z" />
    <glyph glyph-name="iacute" unicode="&#xed;" horiz-adv-x="266" 
d="M133 -6q-31 0 -50.5 20t-19.5 54v348q0 34 19.5 54t50.5 20t50.5 -20t19.5 -54v-348q0 -34 -19.5 -54t-50.5 -20zM189 565q-19 -25 -47 -25q-22 0 -37 13.5t-15 35.5q0 21 13 41l43 61q18 24 47 24q21 0 37 -14.5t16 -36.5t-13 -40z" />
    <glyph glyph-name="icircumflex" unicode="&#xee;" horiz-adv-x="266" 
d="M133 -6q-31 0 -50.5 20t-19.5 54v348q0 34 19.5 54t50.5 20t50.5 -20t19.5 -54v-348q0 -34 -19.5 -54t-50.5 -20zM232 538q-21 0 -39 18l-59 57h-2l-59 -57q-18 -18 -39 -18q-17 0 -29.5 11.5t-12.5 28.5q0 16 12 30l64 74q31 36 65 36t65 -36l64 -74q12 -14 12 -30
q0 -17 -12.5 -28.5t-29.5 -11.5z" />
    <glyph glyph-name="idieresis" unicode="&#xef;" horiz-adv-x="266" 
d="M133 -6q-31 0 -50.5 20t-19.5 54v348q0 34 19.5 54t50.5 20t50.5 -20t19.5 -54v-348q0 -34 -19.5 -54t-50.5 -20zM234 543q-30 0 -51 21t-21 51q0 29 21 50t51 21q29 0 50 -21t21 -50q0 -30 -21 -51t-50 -21zM33 543q-30 0 -51 21t-21 51q0 29 21 50t51 21q29 0 50 -21
t21 -50q0 -30 -21 -51t-50 -21z" />
    <glyph glyph-name="eth" unicode="&#xf0;" horiz-adv-x="530" 
d="M396 559l-39 -12l18 -23q116 -154 116 -284q0 -70 -14 -113q-21 -65 -77.5 -101.5t-134.5 -36.5q-80 0 -135 36t-76 99q-14 43 -14 98t14 100q20 60 64.5 94t105.5 34q41 0 65 -16h2l-59 77l-68 -20q-9 -3 -18 -3q-19 0 -31 12.5t-12 31.5q0 34 37 44l35 10
q-14 21 -14 39q0 26 17 43.5t45 17.5q30 0 55 -33l22 -30l72 21q9 3 18 3q19 0 31 -13t12 -32q0 -33 -37 -43zM265 107q59 0 76 52q9 29 9 63q0 36 -9 64q-17 52 -76 52q-58 0 -75 -52q-9 -28 -9 -64q0 -34 9 -63q17 -52 75 -52z" />
    <glyph glyph-name="ntilde" unicode="&#xf1;" horiz-adv-x="553" 
d="M424 -6q-31 0 -50.5 20t-19.5 54v220q0 41 -19.5 64.5t-56.5 23.5t-56 -23.5t-19 -64.5v-220q0 -34 -19.5 -54t-50.5 -20t-50.5 20t-19.5 54v348q0 34 19.5 54t50.5 20q54 0 67 -51h1q43 56 128 56q78 0 121.5 -49.5t43.5 -130.5v-247q0 -34 -19.5 -54t-50.5 -20z
M336 553q-34 0 -70 22q-28 17 -43 17q-16 0 -33 -16q-18 -16 -36 -16q-19 0 -31 12t-12 30q0 20 14 39q41 50 91 50q34 0 70 -22q28 -17 43 -17q16 0 33 16q18 16 36 16q19 0 31 -12t12 -30q0 -20 -14 -39q-41 -50 -91 -50z" />
    <glyph glyph-name="ograve" unicode="&#xf2;" horiz-adv-x="530" 
d="M265 -11q-79 0 -133.5 36t-76.5 103q-16 51 -16 114t16 114q22 67 76.5 103t133.5 36t133.5 -36t76.5 -103q16 -51 16 -114t-16 -114q-22 -67 -76.5 -103t-133.5 -36zM265 107q58 0 75 54q9 27 9 81t-9 81q-17 54 -75 54t-75 -54q-9 -27 -9 -81t9 -81q17 -54 75 -54z
M259 540q-28 0 -47 25l-44 59q-13 18 -13 40t16 36.5t37 14.5q29 0 47 -24l43 -61q13 -20 13 -41q0 -22 -15 -35.5t-37 -13.5z" />
    <glyph glyph-name="oacute" unicode="&#xf3;" horiz-adv-x="530" 
d="M265 -11q-79 0 -133.5 36t-76.5 103q-16 51 -16 114t16 114q22 67 76.5 103t133.5 36t133.5 -36t76.5 -103q16 -51 16 -114t-16 -114q-22 -67 -76.5 -103t-133.5 -36zM265 107q58 0 75 54q9 27 9 81t-9 81q-17 54 -75 54t-75 -54q-9 -27 -9 -81t9 -81q17 -54 75 -54z
M318 565q-19 -25 -47 -25q-22 0 -37 13.5t-15 35.5q0 21 13 41l43 61q18 24 47 24q21 0 37 -14.5t16 -36.5t-13 -40z" />
    <glyph glyph-name="ocircumflex" unicode="&#xf4;" horiz-adv-x="530" 
d="M265 -11q-79 0 -133.5 36t-76.5 103q-16 51 -16 114t16 114q22 67 76.5 103t133.5 36t133.5 -36t76.5 -103q16 -51 16 -114t-16 -114q-22 -67 -76.5 -103t-133.5 -36zM265 107q58 0 75 54q9 27 9 81t-9 81q-17 54 -75 54t-75 -54q-9 -27 -9 -81t9 -81q17 -54 75 -54z
M364 538q-21 0 -39 18l-59 57h-2l-59 -57q-18 -18 -39 -18q-17 0 -29.5 11.5t-12.5 28.5q0 16 12 30l64 74q31 36 65 36t65 -36l64 -74q12 -14 12 -30q0 -17 -12.5 -28.5t-29.5 -11.5z" />
    <glyph glyph-name="otilde" unicode="&#xf5;" horiz-adv-x="530" 
d="M265 -11q-79 0 -133.5 36t-76.5 103q-16 51 -16 114t16 114q22 67 76.5 103t133.5 36t133.5 -36t76.5 -103q16 -51 16 -114t-16 -114q-22 -67 -76.5 -103t-133.5 -36zM265 107q58 0 75 54q9 27 9 81t-9 81q-17 54 -75 54t-75 -54q-9 -27 -9 -81t9 -81q17 -54 75 -54z
M325 553q-34 0 -70 22q-28 17 -43 17q-16 0 -33 -16q-18 -16 -36 -16q-19 0 -31 12t-12 30q0 20 14 39q41 50 91 50q34 0 70 -22q28 -17 43 -17q16 0 33 16q18 16 36 16q19 0 31 -12t12 -30q0 -20 -14 -39q-41 -50 -91 -50z" />
    <glyph glyph-name="odieresis" unicode="&#xf6;" horiz-adv-x="530" 
d="M265 -11q-79 0 -133.5 36t-76.5 103q-16 51 -16 114t16 114q22 67 76.5 103t133.5 36t133.5 -36t76.5 -103q16 -51 16 -114t-16 -114q-22 -67 -76.5 -103t-133.5 -36zM265 107q58 0 75 54q9 27 9 81t-9 81q-17 54 -75 54t-75 -54q-9 -27 -9 -81t9 -81q17 -54 75 -54z
M366 543q-30 0 -51 21t-21 51q0 29 21 50t51 21q29 0 50 -21t21 -50q0 -30 -21 -51t-50 -21zM165 543q-30 0 -51 21t-21 51q0 29 21 50t51 21q29 0 50 -21t21 -50q0 -30 -21 -51t-50 -21z" />
    <glyph glyph-name="divide" unicode="&#xf7;" 
d="M279 387q-32 0 -54 22t-22 54t22 54t54 22q31 0 53.5 -22.5t22.5 -53.5t-22.5 -53.5t-53.5 -22.5zM447 217h-338q-29 0 -46 16t-17 43q0 26 17 42.5t46 16.5h338q29 0 46 -16.5t17 -42.5q0 -27 -17 -43t-46 -16zM279 13q-32 0 -54 22t-22 54t22 54t54 22q31 0 53.5 -22.5
t22.5 -53.5t-22.5 -53.5t-53.5 -22.5z" />
    <glyph glyph-name="oslash" unicode="&#xf8;" horiz-adv-x="530" 
d="M84 -36q-12 0 -20.5 8t-8.5 20t9 24l30 41q-25 28 -39 71q-16 51 -16 114t16 114q22 67 76.5 103t133.5 36q72 0 122 -29l29 39q12 16 28 16q12 0 20.5 -8t8.5 -20t-9 -24l-30 -41q28 -31 41 -72q16 -51 16 -114t-16 -114q-22 -67 -76.5 -103t-133.5 -36q-74 0 -125 30
l-28 -39q-12 -16 -28 -16zM179 242q0 -41 4 -66l130 188q-20 14 -48 14q-60 0 -77 -54q-9 -27 -9 -82zM265 106q60 0 77 54q9 27 9 82q0 35 -5 65l-129 -188q19 -13 48 -13z" />
    <glyph glyph-name="ugrave" unicode="&#xf9;" horiz-adv-x="549" 
d="M416 -6q-54 0 -67 51h-1q-43 -56 -128 -56q-78 0 -120 49.5t-42 130.5v247q0 34 20 54t51 20t50 -20t19 -54v-220q0 -41 18.5 -64.5t55.5 -23.5q36 0 55 23.5t19 64.5v220q0 34 19.5 54t50.5 20t50.5 -20t19.5 -54v-348q0 -34 -19.5 -54t-50.5 -20zM271 540q-28 0 -47 25
l-44 59q-13 18 -13 40t16 36.5t37 14.5q29 0 47 -24l43 -61q13 -20 13 -41q0 -22 -15 -35.5t-37 -13.5z" />
    <glyph glyph-name="uacute" unicode="&#xfa;" horiz-adv-x="549" 
d="M416 -6q-54 0 -67 51h-1q-43 -56 -128 -56q-78 0 -120 49.5t-42 130.5v247q0 34 20 54t51 20t50 -20t19 -54v-220q0 -41 18.5 -64.5t55.5 -23.5q36 0 55 23.5t19 64.5v220q0 34 19.5 54t50.5 20t50.5 -20t19.5 -54v-348q0 -34 -19.5 -54t-50.5 -20zM323 565
q-19 -25 -47 -25q-22 0 -37 13.5t-15 35.5q0 21 13 41l43 61q18 24 47 24q21 0 37 -14.5t16 -36.5t-13 -40z" />
    <glyph glyph-name="ucircumflex" unicode="&#xfb;" horiz-adv-x="549" 
d="M416 -6q-54 0 -67 51h-1q-43 -56 -128 -56q-78 0 -120 49.5t-42 130.5v247q0 34 20 54t51 20t50 -20t19 -54v-220q0 -41 18.5 -64.5t55.5 -23.5q36 0 55 23.5t19 64.5v220q0 34 19.5 54t50.5 20t50.5 -20t19.5 -54v-348q0 -34 -19.5 -54t-50.5 -20zM373 538q-21 0 -39 18
l-59 57h-2l-59 -57q-18 -18 -39 -18q-17 0 -29.5 11.5t-12.5 28.5q0 16 12 30l64 74q31 36 65 36t65 -36l64 -74q12 -14 12 -30q0 -17 -12.5 -28.5t-29.5 -11.5z" />
    <glyph glyph-name="udieresis" unicode="&#xfc;" horiz-adv-x="549" 
d="M416 -6q-54 0 -67 51h-1q-43 -56 -128 -56q-78 0 -120 49.5t-42 130.5v247q0 34 20 54t51 20t50 -20t19 -54v-220q0 -41 18.5 -64.5t55.5 -23.5q36 0 55 23.5t19 64.5v220q0 34 19.5 54t50.5 20t50.5 -20t19.5 -54v-348q0 -34 -19.5 -54t-50.5 -20zM375 543q-30 0 -51 21
t-21 51q0 29 21 50t51 21q29 0 50 -21t21 -50q0 -30 -21 -51t-50 -21zM174 543q-30 0 -51 21t-21 51q0 29 21 50t51 21q29 0 50 -21t21 -50q0 -30 -21 -51t-50 -21z" />
    <glyph glyph-name="yacute" unicode="&#xfd;" horiz-adv-x="507" 
d="M126 -180h-6q-30 0 -47.5 16.5t-17.5 42.5q0 27 17.5 43t47.5 17q43 1 59 49l13 36l-155 367q-7 17 -7 33q0 28 20 47t49 19q46 0 65 -49l93 -247h2l86 247q17 49 64 49q29 0 48.5 -19t19.5 -47q0 -16 -7 -33l-173 -433q-31 -78 -68.5 -108t-102.5 -30zM308 565
q-19 -25 -47 -25q-22 0 -37 13.5t-15 35.5q0 21 13 41l43 61q18 24 47 24q21 0 37 -14.5t16 -36.5t-13 -40z" />
    <glyph glyph-name="thorn" unicode="&#xfe;" horiz-adv-x="551" 
d="M133 -186q-31 0 -50.5 20t-19.5 54v724q0 34 19.5 54t50.5 20t50.5 -20t19.5 -54v-169h1q35 52 123 52q59 0 104 -33t64 -90q17 -51 17 -130t-17 -130q-19 -57 -64 -90t-104 -33q-88 0 -123 52h-1v-153q0 -34 -19.5 -54t-50.5 -20zM286 107q57 0 75 56q9 27 9 79t-9 79
q-18 56 -75 56q-56 0 -74 -56q-9 -27 -9 -79t9 -79q18 -56 74 -56z" />
    <glyph glyph-name="ydieresis" unicode="&#xff;" horiz-adv-x="507" 
d="M126 -180h-6q-30 0 -47.5 16.5t-17.5 42.5q0 27 17.5 43t47.5 17q43 1 59 49l13 36l-155 367q-7 17 -7 33q0 28 20 47t49 19q46 0 65 -49l93 -247h2l86 247q17 49 64 49q29 0 48.5 -19t19.5 -47q0 -16 -7 -33l-173 -433q-31 -78 -68.5 -108t-102.5 -30zM355 543
q-30 0 -51 21t-21 51q0 29 21 50t51 21q29 0 50 -21t21 -50q0 -30 -21 -51t-50 -21zM154 543q-30 0 -51 21t-21 51q0 29 21 50t51 21q29 0 50 -21t21 -50q0 -30 -21 -51t-50 -21z" />
    <glyph glyph-name="Amacron" unicode="&#x100;" horiz-adv-x="644" 
d="M33 63q0 15 5 28l184 509q30 86 101 86q72 0 102 -86l181 -509q5 -13 5 -28q0 -30 -21 -49.5t-50 -19.5q-52 0 -69 52l-28 83h-243l-27 -83q-17 -52 -69 -52q-29 0 -50 19.5t-21 49.5zM242 254h160l-78 238h-3zM429 769h-213q-25 0 -39 13.5t-14 35.5t14 36t39 14h213
q24 0 38 -14t14 -36t-14 -35.5t-38 -13.5z" />
    <glyph glyph-name="amacron" unicode="&#x101;" horiz-adv-x="528" 
d="M491 100q12 -19 12 -41q0 -28 -20.5 -46.5t-49.5 -18.5q-37 0 -57 27l-12 17h-1q-40 -49 -137 -49q-91 0 -137.5 39t-46.5 109q0 78 53.5 117t146.5 39h87q6 0 6 6v5q0 72 -99 72q-42 0 -78 -14q-21 -7 -33 -7q-25 0 -40.5 15.5t-15.5 40.5q0 38 36 56q56 28 148 28
q107 0 161.5 -51t54.5 -144v-132q0 -31 9 -46zM245 94q90 0 90 67v33q0 6 -6 6h-68q-86 0 -86 -55q0 -51 70 -51zM371 575h-213q-25 0 -39 13.5t-14 35.5t14 36t39 14h213q24 0 38 -14t14 -36t-14 -35.5t-38 -13.5z" />
    <glyph glyph-name="Abreve" unicode="&#x102;" horiz-adv-x="644" 
d="M33 63q0 15 5 28l184 509q30 86 101 86q72 0 102 -86l181 -509q5 -13 5 -28q0 -30 -21 -49.5t-50 -19.5q-52 0 -69 52l-28 83h-243l-27 -83q-17 -52 -69 -52q-29 0 -50 19.5t-21 49.5zM242 254h160l-78 238h-3zM322 743q-63 0 -105.5 33.5t-42.5 81.5q0 18 10.5 29
t27.5 11q16 0 24 -7t17 -23q20 -35 69 -35t69 35q9 16 17 23t24 7q17 0 27.5 -11t10.5 -29q0 -48 -42.5 -81.5t-105.5 -33.5z" />
    <glyph glyph-name="abreve" unicode="&#x103;" horiz-adv-x="528" 
d="M491 100q12 -19 12 -41q0 -28 -20.5 -46.5t-49.5 -18.5q-37 0 -57 27l-12 17h-1q-40 -49 -137 -49q-91 0 -137.5 39t-46.5 109q0 78 53.5 117t146.5 39h87q6 0 6 6v5q0 72 -99 72q-42 0 -78 -14q-21 -7 -33 -7q-25 0 -40.5 15.5t-15.5 40.5q0 38 36 56q56 28 148 28
q107 0 161.5 -51t54.5 -144v-132q0 -31 9 -46zM245 94q90 0 90 67v33q0 6 -6 6h-68q-86 0 -86 -55q0 -51 70 -51zM263 545q-63 0 -105.5 33.5t-42.5 81.5q0 18 10.5 29t27.5 11q16 0 24 -7t17 -23q20 -35 69 -35t69 35q9 16 17 23t24 7q17 0 27.5 -11t10.5 -29
q0 -48 -42.5 -81.5t-105.5 -33.5z" />
    <glyph glyph-name="Aogonek" unicode="&#x104;" horiz-adv-x="644" 
d="M517 -191q-49 0 -77.5 25.5t-28.5 69.5q0 71 71 119q-6 9 -11 23l-28 83h-243l-27 -83q-17 -52 -69 -52q-29 0 -50 19.5t-21 49.5q0 15 5 28l184 509q30 86 101 86q72 0 102 -86l181 -509q5 -17 5 -29q0 -28 -19 -47q-45 -45 -58.5 -61.5t-13.5 -30.5q0 -18 16 -18
q6 0 14 3q12 4 21 4q16 0 27.5 -12.5t11.5 -30.5q0 -30 -26 -44q-27 -16 -67 -16zM321 492l-79 -238h160l-78 238h-3z" />
    <glyph glyph-name="aogonek" unicode="&#x105;" horiz-adv-x="528" 
d="M397 -191q-49 0 -77.5 25.5t-28.5 68.5q0 67 87 115l-14 20h-1q-40 -49 -137 -49q-91 0 -137.5 39t-46.5 109q0 78 53.5 117t146.5 39h87q6 0 6 6v5q0 72 -99 72q-42 0 -78 -14q-21 -7 -33 -7q-25 0 -40.5 15.5t-15.5 40.5q0 38 36 56q56 28 148 28q107 0 161.5 -51
t54.5 -144v-132q0 -31 9 -46l13 -22q12 -19 12 -41q0 -31 -24 -50q-79 -63 -79 -86q0 -18 16 -18q6 0 14 3q12 4 21 4q16 0 27.5 -12.5t11.5 -30.5q0 -30 -26 -44q-27 -16 -67 -16zM245 94q90 0 90 67v33q0 6 -6 6h-68q-86 0 -86 -55q0 -51 70 -51z" />
    <glyph glyph-name="Cacute" unicode="&#x106;" horiz-adv-x="575" 
d="M66 156q-19 61 -19 184t19 184q27 82 90 124.5t153 42.5q74 0 129 -30t82 -78q13 -23 13 -44q0 -29 -19.5 -47.5t-47.5 -18.5q-38 0 -65 38q-19 27 -40 38.5t-52 11.5q-78 0 -102 -75q-11 -34 -11 -146t11 -146q24 -75 102 -75q31 0 52 11.5t40 38.5q27 38 65 38
q28 0 47.5 -18.5t19.5 -47.5q0 -21 -13 -44q-27 -48 -82 -78t-129 -30q-90 0 -153 42.5t-90 124.5zM345 761q-19 -22 -47 -22q-20 0 -35 14t-15 35q0 27 17 45l51 57q20 21 46 21q22 0 37.5 -14t15.5 -36q0 -27 -17 -44z" />
    <glyph glyph-name="cacute" unicode="&#x107;" horiz-adv-x="477" 
d="M261 -11q-77 0 -130.5 35.5t-75.5 102.5q-16 46 -16 115t16 115q22 67 75.5 102.5t130.5 35.5q99 0 152 -53q28 -28 28 -56q0 -26 -17.5 -43t-43.5 -17q-25 0 -57 29q-23 22 -60 22q-57 0 -73 -53q-9 -28 -9 -82t9 -82q16 -53 73 -53q37 0 60 22q32 29 57 29
q26 0 43.5 -17t17.5 -43q0 -28 -28 -56q-53 -53 -152 -53zM305 565q-19 -25 -47 -25q-22 0 -37 13.5t-15 35.5q0 21 13 41l43 61q18 24 47 24q21 0 37 -14.5t16 -36.5t-13 -40z" />
    <glyph glyph-name="Ccircumflex" unicode="&#x108;" horiz-adv-x="575" 
d="M66 156q-19 61 -19 184t19 184q27 82 90 124.5t153 42.5q74 0 129 -30t82 -78q13 -23 13 -44q0 -29 -19.5 -47.5t-47.5 -18.5q-38 0 -65 38q-19 27 -40 38.5t-52 11.5q-78 0 -102 -75q-11 -34 -11 -146t11 -146q24 -75 102 -75q31 0 52 11.5t40 38.5q27 38 65 38
q28 0 47.5 -18.5t19.5 -47.5q0 -21 -13 -44q-27 -48 -82 -78t-129 -30q-90 0 -153 42.5t-90 124.5zM405 735q-21 0 -39 18l-59 57h-2l-59 -57q-18 -18 -39 -18q-17 0 -29.5 11.5t-12.5 28.5t12 30l64 74q31 36 65 36t65 -36l64 -74q12 -13 12 -30t-12.5 -28.5t-29.5 -11.5z
" />
    <glyph glyph-name="ccircumflex" unicode="&#x109;" horiz-adv-x="477" 
d="M261 -11q-77 0 -130.5 35.5t-75.5 102.5q-16 46 -16 115t16 115q22 67 75.5 102.5t130.5 35.5q99 0 152 -53q28 -28 28 -56q0 -26 -17.5 -43t-43.5 -17q-25 0 -57 29q-23 22 -60 22q-57 0 -73 -53q-9 -28 -9 -82t9 -82q16 -53 73 -53q37 0 60 22q32 29 57 29
q26 0 43.5 -17t17.5 -43q0 -28 -28 -56q-53 -53 -152 -53zM358 538q-21 0 -39 18l-59 57h-2l-59 -57q-18 -18 -39 -18q-17 0 -29.5 11.5t-12.5 28.5q0 16 12 30l64 74q31 36 65 36t65 -36l64 -74q12 -14 12 -30q0 -17 -12.5 -28.5t-29.5 -11.5z" />
    <glyph glyph-name="Cdotaccent" unicode="&#x10a;" horiz-adv-x="575" 
d="M66 156q-19 61 -19 184t19 184q27 82 90 124.5t153 42.5q74 0 129 -30t82 -78q13 -23 13 -44q0 -29 -19.5 -47.5t-47.5 -18.5q-38 0 -65 38q-19 27 -40 38.5t-52 11.5q-78 0 -102 -75q-11 -34 -11 -146t11 -146q24 -75 102 -75q31 0 52 11.5t40 38.5q27 38 65 38
q28 0 47.5 -18.5t19.5 -47.5q0 -21 -13 -44q-27 -48 -82 -78t-129 -30q-90 0 -153 42.5t-90 124.5zM306 737q-33 0 -56 23t-23 56t23 56t56 23t56 -23t23 -56t-23 -56t-56 -23z" />
    <glyph glyph-name="cdotaccent" unicode="&#x10b;" horiz-adv-x="477" 
d="M261 -11q-77 0 -130.5 35.5t-75.5 102.5q-16 46 -16 115t16 115q22 67 75.5 102.5t130.5 35.5q99 0 152 -53q28 -28 28 -56q0 -26 -17.5 -43t-43.5 -17q-25 0 -57 29q-23 22 -60 22q-57 0 -73 -53q-9 -28 -9 -82t9 -82q16 -53 73 -53q37 0 60 22q32 29 57 29
q26 0 43.5 -17t17.5 -43q0 -28 -28 -56q-53 -53 -152 -53zM259 533q-33 0 -56 23t-23 56t23 56t56 23t56 -23t23 -56t-23 -56t-56 -23z" />
    <glyph glyph-name="Ccaron" unicode="&#x10c;" horiz-adv-x="575" 
d="M66 156q-19 61 -19 184t19 184q27 82 90 124.5t153 42.5q74 0 129 -30t82 -78q13 -23 13 -44q0 -29 -19.5 -47.5t-47.5 -18.5q-38 0 -65 38q-19 27 -40 38.5t-52 11.5q-78 0 -102 -75q-11 -34 -11 -146t11 -146q24 -75 102 -75q31 0 52 11.5t40 38.5q27 38 65 38
q28 0 47.5 -18.5t19.5 -47.5q0 -21 -13 -44q-27 -48 -82 -78t-129 -30q-90 0 -153 42.5t-90 124.5zM305 727q-34 0 -65 36l-64 74q-12 13 -12 30t12.5 28.5t29.5 11.5q21 0 39 -18l59 -57h2l59 57q18 18 39 18q17 0 29.5 -11.5t12.5 -28.5t-12 -30l-64 -74q-31 -36 -65 -36z
" />
    <glyph glyph-name="ccaron" unicode="&#x10d;" horiz-adv-x="477" 
d="M261 -11q-77 0 -130.5 35.5t-75.5 102.5q-16 46 -16 115t16 115q22 67 75.5 102.5t130.5 35.5q99 0 152 -53q28 -28 28 -56q0 -26 -17.5 -43t-43.5 -17q-25 0 -57 29q-23 22 -60 22q-57 0 -73 -53q-9 -28 -9 -82t9 -82q16 -53 73 -53q37 0 60 22q32 29 57 29
q26 0 43.5 -17t17.5 -43q0 -28 -28 -56q-53 -53 -152 -53zM258 531q-34 0 -65 36l-64 74q-12 13 -12 30t12.5 28.5t29.5 11.5q21 0 39 -18l59 -57h2l59 57q18 18 39 18q17 0 29.5 -11.5t12.5 -28.5t-12 -30l-64 -74q-31 -36 -65 -36z" />
    <glyph glyph-name="Dcaron" unicode="&#x10e;" horiz-adv-x="628" 
d="M65 64v551q0 30 17 47.5t47 17.5h161q111 0 177.5 -37.5t93.5 -119.5q20 -60 20 -183t-20 -183q-27 -82 -93.5 -119.5t-177.5 -37.5h-161q-30 0 -47 17.5t-17 46.5zM212 137q0 -6 6 -6h68q110 0 134 77q12 39 12 132t-12 132q-24 77 -134 77h-68q-6 0 -6 -6v-406z
M295 727q-34 0 -65 36l-64 74q-12 13 -12 30t12.5 28.5t29.5 11.5q21 0 39 -18l59 -57h2l59 57q18 18 39 18q17 0 29.5 -11.5t12.5 -28.5t-12 -30l-64 -74q-31 -36 -65 -36z" />
    <glyph glyph-name="dcaron" unicode="&#x10f;" horiz-adv-x="551" 
d="M418 -6q-53 0 -67 51h-1q-40 -56 -126 -56q-59 0 -104 33t-64 90q-17 51 -17 130t17 130q19 57 64 90t104 33q88 0 123 -52h1v169q0 34 19.5 54t50.5 20t50.5 -20t19.5 -54v-544q0 -34 -19.5 -54t-50.5 -20zM265 107q56 0 74 56q9 27 9 79t-9 79q-18 56 -74 56
q-57 0 -75 -56q-9 -27 -9 -79t9 -79q18 -56 75 -56zM625 541q-16 -47 -55 -47q-26 0 -42.5 15t-16.5 41q0 15 4 27l20 62q16 47 55 47q26 0 42.5 -15.5t16.5 -41.5q0 -14 -4 -26z" />
    <glyph glyph-name="Dcroat" unicode="&#x110;" horiz-adv-x="628" 
d="M290 0h-161q-30 0 -47 17.5t-17 46.5v219q0 6 -6 6h-5q-24 0 -39 15t-15 39t15 39t39 15h5q6 0 6 6v212q0 30 17 47.5t47 17.5h161q111 0 177.5 -37.5t93.5 -119.5q20 -60 20 -183t-20 -183q-27 -82 -93.5 -119.5t-177.5 -37.5zM286 131q110 0 134 77q12 39 12 132
t-12 132q-24 77 -134 77h-67q-6 0 -6 -6v-140q0 -6 6 -6h45q25 0 41 -15t16 -39t-16 -39t-41 -15h-45q-6 0 -6 -6v-146q0 -6 6 -6h67z" />
    <glyph glyph-name="dcroat" unicode="&#x111;" horiz-adv-x="551" 
d="M418 -6q-53 0 -67 51h-1q-40 -56 -126 -56q-59 0 -104 33t-64 90q-17 51 -17 130t17 130q19 57 64 90t104 33q88 0 123 -52h1v83q0 6 -6 6h-66q-25 0 -39 12.5t-14 33.5t14.5 34t38.5 13h67q5 0 7 6q5 25 23 40t45 15q26 0 44.5 -15t23.5 -40q2 -6 7 -6h4q24 0 38.5 -13
t14.5 -34t-14 -33.5t-39 -12.5h-3q-6 0 -6 -6v-458q0 -34 -19.5 -54t-50.5 -20zM265 107q56 0 74 56q9 27 9 79t-9 79q-18 56 -74 56q-57 0 -75 -56q-9 -27 -9 -79t9 -79q18 -56 75 -56z" />
    <glyph glyph-name="Emacron" unicode="&#x112;" horiz-adv-x="565" 
d="M65 65v550q0 30 17 47.5t47 17.5h330q30 0 49 -18t19 -46q0 -27 -19 -45t-49 -18h-241q-6 0 -6 -6v-135q0 -6 6 -6h193q30 0 48.5 -17.5t18.5 -45.5t-18.5 -45.5t-48.5 -17.5h-193q-6 0 -6 -6v-141q0 -6 6 -6h241q30 0 49 -18t19 -45q0 -28 -19 -46t-49 -18h-330
q-30 0 -47 17.5t-17 47.5zM400 769h-213q-25 0 -39 13.5t-14 35.5t14 36t39 14h213q24 0 38 -14t14 -36t-14 -35.5t-38 -13.5z" />
    <glyph glyph-name="emacron" unicode="&#x113;" horiz-adv-x="527" 
d="M271 -11q-83 0 -139 36t-77 102q-16 48 -16 115q0 71 15 116q22 66 76.5 101.5t132.5 35.5q80 0 134 -35.5t75 -100.5q16 -49 16 -113q0 -21 -12.5 -33.5t-33.5 -12.5h-257q-6 0 -6 -6q0 -13 5 -28q20 -63 100 -63q45 0 91 25q25 15 48 15q22 0 36.5 -15t14.5 -37
q0 -31 -28 -50q-75 -52 -175 -52zM185 293h159q6 0 6 6q0 19 -5 36q-17 53 -81 53q-63 0 -80 -53q-5 -17 -5 -36q0 -6 6 -6zM371 575h-213q-25 0 -39 13.5t-14 35.5t14 36t39 14h213q24 0 38 -14t14 -36t-14 -35.5t-38 -13.5z" />
    <glyph glyph-name="Ebreve" unicode="&#x114;" horiz-adv-x="565" 
d="M65 65v550q0 30 17 47.5t47 17.5h330q30 0 49 -18t19 -46q0 -27 -19 -45t-49 -18h-241q-6 0 -6 -6v-135q0 -6 6 -6h193q30 0 48.5 -17.5t18.5 -45.5t-18.5 -45.5t-48.5 -17.5h-193q-6 0 -6 -6v-141q0 -6 6 -6h241q30 0 49 -18t19 -45q0 -28 -19 -46t-49 -18h-330
q-30 0 -47 17.5t-17 47.5zM295 743q-63 0 -105.5 33.5t-42.5 81.5q0 18 10.5 29t27.5 11q16 0 24 -7t17 -23q20 -35 69 -35t69 35q9 16 17 23t24 7q17 0 27.5 -11t10.5 -29q0 -48 -42.5 -81.5t-105.5 -33.5z" />
    <glyph glyph-name="ebreve" unicode="&#x115;" horiz-adv-x="527" 
d="M271 -11q-83 0 -139 36t-77 102q-16 48 -16 115q0 71 15 116q22 66 76.5 101.5t132.5 35.5q80 0 134 -35.5t75 -100.5q16 -49 16 -113q0 -21 -12.5 -33.5t-33.5 -12.5h-257q-6 0 -6 -6q0 -13 5 -28q20 -63 100 -63q45 0 91 25q25 15 48 15q22 0 36.5 -15t14.5 -37
q0 -31 -28 -50q-75 -52 -175 -52zM185 293h159q6 0 6 6q0 19 -5 36q-17 53 -81 53q-63 0 -80 -53q-5 -17 -5 -36q0 -6 6 -6zM264 545q-63 0 -105.5 33.5t-42.5 81.5q0 18 10.5 29t27.5 11q16 0 24 -7t17 -23q20 -35 69 -35t69 35q9 16 17 23t24 7q17 0 27.5 -11t10.5 -29
q0 -48 -42.5 -81.5t-105.5 -33.5z" />
    <glyph glyph-name="Edotaccent" unicode="&#x116;" horiz-adv-x="565" 
d="M65 65v550q0 30 17 47.5t47 17.5h330q30 0 49 -18t19 -46q0 -27 -19 -45t-49 -18h-241q-6 0 -6 -6v-135q0 -6 6 -6h193q30 0 48.5 -17.5t18.5 -45.5t-18.5 -45.5t-48.5 -17.5h-193q-6 0 -6 -6v-141q0 -6 6 -6h241q30 0 49 -18t19 -45q0 -28 -19 -46t-49 -18h-330
q-30 0 -47 17.5t-17 47.5zM292 737q-33 0 -56 23t-23 56t23 56t56 23t56 -23t23 -56t-23 -56t-56 -23z" />
    <glyph glyph-name="edotaccent" unicode="&#x117;" horiz-adv-x="527" 
d="M271 -11q-83 0 -139 36t-77 102q-16 48 -16 115q0 71 15 116q22 66 76.5 101.5t132.5 35.5q80 0 134 -35.5t75 -100.5q16 -49 16 -113q0 -21 -12.5 -33.5t-33.5 -12.5h-257q-6 0 -6 -6q0 -13 5 -28q20 -63 100 -63q45 0 91 25q25 15 48 15q22 0 36.5 -15t14.5 -37
q0 -31 -28 -50q-75 -52 -175 -52zM185 293h159q6 0 6 6q0 19 -5 36q-17 53 -81 53q-63 0 -80 -53q-5 -17 -5 -36q0 -6 6 -6zM264 533q-33 0 -56 23t-23 56t23 56t56 23t56 -23t23 -56t-23 -56t-56 -23z" />
    <glyph glyph-name="Eogonek" unicode="&#x118;" horiz-adv-x="565" 
d="M398 -191q-48 0 -76.5 25.5t-28.5 68.5q0 53 44 97h-208q-30 0 -47 17.5t-17 47.5v550q0 30 17 47.5t47 17.5h330q30 0 49 -18t19 -46q0 -27 -19 -45t-49 -18h-241q-6 0 -6 -6v-135q0 -6 6 -6h193q30 0 48.5 -17.5t18.5 -45.5t-18.5 -45.5t-48.5 -17.5h-193q-6 0 -6 -6
v-141q0 -6 6 -6h241q30 0 49 -18t19 -45q0 -28 -19 -46t-49 -18h-6q-51 -45 -51 -77q0 -18 16 -18q6 0 14 3q12 4 21 4q16 0 27.5 -12.5t11.5 -30.5q0 -30 -26 -44q-27 -16 -68 -16z" />
    <glyph glyph-name="eogonek" unicode="&#x119;" horiz-adv-x="527" 
d="M340 -191q-49 0 -77.5 25.5t-28.5 68.5q0 49 42 86h-5q-83 0 -139 36t-77 102q-16 48 -16 115q0 71 15 116q22 66 76.5 101.5t132.5 35.5q80 0 134 -35.5t75 -100.5q16 -49 16 -113q0 -21 -12.5 -33.5t-33.5 -12.5h-257q-6 0 -6 -6q0 -13 5 -28q20 -63 100 -63
q45 0 91 25q25 15 48 15q22 0 36.5 -15t14.5 -37q0 -31 -28 -50l-24 -15q-79 -70 -79 -103q0 -18 16 -18q7 0 14 3q12 4 21 4q16 0 27.5 -12.5t11.5 -30.5q0 -30 -26 -44q-27 -16 -67 -16zM185 293h159q6 0 6 6q0 19 -5 36q-17 53 -81 53q-63 0 -80 -53q-5 -17 -5 -36
q0 -6 6 -6z" />
    <glyph glyph-name="Ecaron" unicode="&#x11a;" horiz-adv-x="565" 
d="M65 65v550q0 30 17 47.5t47 17.5h330q30 0 49 -18t19 -46q0 -27 -19 -45t-49 -18h-241q-6 0 -6 -6v-135q0 -6 6 -6h193q30 0 48.5 -17.5t18.5 -45.5t-18.5 -45.5t-48.5 -17.5h-193q-6 0 -6 -6v-141q0 -6 6 -6h241q30 0 49 -18t19 -45q0 -28 -19 -46t-49 -18h-330
q-30 0 -47 17.5t-17 47.5zM292 727q-34 0 -65 36l-64 74q-12 13 -12 30t12.5 28.5t29.5 11.5q21 0 39 -18l59 -57h2l59 57q18 18 39 18q17 0 29.5 -11.5t12.5 -28.5t-12 -30l-64 -74q-31 -36 -65 -36z" />
    <glyph glyph-name="ecaron" unicode="&#x11b;" horiz-adv-x="527" 
d="M271 -11q-83 0 -139 36t-77 102q-16 48 -16 115q0 71 15 116q22 66 76.5 101.5t132.5 35.5q80 0 134 -35.5t75 -100.5q16 -49 16 -113q0 -21 -12.5 -33.5t-33.5 -12.5h-257q-6 0 -6 -6q0 -13 5 -28q20 -63 100 -63q45 0 91 25q25 15 48 15q22 0 36.5 -15t14.5 -37
q0 -31 -28 -50q-75 -52 -175 -52zM185 293h159q6 0 6 6q0 19 -5 36q-17 53 -81 53q-63 0 -80 -53q-5 -17 -5 -36q0 -6 6 -6zM264 531q-34 0 -65 36l-64 74q-12 13 -12 30t12.5 28.5t29.5 11.5q21 0 39 -18l59 -57h2l59 57q18 18 39 18q17 0 29.5 -11.5t12.5 -28.5t-12 -30
l-64 -74q-31 -36 -65 -36z" />
    <glyph glyph-name="Gcircumflex" unicode="&#x11c;" horiz-adv-x="628" 
d="M66 154q-19 61 -19 186t19 186q26 81 91.5 123t158.5 42q79 0 136.5 -29t85.5 -77q13 -23 13 -44q0 -29 -19.5 -47.5t-47.5 -18.5q-39 0 -65 36q-36 50 -103 50q-85 0 -109 -76q-11 -34 -11 -145q0 -112 11 -146q24 -75 111 -75q39 0 69 19t40 51q8 24 8 67q0 6 -6 6h-46
q-28 0 -45 16t-17 42t17 42t45 16h140q58 0 58 -58v-7q0 -100 -17 -154q-26 -81 -91.5 -125.5t-156.5 -44.5q-93 0 -158.5 42t-91.5 123zM413 735q-21 0 -39 18l-59 57h-2l-59 -57q-18 -18 -39 -18q-17 0 -29.5 11.5t-12.5 28.5t12 30l64 74q31 36 65 36t65 -36l64 -74
q12 -13 12 -30t-12.5 -28.5t-29.5 -11.5z" />
    <glyph glyph-name="gcircumflex" unicode="&#x11d;" horiz-adv-x="544" 
d="M240 -191q-48 0 -93.5 16.5t-64.5 37.5q-19 20 -19 46q0 24 17 41.5t42 17.5q22 0 55 -18q37 -20 70 -20q94 0 94 104v39h-1q-41 -54 -123 -54q-60 0 -102 31t-61 89q-16 49 -16 118t16 118q19 58 61 89t102 31q86 0 126 -56h1q14 51 67 51q31 0 50.5 -20t19.5 -54v-363
q0 -244 -241 -244zM261 136q53 0 71 53q9 27 9 67q0 41 -9 68q-18 53 -71 53q-54 0 -72 -53q-9 -27 -9 -68q0 -40 9 -67q18 -53 72 -53zM361 538q-21 0 -39 18l-59 57h-2l-59 -57q-18 -18 -39 -18q-17 0 -29.5 11.5t-12.5 28.5q0 16 12 30l64 74q31 36 65 36t65 -36l64 -74
q12 -14 12 -30q0 -17 -12.5 -28.5t-29.5 -11.5z" />
    <glyph glyph-name="Gbreve" unicode="&#x11e;" horiz-adv-x="628" 
d="M66 154q-19 61 -19 186t19 186q26 81 91.5 123t158.5 42q79 0 136.5 -29t85.5 -77q13 -23 13 -44q0 -29 -19.5 -47.5t-47.5 -18.5q-39 0 -65 36q-36 50 -103 50q-85 0 -109 -76q-11 -34 -11 -145q0 -112 11 -146q24 -75 111 -75q39 0 69 19t40 51q8 24 8 67q0 6 -6 6h-46
q-28 0 -45 16t-17 42t17 42t45 16h140q58 0 58 -58v-7q0 -100 -17 -154q-26 -81 -91.5 -125.5t-156.5 -44.5q-93 0 -158.5 42t-91.5 123zM314 743q-63 0 -105.5 33.5t-42.5 81.5q0 18 10.5 29t27.5 11q16 0 24 -7t17 -23q20 -35 69 -35t69 35q9 16 17 23t24 7q17 0 27.5 -11
t10.5 -29q0 -48 -42.5 -81.5t-105.5 -33.5z" />
    <glyph glyph-name="gbreve" unicode="&#x11f;" horiz-adv-x="544" 
d="M240 -191q-48 0 -93.5 16.5t-64.5 37.5q-19 20 -19 46q0 24 17 41.5t42 17.5q22 0 55 -18q37 -20 70 -20q94 0 94 104v39h-1q-41 -54 -123 -54q-60 0 -102 31t-61 89q-16 49 -16 118t16 118q19 58 61 89t102 31q86 0 126 -56h1q14 51 67 51q31 0 50.5 -20t19.5 -54v-363
q0 -244 -241 -244zM261 136q53 0 71 53q9 27 9 67q0 41 -9 68q-18 53 -71 53q-54 0 -72 -53q-9 -27 -9 -68q0 -40 9 -67q18 -53 72 -53zM263 545q-63 0 -105.5 33.5t-42.5 81.5q0 18 10.5 29t27.5 11q16 0 24 -7t17 -23q20 -35 69 -35t69 35q9 16 17 23t24 7q17 0 27.5 -11
t10.5 -29q0 -48 -42.5 -81.5t-105.5 -33.5z" />
    <glyph glyph-name="Gdotaccent" unicode="&#x120;" horiz-adv-x="628" 
d="M66 154q-19 61 -19 186t19 186q26 81 91.5 123t158.5 42q79 0 136.5 -29t85.5 -77q13 -23 13 -44q0 -29 -19.5 -47.5t-47.5 -18.5q-39 0 -65 36q-36 50 -103 50q-85 0 -109 -76q-11 -34 -11 -145q0 -112 11 -146q24 -75 111 -75q39 0 69 19t40 51q8 24 8 67q0 6 -6 6h-46
q-28 0 -45 16t-17 42t17 42t45 16h140q58 0 58 -58v-7q0 -100 -17 -154q-26 -81 -91.5 -125.5t-156.5 -44.5q-93 0 -158.5 42t-91.5 123zM314 737q-33 0 -56 23t-23 56t23 56t56 23t56 -23t23 -56t-23 -56t-56 -23z" />
    <glyph glyph-name="gdotaccent" unicode="&#x121;" horiz-adv-x="544" 
d="M240 -191q-48 0 -93.5 16.5t-64.5 37.5q-19 20 -19 46q0 24 17 41.5t42 17.5q22 0 55 -18q37 -20 70 -20q94 0 94 104v39h-1q-41 -54 -123 -54q-60 0 -102 31t-61 89q-16 49 -16 118t16 118q19 58 61 89t102 31q86 0 126 -56h1q14 51 67 51q31 0 50.5 -20t19.5 -54v-363
q0 -244 -241 -244zM261 136q53 0 71 53q9 27 9 67q0 41 -9 68q-18 53 -71 53q-54 0 -72 -53q-9 -27 -9 -68q0 -40 9 -67q18 -53 72 -53zM262 533q-33 0 -56 23t-23 56t23 56t56 23t56 -23t23 -56t-23 -56t-56 -23z" />
    <glyph glyph-name="Gcommaaccent" unicode="&#x122;" horiz-adv-x="628" 
d="M66 154q-19 61 -19 186t19 186q26 81 91.5 123t158.5 42q79 0 136.5 -29t85.5 -77q13 -23 13 -44q0 -29 -19.5 -47.5t-47.5 -18.5q-39 0 -65 36q-36 50 -103 50q-85 0 -109 -76q-11 -34 -11 -145q0 -112 11 -146q24 -75 111 -75q39 0 69 19t40 51q8 24 8 67q0 6 -6 6h-46
q-28 0 -45 16t-17 42t17 42t45 16h140q58 0 58 -58v-7q0 -100 -17 -154q-26 -81 -91.5 -125.5t-156.5 -44.5q-93 0 -158.5 42t-91.5 123zM347 -194q-16 -47 -55 -47q-26 0 -43 15t-17 41q0 12 5 27l22 69q15 47 55 47q26 0 43 -15t17 -41q0 -12 -5 -27z" />
    <glyph glyph-name="gcommaaccent" unicode="&#x123;" horiz-adv-x="544" 
d="M240 -191q-48 0 -93.5 16.5t-64.5 37.5q-19 20 -19 46q0 24 17 41.5t42 17.5q22 0 55 -18q37 -20 70 -20q94 0 94 104v39h-1q-41 -54 -123 -54q-60 0 -102 31t-61 89q-16 49 -16 118t16 118q19 58 61 89t102 31q86 0 126 -56h1q14 51 67 51q31 0 50.5 -20t19.5 -54v-363
q0 -244 -241 -244zM261 136q53 0 71 53q9 27 9 67q0 41 -9 68q-18 53 -71 53q-54 0 -72 -53q-9 -27 -9 -68q0 -40 9 -67q18 -53 72 -53zM315 593q-16 -47 -55 -47q-25 0 -42 15t-17 40q0 16 4 28l24 73q16 47 55 47q25 0 42 -15.5t17 -41.5q0 -14 -4 -26z" />
    <glyph glyph-name="Hcircumflex" unicode="&#x124;" horiz-adv-x="658" 
d="M65 72v536q0 36 20.5 57t53.5 21q32 0 52.5 -21.5t20.5 -56.5v-193q0 -6 6 -6h222q6 0 6 6v193q0 35 20.5 56.5t52.5 21.5q33 0 53.5 -21t20.5 -57v-536q0 -36 -20.5 -57t-53.5 -21q-32 0 -52.5 21.5t-20.5 56.5v200q0 6 -6 6h-222q-6 0 -6 -6v-200q0 -35 -21 -56.5
t-53 -21.5q-33 0 -53 21t-20 57zM428 735q-21 0 -39 18l-59 57h-2l-59 -57q-18 -18 -39 -18q-17 0 -29.5 11.5t-12.5 28.5t12 30l64 74q31 36 65 36t65 -36l64 -74q12 -13 12 -30t-12.5 -28.5t-29.5 -11.5z" />
    <glyph glyph-name="hcircumflex" unicode="&#x125;" horiz-adv-x="553" 
d="M423 -6q-31 0 -50.5 20t-19.5 54v220q0 41 -19.5 64.5t-56.5 23.5t-56 -23.5t-19 -64.5v-220q0 -34 -19.5 -54t-50.5 -20t-50.5 20t-19.5 54v544q0 34 19.5 54t50.5 20t50.5 -20t19.5 -54v-169h1q44 52 125 52q78 0 121.5 -49.5t43.5 -130.5v-247q0 -34 -19.5 -54
t-50.5 -20zM380 735q-21 0 -39 18l-59 57h-2l-59 -57q-18 -18 -39 -18q-17 0 -29.5 11.5t-12.5 28.5t12 30l64 74q31 36 65 36t65 -36l64 -74q12 -13 12 -30t-12.5 -28.5t-29.5 -11.5z" />
    <glyph glyph-name="Hbar" unicode="&#x126;" horiz-adv-x="658" 
d="M519 -6q-32 0 -52.5 21.5t-20.5 56.5v200q0 6 -6 6h-222q-6 0 -6 -6v-200q0 -35 -20.5 -56.5t-52.5 -21.5q-33 0 -53.5 21t-20.5 57v418q0 6 -6 6h-5q-22 0 -35 13t-13 34t13 34t35 13h5q6 0 6 6v12q0 36 20.5 57t53.5 21q32 0 52.5 -21.5t20.5 -56.5v-12q0 -6 6 -6h222
q6 0 6 6v12q0 35 20.5 56.5t52.5 21.5q33 0 53.5 -21t20.5 -57v-12q0 -6 6 -6h5q22 0 35 -13t13 -34t-13 -34t-35 -13h-5q-6 0 -6 -6v-418q0 -36 -20.5 -57t-53.5 -21zM440 409q6 0 6 6v75q0 6 -6 6h-222q-6 0 -6 -6v-75q0 -6 6 -6h222z" />
    <glyph glyph-name="hbar" unicode="&#x127;" horiz-adv-x="553" 
d="M424 -6q-31 0 -50.5 20t-19.5 54v220q0 41 -19.5 64.5t-56.5 23.5t-56 -23.5t-19 -64.5v-220q0 -34 -19.5 -54t-50.5 -20t-50.5 20t-19.5 54v458q0 6 -6 6h-3q-25 0 -39 12.5t-14 33.5t14.5 34t38.5 13h4q6 0 7 6q5 25 23.5 40t44.5 15q27 0 45 -15t23 -40q1 -6 7 -6h67
q24 0 38.5 -13t14.5 -34t-14 -33.5t-39 -12.5h-66q-6 0 -6 -6v-83h1q44 52 125 52q78 0 121.5 -49.5t43.5 -130.5v-247q0 -34 -19.5 -54t-50.5 -20z" />
    <glyph glyph-name="Itilde" unicode="&#x128;" horiz-adv-x="277" 
d="M65 72v536q0 35 20.5 56.5t53.5 21.5q32 0 52.5 -21.5t20.5 -56.5v-536q0 -35 -20.5 -56.5t-52.5 -21.5q-33 0 -53.5 21.5t-20.5 56.5zM199 748q-34 0 -70 22q-28 17 -43 17q-16 0 -33 -16q-18 -16 -36 -16q-19 0 -31 12t-12 30q0 20 14 39q41 50 91 50q34 0 70 -22
q28 -17 43 -17q16 0 33 16q18 16 36 16q19 0 31 -12t12 -30q0 -20 -14 -39q-41 -50 -91 -50z" />
    <glyph glyph-name="itilde" unicode="&#x129;" horiz-adv-x="266" 
d="M133 -6q-31 0 -50.5 20t-19.5 54v348q0 34 19.5 54t50.5 20t50.5 -20t19.5 -54v-348q0 -34 -19.5 -54t-50.5 -20zM193 553q-34 0 -70 22q-28 17 -43 17q-16 0 -33 -16q-18 -16 -36 -16q-19 0 -31 12t-12 30q0 20 14 39q41 50 91 50q34 0 70 -22q28 -17 43 -17q16 0 33 16
q18 16 36 16q19 0 31 -12t12 -30q0 -20 -14 -39q-41 -50 -91 -50z" />
    <glyph glyph-name="Imacron" unicode="&#x12a;" horiz-adv-x="277" 
d="M65 72v536q0 35 20.5 56.5t53.5 21.5q32 0 52.5 -21.5t20.5 -56.5v-536q0 -35 -20.5 -56.5t-52.5 -21.5q-33 0 -53.5 21.5t-20.5 56.5zM245 769h-213q-25 0 -39 13.5t-14 35.5t14 36t39 14h213q24 0 38 -14t14 -36t-14 -35.5t-38 -13.5z" />
    <glyph glyph-name="imacron" unicode="&#x12b;" horiz-adv-x="266" 
d="M133 -6q-31 0 -50.5 20t-19.5 54v348q0 34 19.5 54t50.5 20t50.5 -20t19.5 -54v-348q0 -34 -19.5 -54t-50.5 -20zM240 575h-213q-25 0 -39 13.5t-14 35.5t14 36t39 14h213q24 0 38 -14t14 -36t-14 -35.5t-38 -13.5z" />
    <glyph glyph-name="Ibreve" unicode="&#x12c;" horiz-adv-x="277" 
d="M65 72v536q0 35 20.5 56.5t53.5 21.5q32 0 52.5 -21.5t20.5 -56.5v-536q0 -35 -20.5 -56.5t-52.5 -21.5q-33 0 -53.5 21.5t-20.5 56.5zM139 743q-63 0 -105.5 33.5t-42.5 81.5q0 18 10.5 29t27.5 11q16 0 24 -7t17 -23q20 -35 69 -35t69 35q9 16 17 23t24 7
q17 0 27.5 -11t10.5 -29q0 -48 -42.5 -81.5t-105.5 -33.5z" />
    <glyph glyph-name="ibreve" unicode="&#x12d;" horiz-adv-x="266" 
d="M133 -6q-31 0 -50.5 20t-19.5 54v348q0 34 19.5 54t50.5 20t50.5 -20t19.5 -54v-348q0 -34 -19.5 -54t-50.5 -20zM133 545q-63 0 -105.5 33.5t-42.5 81.5q0 18 10.5 29t27.5 11q16 0 24 -7t17 -23q20 -35 69 -35t69 35q9 16 17 23t24 7q17 0 27.5 -11t10.5 -29
q0 -48 -42.5 -81.5t-105.5 -33.5z" />
    <glyph glyph-name="Iogonek" unicode="&#x12e;" horiz-adv-x="277" 
d="M129 -191q-48 0 -77 25t-29 69q0 63 60 115q-18 18 -18 54v536q0 35 20.5 56.5t53.5 21.5q32 0 52.5 -21.5t20.5 -56.5v-536q0 -39 -30 -71q-50 -54 -50 -78q0 -18 16 -18q6 0 14 3q12 4 21 4q16 0 27.5 -12.5t11.5 -30.5q0 -30 -26 -44q-27 -16 -67 -16z" />
    <glyph glyph-name="iogonek" unicode="&#x12f;" horiz-adv-x="266" 
d="M133 533q-33 0 -56 23t-23 56t23 56t56 23t56 -23t23 -56t-23 -56t-56 -23zM122 -191q-49 0 -77.5 25.5t-28.5 68.5q0 62 57 124q-10 15 -10 41v348q0 34 19.5 54t50.5 20t50.5 -20t19.5 -54v-348q0 -35 -20 -55q-58 -58 -58 -90q0 -18 16 -18q7 0 14 3q12 4 21 4
q16 0 27.5 -12.5t11.5 -30.5q0 -30 -26 -44q-27 -16 -67 -16z" />
    <glyph glyph-name="Idotaccent" unicode="&#x130;" horiz-adv-x="277" 
d="M65 72v536q0 35 20.5 56.5t53.5 21.5q32 0 52.5 -21.5t20.5 -56.5v-536q0 -35 -20.5 -56.5t-52.5 -21.5q-33 0 -53.5 21.5t-20.5 56.5zM138 737q-33 0 -56 23t-23 56t23 56t56 23t56 -23t23 -56t-23 -56t-56 -23z" />
    <glyph glyph-name="dotlessi" unicode="&#x131;" horiz-adv-x="266" 
d="M133 -6q-31 0 -50.5 20t-19.5 54v348q0 34 19.5 54t50.5 20t50.5 -20t19.5 -54v-348q0 -34 -19.5 -54t-50.5 -20z" />
    <glyph glyph-name="Jcircumflex" unicode="&#x134;" horiz-adv-x="521" 
d="M57 46q-20 23 -20 51q0 26 18.5 44t46.5 18q24 0 56 -22q26 -18 61 -18q93 0 93 115v374q0 35 20.5 56.5t52.5 21.5q33 0 53.5 -21t20.5 -57v-364q0 -124 -63.5 -189.5t-181.5 -65.5q-47 0 -91.5 16.5t-65.5 40.5zM484 735q-21 0 -39 18l-59 57h-2l-59 -57
q-18 -18 -39 -18q-17 0 -29.5 11.5t-12.5 28.5t12 30l64 74q31 36 65 36t65 -36l64 -74q12 -13 12 -30t-12.5 -28.5t-29.5 -11.5z" />
    <glyph glyph-name="jcircumflex" unicode="&#x135;" horiz-adv-x="266" 
d="M33 -180q-30 0 -46.5 16.5t-16.5 42.5q0 51 54 61q22 4 30.5 16t8.5 39v421q0 34 19.5 54t50.5 20t50.5 -20t19.5 -54v-420q0 -91 -42.5 -133.5t-127.5 -42.5zM231 538q-21 0 -39 18l-59 57h-2l-59 -57q-18 -18 -39 -18q-17 0 -29.5 11.5t-12.5 28.5q0 16 12 30l64 74
q31 36 65 36t65 -36l64 -74q12 -14 12 -30q0 -17 -12.5 -28.5t-29.5 -11.5z" />
    <glyph glyph-name="Kcommaaccent" unicode="&#x136;" horiz-adv-x="615" 
d="M65 72v536q0 35 20.5 56.5t53.5 21.5q32 0 52.5 -21.5t20.5 -56.5v-228l225 274q27 32 60 32q27 0 46.5 -18.5t19.5 -46.5q0 -27 -17 -47l-146 -168l172 -297q13 -23 13 -45q0 -29 -20 -49.5t-50 -20.5q-45 0 -70 43l-143 257l-90 -113v-109q0 -35 -20.5 -56.5
t-52.5 -21.5q-33 0 -53.5 21.5t-20.5 56.5zM350 -194q-16 -47 -55 -47q-26 0 -43 15t-17 41q0 12 5 27l22 69q15 47 55 47q26 0 43 -15t17 -41q0 -12 -5 -27z" />
    <glyph glyph-name="kcommaaccent" unicode="&#x137;" horiz-adv-x="531" 
d="M422 -6q-40 0 -63 38l-106 178l-50 -52v-90q0 -34 -19.5 -54t-50.5 -20t-50.5 20t-19.5 54v544q0 34 19.5 54t50.5 20t50.5 -20t19.5 -54v-302l151 155q25 25 54 25q23 0 39.5 -16t16.5 -40q0 -30 -22 -51l-91 -85l127 -201q11 -18 11 -39q0 -27 -19.5 -45.5t-47.5 -18.5
zM302 -194q-16 -47 -55 -47q-26 0 -43 15t-17 41q0 12 5 27l22 69q15 47 55 47q26 0 43 -15t17 -41q0 -12 -5 -27z" />
    <glyph glyph-name="kgreenlandic" unicode="&#x138;" horiz-adv-x="531" 
d="M422 -6q-40 0 -63 38l-106 178l-50 -52v-90q0 -34 -19.5 -54t-50.5 -20t-50.5 20t-19.5 54v348q0 34 19.5 54t50.5 20t50.5 -20t19.5 -54v-106l151 155q25 25 54 25q23 0 39.5 -16t16.5 -40q0 -30 -22 -51l-91 -85l127 -201q11 -18 11 -39q0 -27 -19.5 -45.5t-47.5 -18.5
z" />
    <glyph glyph-name="Lacute" unicode="&#x139;" horiz-adv-x="550" 
d="M65 74v534q0 35 20.5 56.5t53.5 21.5q32 0 52.5 -21.5t20.5 -56.5v-471q0 -6 6 -6h242q33 0 53.5 -18t20.5 -47t-20 -47.5t-54 -18.5h-321q-34 0 -54 20.5t-20 53.5zM214 761q-19 -22 -47 -22q-20 0 -35 14t-15 35q0 27 17 45l51 57q20 21 46 21q22 0 37.5 -14t15.5 -36
q0 -27 -17 -44z" />
    <glyph glyph-name="lacute" unicode="&#x13a;" horiz-adv-x="304" 
d="M216 -6h-6q-80 0 -114.5 38.5t-34.5 115.5v464q0 34 19.5 54t50.5 20t50.5 -20t19.5 -54v-452q0 -38 32 -44q56 -10 56 -61q0 -27 -18.5 -44t-54.5 -17zM195 761q-19 -22 -47 -22q-20 0 -35 14t-15 35q0 27 17 45l51 57q20 21 46 21q22 0 37.5 -14t15.5 -36
q0 -27 -17 -44z" />
    <glyph glyph-name="Lcommaaccent" unicode="&#x13b;" horiz-adv-x="550" 
d="M65 74v534q0 35 20.5 56.5t53.5 21.5q32 0 52.5 -21.5t20.5 -56.5v-471q0 -6 6 -6h242q33 0 53.5 -18t20.5 -47t-20 -47.5t-54 -18.5h-321q-34 0 -54 20.5t-20 53.5zM324 -194q-16 -47 -55 -47q-26 0 -43 15t-17 41q0 12 5 27l22 69q15 47 55 47q26 0 43 -15t17 -41
q0 -12 -5 -27z" />
    <glyph glyph-name="lcommaaccent" unicode="&#x13c;" horiz-adv-x="304" 
d="M216 -6h-6q-80 0 -114.5 38.5t-34.5 115.5v464q0 34 19.5 54t50.5 20t50.5 -20t19.5 -54v-452q0 -38 32 -44q56 -10 56 -61q0 -27 -18.5 -44t-54.5 -17zM199 -194q-16 -47 -55 -47q-26 0 -43 15t-17 41q0 12 5 27l22 69q15 47 55 47q26 0 43 -15t17 -41q0 -12 -5 -27z
" />
    <glyph glyph-name="Lcaron" unicode="&#x13d;" horiz-adv-x="550" 
d="M65 74v534q0 35 20.5 56.5t53.5 21.5q32 0 52.5 -21.5t20.5 -56.5v-471q0 -6 6 -6h242q33 0 53.5 -18t20.5 -47t-20 -47.5t-54 -18.5h-321q-34 0 -54 20.5t-20 53.5zM378 541q-16 -47 -55 -47q-26 0 -42.5 15t-16.5 41q0 15 4 27l20 62q16 47 55 47q26 0 42.5 -15.5
t16.5 -41.5q0 -14 -4 -26z" />
    <glyph glyph-name="lcaron" unicode="&#x13e;" horiz-adv-x="304" 
d="M216 -6h-6q-80 0 -114.5 38.5t-34.5 115.5v464q0 34 19.5 54t50.5 20t50.5 -20t19.5 -54v-452q0 -38 32 -44q56 -10 56 -61q0 -27 -18.5 -44t-54.5 -17zM342 541q-16 -47 -55 -47q-26 0 -42.5 15t-16.5 41q0 15 4 27l20 62q16 47 55 47q26 0 42.5 -15.5t16.5 -41.5
q0 -14 -4 -26z" />
    <glyph glyph-name="Ldot" unicode="&#x13f;" horiz-adv-x="550" 
d="M65 74v534q0 35 20.5 56.5t53.5 21.5q32 0 52.5 -21.5t20.5 -56.5v-471q0 -6 6 -6h242q33 0 53.5 -18t20.5 -47t-20 -47.5t-54 -18.5h-321q-34 0 -54 20.5t-20 53.5zM414 254q-34 0 -58 24t-24 58t24 58t58 24t58 -24t24 -58t-24 -58t-58 -24z" />
    <glyph glyph-name="ldot" unicode="&#x140;" horiz-adv-x="387" 
d="M216 -6h-6q-80 0 -114.5 38.5t-34.5 115.5v464q0 34 19.5 54t50.5 20t50.5 -20t19.5 -54v-452q0 -38 32 -44q56 -10 56 -61q0 -27 -18.5 -44t-54.5 -17zM341 261q-34 0 -58 24t-24 58t24 58t58 24t58 -24t24 -58t-24 -58t-58 -24z" />
    <glyph glyph-name="Lslash" unicode="&#x141;" horiz-adv-x="550" 
d="M327 381l-115 -59v-185q0 -6 6 -6h242q33 0 53.5 -18t20.5 -47t-20 -47.5t-54 -18.5h-321q-34 0 -54 20.5t-20 53.5v175q-5 -1 -15 -1q-21 0 -35.5 13t-14.5 36q0 33 31 48l34 17v246q0 35 20.5 56.5t53.5 21.5q32 0 52.5 -21.5t20.5 -56.5v-171l67 34q14 7 29 7
q21 0 35.5 -13t14.5 -36q0 -33 -31 -48z" />
    <glyph glyph-name="lslash" unicode="&#x142;" horiz-adv-x="304" 
d="M258 363l-57 -30v-173q0 -38 32 -44q56 -10 56 -61q0 -27 -18.5 -44t-54.5 -17h-6q-80 0 -114.5 38.5t-34.5 115.5v115q-8 -2 -15 -2q-20 0 -34 13.5t-14 34.5q0 31 29 46l34 17v240q0 34 19.5 54t50.5 20t50.5 -20t19.5 -54v-168l13 7q12 6 25 6q20 0 34 -13.5t14 -34.5
q0 -31 -29 -46z" />
    <glyph glyph-name="Nacute" unicode="&#x143;" horiz-adv-x="655" 
d="M65 65v533q0 40 22 64t60 24q56 0 97 -72l208 -371h4v372q0 33 18.5 52t48.5 19t48.5 -19t18.5 -52v-533q0 -40 -22 -64t-60 -24q-56 0 -97 72l-208 370h-4v-371q0 -33 -18.5 -52t-48.5 -19t-48.5 19t-18.5 52zM369 761q-19 -22 -47 -22q-20 0 -35 14t-15 35q0 27 17 45
l51 57q20 21 46 21q22 0 37.5 -14t15.5 -36q0 -27 -17 -44z" />
    <glyph glyph-name="nacute" unicode="&#x144;" horiz-adv-x="553" 
d="M424 -6q-31 0 -50.5 20t-19.5 54v220q0 41 -19.5 64.5t-56.5 23.5t-56 -23.5t-19 -64.5v-220q0 -34 -19.5 -54t-50.5 -20t-50.5 20t-19.5 54v348q0 34 19.5 54t50.5 20q54 0 67 -51h1q43 56 128 56q78 0 121.5 -49.5t43.5 -130.5v-247q0 -34 -19.5 -54t-50.5 -20z
M317 565q-19 -25 -47 -25q-22 0 -37 13.5t-15 35.5q0 21 13 41l43 61q18 24 47 24q21 0 37 -14.5t16 -36.5t-13 -40z" />
    <glyph glyph-name="Ncommaaccent" unicode="&#x145;" horiz-adv-x="655" 
d="M65 65v533q0 40 22 64t60 24q56 0 97 -72l208 -371h4v372q0 33 18.5 52t48.5 19t48.5 -19t18.5 -52v-533q0 -40 -22 -64t-60 -24q-56 0 -97 72l-208 370h-4v-371q0 -33 -18.5 -52t-48.5 -19t-48.5 19t-18.5 52zM373 -194q-16 -47 -55 -47q-26 0 -43 15t-17 41q0 12 5 27
l22 69q15 47 55 47q26 0 43 -15t17 -41q0 -12 -5 -27z" />
    <glyph glyph-name="ncommaaccent" unicode="&#x146;" horiz-adv-x="553" 
d="M424 -6q-31 0 -50.5 20t-19.5 54v220q0 41 -19.5 64.5t-56.5 23.5t-56 -23.5t-19 -64.5v-220q0 -34 -19.5 -54t-50.5 -20t-50.5 20t-19.5 54v348q0 34 19.5 54t50.5 20q54 0 67 -51h1q43 56 128 56q78 0 121.5 -49.5t43.5 -130.5v-247q0 -34 -19.5 -54t-50.5 -20z
M313 -194q-16 -47 -55 -47q-26 0 -43 15t-17 41q0 12 5 27l22 69q15 47 55 47q26 0 43 -15t17 -41q0 -12 -5 -27z" />
    <glyph glyph-name="Ncaron" unicode="&#x147;" horiz-adv-x="655" 
d="M65 65v533q0 40 22 64t60 24q56 0 97 -72l208 -371h4v372q0 33 18.5 52t48.5 19t48.5 -19t18.5 -52v-533q0 -40 -22 -64t-60 -24q-56 0 -97 72l-208 370h-4v-371q0 -33 -18.5 -52t-48.5 -19t-48.5 19t-18.5 52zM327 727q-34 0 -65 36l-64 74q-12 13 -12 30t12.5 28.5
t29.5 11.5q21 0 39 -18l59 -57h2l59 57q18 18 39 18q17 0 29.5 -11.5t12.5 -28.5t-12 -30l-64 -74q-31 -36 -65 -36z" />
    <glyph glyph-name="ncaron" unicode="&#x148;" horiz-adv-x="553" 
d="M424 -6q-31 0 -50.5 20t-19.5 54v220q0 41 -19.5 64.5t-56.5 23.5t-56 -23.5t-19 -64.5v-220q0 -34 -19.5 -54t-50.5 -20t-50.5 20t-19.5 54v348q0 34 19.5 54t50.5 20q54 0 67 -51h1q43 56 128 56q78 0 121.5 -49.5t43.5 -130.5v-247q0 -34 -19.5 -54t-50.5 -20z
M276 531q-34 0 -65 36l-64 74q-12 13 -12 30t12.5 28.5t29.5 11.5q21 0 39 -18l59 -57h2l59 57q18 18 39 18q17 0 29.5 -11.5t12.5 -28.5t-12 -30l-64 -74q-31 -36 -65 -36z" />
    <glyph glyph-name="Eng" unicode="&#x14a;" horiz-adv-x="655" 
d="M389 -184q-30 0 -48.5 18.5t-18.5 44.5q0 27 18 45t47 19q61 3 61 56v5l-245 432h-4v-371q0 -33 -18.5 -52t-48.5 -19t-48.5 19t-18.5 52v533q0 40 22 64t60 24q56 0 97 -72l208 -371h4v372q0 33 18.5 52t48.5 19t48.5 -19t18.5 -52v-596q0 -105 -48.5 -154t-152.5 -49z
" />
    <glyph glyph-name="eng" unicode="&#x14b;" horiz-adv-x="553" 
d="M323 -180q-29 0 -46 16.5t-17 42.5q0 50 54 61q23 4 31.5 16t8.5 39v293q0 41 -19.5 64.5t-56.5 23.5t-56 -23.5t-19 -64.5v-220q0 -34 -19.5 -54t-50.5 -20t-50.5 20t-19.5 54v348q0 34 19.5 54t50.5 20q54 0 67 -51h1q43 56 128 56q78 0 121.5 -49.5t43.5 -130.5v-319
q0 -91 -42.5 -133.5t-128.5 -42.5z" />
    <glyph glyph-name="Omacron" unicode="&#x14c;" horiz-adv-x="628" 
d="M314 -11q-91 0 -156.5 42t-91.5 123q-19 61 -19 186t19 186q26 81 91.5 123t156.5 42t156.5 -42t91.5 -123q19 -61 19 -186t-19 -186q-26 -81 -91.5 -123t-156.5 -42zM314 119q83 0 107 74q11 34 11 147t-11 147q-24 74 -107 74t-107 -74q-11 -34 -11 -147t11 -147
q24 -74 107 -74zM421 769h-213q-25 0 -39 13.5t-14 35.5t14 36t39 14h213q24 0 38 -14t14 -36t-14 -35.5t-38 -13.5z" />
    <glyph glyph-name="omacron" unicode="&#x14d;" horiz-adv-x="530" 
d="M265 -11q-79 0 -133.5 36t-76.5 103q-16 51 -16 114t16 114q22 67 76.5 103t133.5 36t133.5 -36t76.5 -103q16 -51 16 -114t-16 -114q-22 -67 -76.5 -103t-133.5 -36zM265 107q58 0 75 54q9 27 9 81t-9 81q-17 54 -75 54t-75 -54q-9 -27 -9 -81t9 -81q17 -54 75 -54z
M372 575h-213q-25 0 -39 13.5t-14 35.5t14 36t39 14h213q24 0 38 -14t14 -36t-14 -35.5t-38 -13.5z" />
    <glyph glyph-name="Obreve" unicode="&#x14e;" horiz-adv-x="628" 
d="M314 -11q-91 0 -156.5 42t-91.5 123q-19 61 -19 186t19 186q26 81 91.5 123t156.5 42t156.5 -42t91.5 -123q19 -61 19 -186t-19 -186q-26 -81 -91.5 -123t-156.5 -42zM314 119q83 0 107 74q11 34 11 147t-11 147q-24 74 -107 74t-107 -74q-11 -34 -11 -147t11 -147
q24 -74 107 -74zM314 743q-63 0 -105.5 33.5t-42.5 81.5q0 18 10.5 29t27.5 11q16 0 24 -7t17 -23q20 -35 69 -35t69 35q9 16 17 23t24 7q17 0 27.5 -11t10.5 -29q0 -48 -42.5 -81.5t-105.5 -33.5z" />
    <glyph glyph-name="obreve" unicode="&#x14f;" horiz-adv-x="530" 
d="M265 -11q-79 0 -133.5 36t-76.5 103q-16 51 -16 114t16 114q22 67 76.5 103t133.5 36t133.5 -36t76.5 -103q16 -51 16 -114t-16 -114q-22 -67 -76.5 -103t-133.5 -36zM265 107q58 0 75 54q9 27 9 81t-9 81q-17 54 -75 54t-75 -54q-9 -27 -9 -81t9 -81q17 -54 75 -54z
M265 545q-63 0 -105.5 33.5t-42.5 81.5q0 18 10.5 29t27.5 11q16 0 24 -7t17 -23q20 -35 69 -35t69 35q9 16 17 23t24 7q17 0 27.5 -11t10.5 -29q0 -48 -42.5 -81.5t-105.5 -33.5z" />
    <glyph glyph-name="Ohungarumlaut" unicode="&#x150;" horiz-adv-x="628" 
d="M314 -11q-91 0 -156.5 42t-91.5 123q-19 61 -19 186t19 186q26 81 91.5 123t156.5 42t156.5 -42t91.5 -123q19 -61 19 -186t-19 -186q-26 -81 -91.5 -123t-156.5 -42zM314 119q83 0 107 74q11 34 11 147t-11 147q-24 74 -107 74t-107 -74q-11 -34 -11 -147t11 -147
q24 -74 107 -74zM457 776q-18 -27 -46 -27q-21 0 -37.5 14t-16.5 36q0 20 14 40l36 54q17 26 47 26q21 0 37 -14.5t16 -36.5q0 -20 -13 -39zM281 776q-18 -27 -46 -27q-21 0 -37.5 14t-16.5 36q0 20 14 40l36 54q17 26 47 26q21 0 37 -14.5t16 -36.5q0 -20 -13 -39z" />
    <glyph glyph-name="ohungarumlaut" unicode="&#x151;" horiz-adv-x="530" 
d="M265 -11q-79 0 -133.5 36t-76.5 103q-16 51 -16 114t16 114q22 67 76.5 103t133.5 36t133.5 -36t76.5 -103q16 -51 16 -114t-16 -114q-22 -67 -76.5 -103t-133.5 -36zM265 107q58 0 75 54q9 27 9 81t-9 81q-17 54 -75 54t-75 -54q-9 -27 -9 -81t9 -81q17 -54 75 -54z
M413 567q-19 -31 -48 -31q-22 0 -37.5 14.5t-15.5 36.5q0 18 11 37l38 64q17 30 49 30q22 0 37.5 -14t15.5 -37q0 -17 -11 -36zM236 567q-19 -31 -48 -31q-22 0 -37.5 14.5t-15.5 36.5q0 18 11 37l38 64q17 30 49 30q22 0 37.5 -14t15.5 -37q0 -17 -11 -36z" />
    <glyph glyph-name="OE" unicode="&#x152;" horiz-adv-x="931" 
d="M825 0h-330q-50 0 -61 44h-1q-38 -55 -139 -55q-83 0 -142 42t-84 118q-21 63 -21 191t21 191q25 76 84 118t142 42q101 0 139 -55h1q11 44 61 44h330q30 0 49 -18t19 -46q0 -27 -19 -45t-49 -18h-241q-6 0 -6 -6v-135q0 -6 6 -6h193q30 0 48.5 -17.5t18.5 -45.5
t-18.5 -45.5t-48.5 -17.5h-193q-6 0 -6 -6v-141q0 -6 6 -6h241q30 0 49 -18t19 -45q0 -28 -19 -46t-49 -18zM314 119q83 0 107 74q11 34 11 147t-11 147q-24 74 -107 74t-107 -74q-11 -34 -11 -147t11 -147q24 -74 107 -74z" />
    <glyph glyph-name="oe" unicode="&#x153;" horiz-adv-x="835" 
d="M579 -11q-103 0 -157 59h-2q-58 -59 -155 -59q-79 0 -133.5 36t-76.5 103q-16 51 -16 114t16 114q22 67 76.5 103t133.5 36q89 0 154 -57h2q54 57 150 57q80 0 134 -35.5t75 -100.5q16 -49 16 -113q0 -21 -12.5 -33.5t-33.5 -12.5h-257q-6 0 -6 -6q0 -13 5 -28
q20 -63 100 -63q45 0 91 25q25 15 48 15q22 0 36.5 -15t14.5 -37q0 -31 -28 -50q-75 -52 -175 -52zM493 293h159q6 0 6 6q0 19 -5 36q-17 53 -81 53q-63 0 -80 -53q-5 -17 -5 -36q0 -6 6 -6zM265 107q58 0 75 54q9 27 9 81t-9 81q-17 54 -75 54t-75 -54q-9 -27 -9 -81t9 -81
q17 -54 75 -54z" />
    <glyph glyph-name="Racute" unicode="&#x154;" horiz-adv-x="624" 
d="M504 -6q-48 0 -72 46l-114 219h-100q-6 0 -6 -6v-181q0 -35 -20.5 -56.5t-52.5 -21.5q-33 0 -53.5 21.5t-20.5 56.5v543q0 30 17 47.5t47 17.5h216q104 0 168 -58.5t64 -152.5q0 -62 -29.5 -110t-82.5 -74l99 -180q10 -19 10 -41q0 -30 -19 -50t-51 -20zM338 384
q42 0 67 23t25 61q0 39 -25 62t-67 23h-120q-6 0 -6 -6v-157q0 -6 6 -6h120zM336 761q-19 -22 -47 -22q-20 0 -35 14t-15 35q0 27 17 45l51 57q20 21 46 21q22 0 37.5 -14t15.5 -36q0 -27 -17 -44z" />
    <glyph glyph-name="racute" unicode="&#x155;" horiz-adv-x="428" 
d="M133 -6q-31 0 -50.5 20t-19.5 54v348q0 34 19.5 54t50.5 20q25 0 43.5 -14t24.5 -40v-1h1q18 26 50.5 43t71.5 17q29 0 51 -10q37 -18 37 -57q0 -31 -19 -51t-50 -20q-13 0 -30 5t-36 5q-74 0 -74 -102v-197q0 -34 -19.5 -54t-50.5 -20zM273 565q-19 -25 -47 -25
q-22 0 -37 13.5t-15 35.5q0 21 13 41l43 61q18 24 47 24q21 0 37 -14.5t16 -36.5t-13 -40z" />
    <glyph glyph-name="Rcommaaccent" unicode="&#x156;" horiz-adv-x="624" 
d="M504 -6q-48 0 -72 46l-114 219h-100q-6 0 -6 -6v-181q0 -35 -20.5 -56.5t-52.5 -21.5q-33 0 -53.5 21.5t-20.5 56.5v543q0 30 17 47.5t47 17.5h216q104 0 168 -58.5t64 -152.5q0 -62 -29.5 -110t-82.5 -74l99 -180q10 -19 10 -41q0 -30 -19 -50t-51 -20zM338 384
q42 0 67 23t25 61q0 39 -25 62t-67 23h-120q-6 0 -6 -6v-157q0 -6 6 -6h120zM341 -194q-16 -47 -55 -47q-26 0 -43 15t-17 41q0 12 5 27l22 69q15 47 55 47q26 0 43 -15t17 -41q0 -12 -5 -27z" />
    <glyph glyph-name="rcommaaccent" unicode="&#x157;" horiz-adv-x="428" 
d="M133 -6q-31 0 -50.5 20t-19.5 54v348q0 34 19.5 54t50.5 20q25 0 43.5 -14t24.5 -40v-1h1q18 26 50.5 43t71.5 17q29 0 51 -10q37 -18 37 -57q0 -31 -19 -51t-50 -20q-13 0 -30 5t-36 5q-74 0 -74 -102v-197q0 -34 -19.5 -54t-50.5 -20zM157 -194q-16 -47 -55 -47
q-26 0 -43 15t-17 41q0 12 5 27l22 69q15 47 55 47q26 0 43 -15t17 -41q0 -12 -5 -27z" />
    <glyph glyph-name="Rcaron" unicode="&#x158;" horiz-adv-x="624" 
d="M504 -6q-48 0 -72 46l-114 219h-100q-6 0 -6 -6v-181q0 -35 -20.5 -56.5t-52.5 -21.5q-33 0 -53.5 21.5t-20.5 56.5v543q0 30 17 47.5t47 17.5h216q104 0 168 -58.5t64 -152.5q0 -62 -29.5 -110t-82.5 -74l99 -180q10 -19 10 -41q0 -30 -19 -50t-51 -20zM338 384
q42 0 67 23t25 61q0 39 -25 62t-67 23h-120q-6 0 -6 -6v-157q0 -6 6 -6h120zM289 727q-34 0 -65 36l-64 74q-12 13 -12 30t12.5 28.5t29.5 11.5q21 0 39 -18l59 -57h2l59 57q18 18 39 18q17 0 29.5 -11.5t12.5 -28.5t-12 -30l-64 -74q-31 -36 -65 -36z" />
    <glyph glyph-name="rcaron" unicode="&#x159;" horiz-adv-x="428" 
d="M133 -6q-31 0 -50.5 20t-19.5 54v348q0 34 19.5 54t50.5 20q25 0 43.5 -14t24.5 -40v-1h1q18 26 50.5 43t71.5 17q29 0 51 -10q37 -18 37 -57q0 -31 -19 -51t-50 -20q-13 0 -30 5t-36 5q-74 0 -74 -102v-197q0 -34 -19.5 -54t-50.5 -20zM234 531q-34 0 -65 36l-64 74
q-12 13 -12 30t12.5 28.5t29.5 11.5q21 0 39 -18l59 -57h2l59 57q18 18 39 18q17 0 29.5 -11.5t12.5 -28.5t-12 -30l-64 -74q-31 -36 -65 -36z" />
    <glyph glyph-name="Sacute" unicode="&#x15a;" horiz-adv-x="595" 
d="M291 -11q-121 0 -214 58q-35 23 -35 62q0 27 19 46t47 19q22 0 43 -12q79 -44 146 -44q53 0 82 22t29 58q0 32 -23.5 50t-81.5 26l-36 5q-215 29 -215 204q0 94 65.5 151t175.5 57q118 0 190 -45q35 -22 35 -59q0 -28 -18.5 -46t-45.5 -18q-21 0 -43 11q-58 28 -117 28
q-44 0 -68 -20t-24 -53q0 -60 106 -75l36 -5q107 -15 160.5 -65t53.5 -141q0 -96 -69 -155t-198 -59zM336 761q-19 -22 -47 -22q-20 0 -35 14t-15 35q0 27 17 45l51 57q20 21 46 21q22 0 37.5 -14t15.5 -36q0 -27 -17 -44z" />
    <glyph glyph-name="sacute" unicode="&#x15b;" horiz-adv-x="505" 
d="M250 -11q-103 0 -177 46q-34 21 -34 56q0 23 17 39.5t41 16.5q18 0 41 -13q61 -35 119 -35q75 0 75 45q0 18 -14.5 27.5t-55.5 13.5l-53 6q-158 18 -158 148q0 72 53 114t147 42q85 0 147 -32q41 -21 41 -55q0 -24 -15.5 -39.5t-39.5 -15.5q-15 0 -40 12q-45 21 -98 21
q-61 0 -61 -38q0 -18 14 -27t53 -13l53 -6q161 -18 161 -147q0 -75 -57.5 -120.5t-158.5 -45.5zM299 565q-19 -25 -47 -25q-22 0 -37 13.5t-15 35.5q0 21 13 41l43 61q18 24 47 24q21 0 37 -14.5t16 -36.5t-13 -40z" />
    <glyph glyph-name="Scircumflex" unicode="&#x15c;" horiz-adv-x="595" 
d="M291 -11q-121 0 -214 58q-35 23 -35 62q0 27 19 46t47 19q22 0 43 -12q79 -44 146 -44q53 0 82 22t29 58q0 32 -23.5 50t-81.5 26l-36 5q-215 29 -215 204q0 94 65.5 151t175.5 57q118 0 190 -45q35 -22 35 -59q0 -28 -18.5 -46t-45.5 -18q-21 0 -43 11q-58 28 -117 28
q-44 0 -68 -20t-24 -53q0 -60 106 -75l36 -5q107 -15 160.5 -65t53.5 -141q0 -96 -69 -155t-198 -59zM398 735q-21 0 -39 18l-59 57h-2l-59 -57q-18 -18 -39 -18q-17 0 -29.5 11.5t-12.5 28.5t12 30l64 74q31 36 65 36t65 -36l64 -74q12 -13 12 -30t-12.5 -28.5t-29.5 -11.5
z" />
    <glyph glyph-name="scircumflex" unicode="&#x15d;" horiz-adv-x="505" 
d="M250 -11q-103 0 -177 46q-34 21 -34 56q0 23 17 39.5t41 16.5q18 0 41 -13q61 -35 119 -35q75 0 75 45q0 18 -14.5 27.5t-55.5 13.5l-53 6q-158 18 -158 148q0 72 53 114t147 42q85 0 147 -32q41 -21 41 -55q0 -24 -15.5 -39.5t-39.5 -15.5q-15 0 -40 12q-45 21 -98 21
q-61 0 -61 -38q0 -18 14 -27t53 -13l53 -6q161 -18 161 -147q0 -75 -57.5 -120.5t-158.5 -45.5zM354 538q-21 0 -39 18l-59 57h-2l-59 -57q-18 -18 -39 -18q-17 0 -29.5 11.5t-12.5 28.5q0 16 12 30l64 74q31 36 65 36t65 -36l64 -74q12 -14 12 -30q0 -17 -12.5 -28.5
t-29.5 -11.5z" />
    <glyph glyph-name="Scedilla" unicode="&#x15e;" horiz-adv-x="595" 
d="M306 -138q-12 -39 -51 -39q-23 0 -40 13.5t-17 36.5q0 12 5 25l35 94q-96 9 -167 55q-35 23 -35 62q0 27 19 46t47 19q22 0 43 -12q79 -44 146 -44q53 0 82 22t29 58q0 32 -23.5 50t-81.5 26l-36 5q-215 29 -215 204q0 94 65.5 151t175.5 57q118 0 190 -45q35 -22 35 -59
q0 -28 -18.5 -46t-45.5 -18q-21 0 -43 11q-58 28 -117 28q-44 0 -68 -20t-24 -53q0 -60 106 -75l36 -5q107 -15 160.5 -65t53.5 -141q0 -82 -51.5 -138t-148.5 -71z" />
    <glyph glyph-name="scedilla" unicode="&#x15f;" horiz-adv-x="505" 
d="M274 -138q-12 -39 -51 -39q-23 0 -40 13.5t-17 36.5q0 12 5 25l35 93q-82 11 -133 44q-34 21 -34 56q0 23 17 39.5t41 16.5q18 0 41 -13q61 -35 119 -35q75 0 75 45q0 18 -14.5 27.5t-55.5 13.5l-53 6q-158 18 -158 148q0 72 53 114t147 42q85 0 147 -32q41 -21 41 -55
q0 -24 -15.5 -39.5t-39.5 -15.5q-15 0 -40 12q-45 21 -98 21q-61 0 -61 -38q0 -18 14 -27t53 -13l53 -6q161 -18 161 -147q0 -60 -37.5 -102t-107.5 -57z" />
    <glyph glyph-name="Scaron" unicode="&#x160;" horiz-adv-x="595" 
d="M291 -11q-121 0 -214 58q-35 23 -35 62q0 27 19 46t47 19q22 0 43 -12q79 -44 146 -44q53 0 82 22t29 58q0 32 -23.5 50t-81.5 26l-36 5q-215 29 -215 204q0 94 65.5 151t175.5 57q118 0 190 -45q35 -22 35 -59q0 -28 -18.5 -46t-45.5 -18q-21 0 -43 11q-58 28 -117 28
q-44 0 -68 -20t-24 -53q0 -60 106 -75l36 -5q107 -15 160.5 -65t53.5 -141q0 -96 -69 -155t-198 -59zM296 727q-34 0 -65 36l-64 74q-12 13 -12 30t12.5 28.5t29.5 11.5q21 0 39 -18l59 -57h2l59 57q18 18 39 18q17 0 29.5 -11.5t12.5 -28.5t-12 -30l-64 -74
q-31 -36 -65 -36z" />
    <glyph glyph-name="scaron" unicode="&#x161;" horiz-adv-x="505" 
d="M250 -11q-103 0 -177 46q-34 21 -34 56q0 23 17 39.5t41 16.5q18 0 41 -13q61 -35 119 -35q75 0 75 45q0 18 -14.5 27.5t-55.5 13.5l-53 6q-158 18 -158 148q0 72 53 114t147 42q85 0 147 -32q41 -21 41 -55q0 -24 -15.5 -39.5t-39.5 -15.5q-15 0 -40 12q-45 21 -98 21
q-61 0 -61 -38q0 -18 14 -27t53 -13l53 -6q161 -18 161 -147q0 -75 -57.5 -120.5t-158.5 -45.5zM251 531q-34 0 -65 36l-64 74q-12 13 -12 30t12.5 28.5t29.5 11.5q21 0 39 -18l59 -57h2l59 57q18 18 39 18q17 0 29.5 -11.5t12.5 -28.5t-12 -30l-64 -74q-31 -36 -65 -36z
" />
    <glyph glyph-name="Tcommaaccent" unicode="&#x162;" horiz-adv-x="559" 
d="M279 -6q-32 0 -52.5 21.5t-20.5 56.5v471q0 6 -6 6h-115q-33 0 -53.5 18t-20.5 47t20 47.5t54 18.5h389q34 0 54 -18.5t20 -47.5t-20.5 -47t-53.5 -18h-115q-6 0 -6 -6v-471q0 -35 -20.5 -56.5t-53.5 -21.5zM306 -194q-16 -47 -55 -47q-26 0 -43 15t-17 41q0 12 5 27
l22 69q15 47 55 47q26 0 43 -15t17 -41q0 -12 -5 -27z" />
    <glyph glyph-name="tcommaaccent" unicode="&#x163;" horiz-adv-x="331" 
d="M234 -6h-6q-84 0 -119.5 39t-35.5 123v218q0 6 -7 6h-4q-27 0 -41.5 14t-14.5 38t14.5 38t41.5 14h4q7 0 7 6v72q0 34 19.5 54t50.5 20t50 -20t19 -54v-72q0 -6 6 -6h38q27 0 41.5 -14t14.5 -38t-14.5 -38t-41.5 -14h-38q-6 0 -6 -6v-214q0 -40 37 -44q31 -4 46.5 -21
t15.5 -41q0 -27 -19.5 -43.5t-57.5 -16.5zM211 -194q-16 -47 -55 -47q-26 0 -43 15t-17 41q0 12 5 27l22 69q15 47 55 47q26 0 43 -15t17 -41q0 -12 -5 -27z" />
    <glyph glyph-name="Tcaron" unicode="&#x164;" horiz-adv-x="559" 
d="M279 -6q-32 0 -52.5 21.5t-20.5 56.5v471q0 6 -6 6h-115q-33 0 -53.5 18t-20.5 47t20 47.5t54 18.5h389q34 0 54 -18.5t20 -47.5t-20.5 -47t-53.5 -18h-115q-6 0 -6 -6v-471q0 -35 -20.5 -56.5t-53.5 -21.5zM277 727q-34 0 -65 36l-64 74q-12 13 -12 30t12.5 28.5
t29.5 11.5q21 0 39 -18l59 -57h2l59 57q18 18 39 18q17 0 29.5 -11.5t12.5 -28.5t-12 -30l-64 -74q-31 -36 -65 -36z" />
    <glyph glyph-name="tcaron" unicode="&#x165;" horiz-adv-x="331" 
d="M234 -6h-6q-84 0 -119.5 39t-35.5 123v218q0 6 -7 6h-4q-27 0 -41.5 14t-14.5 38t14.5 38t41.5 14h4q7 0 7 6v72q0 34 19.5 54t50.5 20t50 -20t19 -54v-72q0 -6 6 -6h38q27 0 41.5 -14t14.5 -38t-14.5 -38t-41.5 -14h-38q-6 0 -6 -6v-214q0 -40 37 -44q31 -4 46.5 -21
t15.5 -41q0 -27 -19.5 -43.5t-57.5 -16.5zM384 541q-16 -47 -55 -47q-26 0 -42.5 15t-16.5 41q0 15 4 27l20 62q16 47 55 47q26 0 42.5 -15.5t16.5 -41.5q0 -14 -4 -26z" />
    <glyph glyph-name="Tbar" unicode="&#x166;" horiz-adv-x="559" 
d="M279 -6q-32 0 -52.5 21.5t-20.5 56.5v238q0 6 -6 6h-43q-25 0 -41 15t-16 39t16 39t41 15h43q6 0 6 6v113q0 6 -6 6h-115q-34 0 -54 18t-20 47t20 47.5t54 18.5h389q34 0 54 -18.5t20 -47.5t-20 -47t-54 -18h-115q-6 0 -6 -6v-113q0 -6 6 -6h43q25 0 41 -15t16 -39
t-16 -39t-41 -15h-43q-6 0 -6 -6v-238q0 -35 -20.5 -56.5t-53.5 -21.5z" />
    <glyph glyph-name="tbar" unicode="&#x167;" horiz-adv-x="331" 
d="M234 -6h-6q-84 0 -119.5 39t-35.5 123v75q0 6 -6 6h-4q-21 0 -33.5 12.5t-12.5 32.5t12.5 32t33.5 12h4q6 0 6 6v42q0 6 -7 6h-4q-27 0 -41.5 14t-14.5 38t14.5 38t41.5 14h4q7 0 7 6v72q0 34 19.5 54t50.5 20t50 -20t19 -54v-72q0 -6 6 -6h38q27 0 41.5 -14t14.5 -38
t-14.5 -38t-41.5 -14h-38q-6 0 -6 -6v-42q0 -6 6 -6h23q20 0 33 -12.5t13 -31.5q0 -20 -13 -32.5t-33 -12.5h-23q-6 0 -6 -6v-71q0 -40 37 -44q31 -4 46.5 -21t15.5 -41q0 -27 -19.5 -43.5t-57.5 -16.5z" />
    <glyph glyph-name="Utilde" unicode="&#x168;" horiz-adv-x="645" 
d="M323 -11q-121 0 -191 68t-70 194v357q0 35 20.5 56.5t53.5 21.5q32 0 52.5 -21.5t20.5 -56.5v-362q0 -60 32 -93.5t82 -33.5q52 0 82.5 33.5t30.5 93.5v362q0 35 20.5 56.5t52.5 21.5q33 0 53.5 -21.5t20.5 -56.5v-357q0 -125 -71 -193.5t-189 -68.5zM382 748
q-34 0 -70 22q-28 17 -43 17q-16 0 -33 -16q-18 -16 -36 -16q-19 0 -31 12t-12 30q0 20 14 39q41 50 91 50q34 0 70 -22q28 -17 43 -17q16 0 33 16q18 16 36 16q19 0 31 -12t12 -30q0 -20 -14 -39q-41 -50 -91 -50z" />
    <glyph glyph-name="utilde" unicode="&#x169;" horiz-adv-x="549" 
d="M416 -6q-54 0 -67 51h-1q-43 -56 -128 -56q-78 0 -120 49.5t-42 130.5v247q0 34 20 54t51 20t50 -20t19 -54v-220q0 -41 18.5 -64.5t55.5 -23.5q36 0 55 23.5t19 64.5v220q0 34 19.5 54t50.5 20t50.5 -20t19.5 -54v-348q0 -34 -19.5 -54t-50.5 -20zM332 553q-34 0 -70 22
q-28 17 -43 17q-16 0 -33 -16q-18 -16 -36 -16q-19 0 -31 12t-12 30q0 20 14 39q41 50 91 50q34 0 70 -22q28 -17 43 -17q16 0 33 16q18 16 36 16q19 0 31 -12t12 -30q0 -20 -14 -39q-41 -50 -91 -50z" />
    <glyph glyph-name="Umacron" unicode="&#x16a;" horiz-adv-x="645" 
d="M323 -11q-121 0 -191 68t-70 194v357q0 35 20.5 56.5t53.5 21.5q32 0 52.5 -21.5t20.5 -56.5v-362q0 -60 32 -93.5t82 -33.5q52 0 82.5 33.5t30.5 93.5v362q0 35 20.5 56.5t52.5 21.5q33 0 53.5 -21.5t20.5 -56.5v-357q0 -125 -71 -193.5t-189 -68.5zM429 769h-213
q-25 0 -39 13.5t-14 35.5t14 36t39 14h213q24 0 38 -14t14 -36t-14 -35.5t-38 -13.5z" />
    <glyph glyph-name="umacron" unicode="&#x16b;" horiz-adv-x="549" 
d="M416 -6q-54 0 -67 51h-1q-43 -56 -128 -56q-78 0 -120 49.5t-42 130.5v247q0 34 20 54t51 20t50 -20t19 -54v-220q0 -41 18.5 -64.5t55.5 -23.5q36 0 55 23.5t19 64.5v220q0 34 19.5 54t50.5 20t50.5 -20t19.5 -54v-348q0 -34 -19.5 -54t-50.5 -20zM380 575h-213
q-25 0 -39 13.5t-14 35.5t14 36t39 14h213q24 0 38 -14t14 -36t-14 -35.5t-38 -13.5z" />
    <glyph glyph-name="Ubreve" unicode="&#x16c;" horiz-adv-x="645" 
d="M323 -11q-121 0 -191 68t-70 194v357q0 35 20.5 56.5t53.5 21.5q32 0 52.5 -21.5t20.5 -56.5v-362q0 -60 32 -93.5t82 -33.5q52 0 82.5 33.5t30.5 93.5v362q0 35 20.5 56.5t52.5 21.5q33 0 53.5 -21.5t20.5 -56.5v-357q0 -125 -71 -193.5t-189 -68.5zM322 743
q-63 0 -105.5 33.5t-42.5 81.5q0 18 10.5 29t27.5 11q16 0 24 -7t17 -23q20 -35 69 -35t69 35q9 16 17 23t24 7q17 0 27.5 -11t10.5 -29q0 -48 -42.5 -81.5t-105.5 -33.5z" />
    <glyph glyph-name="ubreve" unicode="&#x16d;" horiz-adv-x="549" 
d="M416 -6q-54 0 -67 51h-1q-43 -56 -128 -56q-78 0 -120 49.5t-42 130.5v247q0 34 20 54t51 20t50 -20t19 -54v-220q0 -41 18.5 -64.5t55.5 -23.5q36 0 55 23.5t19 64.5v220q0 34 19.5 54t50.5 20t50.5 -20t19.5 -54v-348q0 -34 -19.5 -54t-50.5 -20zM274 545
q-63 0 -105.5 33.5t-42.5 81.5q0 18 10.5 29t27.5 11q16 0 24 -7t17 -23q20 -35 69 -35t69 35q9 16 17 23t24 7q17 0 27.5 -11t10.5 -29q0 -48 -42.5 -81.5t-105.5 -33.5z" />
    <glyph glyph-name="Uring" unicode="&#x16e;" horiz-adv-x="645" 
d="M323 -11q-121 0 -191 68t-70 194v357q0 35 20.5 56.5t53.5 21.5q32 0 52.5 -21.5t20.5 -56.5v-362q0 -60 32 -93.5t82 -33.5q52 0 82.5 33.5t30.5 93.5v362q0 35 20.5 56.5t52.5 21.5q33 0 53.5 -21.5t20.5 -56.5v-357q0 -125 -71 -193.5t-189 -68.5zM322 712
q-47 0 -77.5 30.5t-30.5 76.5t30.5 76.5t77.5 30.5t77.5 -30.5t30.5 -76.5t-30.5 -76.5t-77.5 -30.5zM322 771q20 0 33 13.5t13 34.5t-13 34.5t-33 13.5t-33 -13.5t-13 -34.5t13 -34.5t33 -13.5z" />
    <glyph glyph-name="uring" unicode="&#x16f;" horiz-adv-x="549" 
d="M416 -6q-54 0 -67 51h-1q-43 -56 -128 -56q-78 0 -120 49.5t-42 130.5v247q0 34 20 54t51 20t50 -20t19 -54v-220q0 -41 18.5 -64.5t55.5 -23.5q36 0 55 23.5t19 64.5v220q0 34 19.5 54t50.5 20t50.5 -20t19.5 -54v-348q0 -34 -19.5 -54t-50.5 -20zM274 524
q-47 0 -77.5 30.5t-30.5 76.5t30.5 76.5t77.5 30.5t77.5 -30.5t30.5 -76.5t-30.5 -76.5t-77.5 -30.5zM274 583q20 0 33 13.5t13 34.5t-13 34.5t-33 13.5t-33 -13.5t-13 -34.5t13 -34.5t33 -13.5z" />
    <glyph glyph-name="Uhungarumlaut" unicode="&#x170;" horiz-adv-x="645" 
d="M323 -11q-121 0 -191 68t-70 194v357q0 35 20.5 56.5t53.5 21.5q32 0 52.5 -21.5t20.5 -56.5v-362q0 -60 32 -93.5t82 -33.5q52 0 82.5 33.5t30.5 93.5v362q0 35 20.5 56.5t52.5 21.5q33 0 53.5 -21.5t20.5 -56.5v-357q0 -125 -71 -193.5t-189 -68.5zM466 776
q-18 -27 -46 -27q-21 0 -37.5 14t-16.5 36q0 20 14 40l36 54q17 26 47 26q21 0 37 -14.5t16 -36.5q0 -20 -13 -39zM290 776q-18 -27 -46 -27q-21 0 -37.5 14t-16.5 36q0 20 14 40l36 54q17 26 47 26q21 0 37 -14.5t16 -36.5q0 -20 -13 -39z" />
    <glyph glyph-name="uhungarumlaut" unicode="&#x171;" horiz-adv-x="549" 
d="M416 -6q-54 0 -67 51h-1q-43 -56 -128 -56q-78 0 -120 49.5t-42 130.5v247q0 34 20 54t51 20t50 -20t19 -54v-220q0 -41 18.5 -64.5t55.5 -23.5q36 0 55 23.5t19 64.5v220q0 34 19.5 54t50.5 20t50.5 -20t19.5 -54v-348q0 -34 -19.5 -54t-50.5 -20zM418 567
q-19 -31 -48 -31q-22 0 -37.5 14.5t-15.5 36.5q0 18 11 37l38 64q17 30 49 30q22 0 37.5 -14t15.5 -37q0 -17 -11 -36zM241 567q-19 -31 -48 -31q-22 0 -37.5 14.5t-15.5 36.5q0 18 11 37l38 64q17 30 49 30q22 0 37.5 -14t15.5 -37q0 -17 -11 -36z" />
    <glyph glyph-name="Uogonek" unicode="&#x172;" horiz-adv-x="645" 
d="M336 -191q-49 0 -77.5 25.5t-28.5 68.5q0 47 34 91q-95 15 -148.5 81.5t-53.5 175.5v357q0 35 20.5 56.5t53.5 21.5q32 0 52.5 -21.5t20.5 -56.5v-362q0 -60 32 -93.5t82 -33.5q52 0 82.5 33.5t30.5 93.5v362q0 35 20.5 56.5t52.5 21.5q33 0 53.5 -21.5t20.5 -56.5v-357
q0 -109 -55 -175.5t-150 -81.5q-39 -49 -39 -71q0 -18 16 -18q6 0 14 3q12 4 21 4q16 0 27.5 -12.5t11.5 -30.5q0 -30 -26 -44q-27 -16 -67 -16z" />
    <glyph glyph-name="uogonek" unicode="&#x173;" horiz-adv-x="549" 
d="M390 -191q-49 0 -77.5 25.5t-28.5 68.5q0 60 77 115q-10 16 -12 27h-1q-43 -56 -128 -56q-78 0 -120 49.5t-42 130.5v247q0 34 20 54t51 20t50 -20t19 -54v-220q0 -41 18.5 -64.5t55.5 -23.5q36 0 55 23.5t19 64.5v220q0 34 19.5 54t50.5 20t50.5 -20t19.5 -54v-348
q0 -36 -20 -55q-73 -67 -73 -90q0 -18 16 -18q7 0 14 3q12 4 21 4q16 0 27.5 -12.5t11.5 -30.5q0 -30 -26 -44q-27 -16 -67 -16z" />
    <glyph glyph-name="Wcircumflex" unicode="&#x174;" horiz-adv-x="864" 
d="M615 -6q-31 0 -49.5 18t-30.5 59l-103 361h-2l-101 -361q-11 -41 -30 -59t-50 -18q-59 0 -80 77l-140 516q-4 18 -4 29q0 30 19.5 50t52.5 20q55 0 72 -68l89 -376h2l103 381q18 63 69 63q52 0 70 -63l106 -381h2l86 376q15 68 72 68q32 0 51.5 -19.5t19.5 -50.5
q0 -11 -4 -29l-140 -516q-21 -77 -80 -77zM531 735q-21 0 -39 18l-59 57h-2l-59 -57q-18 -18 -39 -18q-17 0 -29.5 11.5t-12.5 28.5t12 30l64 74q31 36 65 36t65 -36l64 -74q12 -13 12 -30t-12.5 -28.5t-29.5 -11.5z" />
    <glyph glyph-name="wcircumflex" unicode="&#x175;" horiz-adv-x="765" 
d="M532 -6q-60 0 -79 65l-69 232h-2l-70 -232q-21 -65 -77 -65q-57 0 -79 65l-113 335q-5 17 -5 29q0 29 19.5 48t48.5 19q50 0 67 -59l70 -245h2l69 244q18 60 69 60q50 0 68 -60l73 -244h2l67 245q17 59 67 59q29 0 48 -19t19 -48q0 -12 -5 -29l-113 -335q-22 -65 -77 -65
zM482 538q-21 0 -39 18l-59 57h-2l-59 -57q-18 -18 -39 -18q-17 0 -29.5 11.5t-12.5 28.5q0 16 12 30l64 74q31 36 65 36t65 -36l64 -74q12 -14 12 -30q0 -17 -12.5 -28.5t-29.5 -11.5z" />
    <glyph glyph-name="Ycircumflex" unicode="&#x176;" horiz-adv-x="567" 
d="M283 -6q-31 0 -52 21.5t-21 56.5v198l-174 310q-11 20 -11 40q0 28 20 47t49 19q41 0 65 -44l124 -233h3l125 233q23 44 65 44q29 0 48 -18.5t19 -47.5q0 -20 -11 -40l-175 -310v-198q0 -36 -20.5 -57t-53.5 -21zM382 735q-21 0 -39 18l-59 57h-2l-59 -57
q-18 -18 -39 -18q-17 0 -29.5 11.5t-12.5 28.5t12 30l64 74q31 36 65 36t65 -36l64 -74q12 -13 12 -30t-12.5 -28.5t-29.5 -11.5z" />
    <glyph glyph-name="ycircumflex" unicode="&#x177;" horiz-adv-x="507" 
d="M126 -180h-6q-30 0 -47.5 16.5t-17.5 42.5q0 27 17.5 43t47.5 17q43 1 59 49l13 36l-155 367q-7 17 -7 33q0 28 20 47t49 19q46 0 65 -49l93 -247h2l86 247q17 49 64 49q29 0 48.5 -19t19.5 -47q0 -16 -7 -33l-173 -433q-31 -78 -68.5 -108t-102.5 -30zM354 538
q-21 0 -39 18l-59 57h-2l-59 -57q-18 -18 -39 -18q-17 0 -29.5 11.5t-12.5 28.5q0 16 12 30l64 74q31 36 65 36t65 -36l64 -74q12 -14 12 -30q0 -17 -12.5 -28.5t-29.5 -11.5z" />
    <glyph glyph-name="Ydieresis" unicode="&#x178;" horiz-adv-x="567" 
d="M283 -6q-31 0 -52 21.5t-21 56.5v198l-174 310q-11 20 -11 40q0 28 20 47t49 19q41 0 65 -44l124 -233h3l125 233q23 44 65 44q29 0 48 -18.5t19 -47.5q0 -20 -11 -40l-175 -310v-198q0 -36 -20.5 -57t-53.5 -21zM384 748q-30 0 -51 20.5t-21 50.5t21 50.5t51 20.5
q29 0 50 -20.5t21 -50.5t-21 -50.5t-50 -20.5zM183 748q-30 0 -51 20.5t-21 50.5t21 50.5t51 20.5q29 0 50 -20.5t21 -50.5t-21 -50.5t-50 -20.5z" />
    <glyph glyph-name="Zacute" unicode="&#x179;" horiz-adv-x="546" 
d="M442 0h-331q-36 0 -56.5 20t-20.5 50q0 25 10 47t37 61l250 369v2h-216q-32 0 -51 18t-19 47t19 47.5t51 18.5h320q37 0 57 -20t20 -50q0 -23 -8.5 -43.5t-34.5 -58.5l-254 -375v-2h227q33 0 51.5 -18.5t18.5 -47.5t-18.5 -47t-51.5 -18zM316 761q-19 -22 -47 -22
q-20 0 -35 14t-15 35q0 27 17 45l51 57q20 21 46 21q22 0 37.5 -14t15.5 -36q0 -27 -17 -44z" />
    <glyph glyph-name="zacute" unicode="&#x17a;" horiz-adv-x="478" 
d="M386 0h-293q-29 0 -46 16t-17 44q0 35 45 86l196 219v2h-164q-30 0 -46.5 16t-16.5 42q0 27 16.5 43t46.5 16h279q28 0 45 -16t17 -44q0 -37 -44 -87l-195 -218v-2h177q29 0 45.5 -16t16.5 -43q0 -26 -16.5 -42t-45.5 -16zM293 565q-19 -25 -47 -25q-22 0 -37 13.5
t-15 35.5q0 21 13 41l43 61q18 24 47 24q21 0 37 -14.5t16 -36.5t-13 -40z" />
    <glyph glyph-name="Zdotaccent" unicode="&#x17b;" horiz-adv-x="546" 
d="M442 0h-331q-36 0 -56.5 20t-20.5 50q0 25 10 47t37 61l250 369v2h-216q-32 0 -51 18t-19 47t19 47.5t51 18.5h320q37 0 57 -20t20 -50q0 -23 -8.5 -43.5t-34.5 -58.5l-254 -375v-2h227q33 0 51.5 -18.5t18.5 -47.5t-18.5 -47t-51.5 -18zM275 737q-33 0 -56 23t-23 56
t23 56t56 23t56 -23t23 -56t-23 -56t-56 -23z" />
    <glyph glyph-name="zdotaccent" unicode="&#x17c;" horiz-adv-x="478" 
d="M386 0h-293q-29 0 -46 16t-17 44q0 35 45 86l196 219v2h-164q-30 0 -46.5 16t-16.5 42q0 27 16.5 43t46.5 16h279q28 0 45 -16t17 -44q0 -37 -44 -87l-195 -218v-2h177q29 0 45.5 -16t16.5 -43q0 -26 -16.5 -42t-45.5 -16zM244 533q-33 0 -56 23t-23 56t23 56t56 23
t56 -23t23 -56t-23 -56t-56 -23z" />
    <glyph glyph-name="Zcaron" unicode="&#x17d;" horiz-adv-x="546" 
d="M442 0h-331q-36 0 -56.5 20t-20.5 50q0 25 10 47t37 61l250 369v2h-216q-32 0 -51 18t-19 47t19 47.5t51 18.5h320q37 0 57 -20t20 -50q0 -23 -8.5 -43.5t-34.5 -58.5l-254 -375v-2h227q33 0 51.5 -18.5t18.5 -47.5t-18.5 -47t-51.5 -18zM275 727q-34 0 -65 36l-64 74
q-12 13 -12 30t12.5 28.5t29.5 11.5q21 0 39 -18l59 -57h2l59 57q18 18 39 18q17 0 29.5 -11.5t12.5 -28.5t-12 -30l-64 -74q-31 -36 -65 -36z" />
    <glyph glyph-name="zcaron" unicode="&#x17e;" horiz-adv-x="478" 
d="M386 0h-293q-29 0 -46 16t-17 44q0 35 45 86l196 219v2h-164q-30 0 -46.5 16t-16.5 42q0 27 16.5 43t46.5 16h279q28 0 45 -16t17 -44q0 -37 -44 -87l-195 -218v-2h177q29 0 45.5 -16t16.5 -43q0 -26 -16.5 -42t-45.5 -16zM245 531q-34 0 -65 36l-64 74q-12 13 -12 30
t12.5 28.5t29.5 11.5q21 0 39 -18l59 -57h2l59 57q18 18 39 18q17 0 29.5 -11.5t12.5 -28.5t-12 -30l-64 -74q-31 -36 -65 -36z" />
    <glyph glyph-name="florin" unicode="&#x192;" horiz-adv-x="536" 
d="M403 313h-57l-49 -325q-13 -90 -57 -129t-130 -39h-6q-29 0 -46 16t-17 42q0 27 16.5 43t46.5 16q48 0 56 56l49 320h-20q-27 0 -42 14t-15 38t15 38t42 14h36l15 95q14 90 57.5 129t129.5 39h6q29 0 45.5 -16t16.5 -42q0 -27 -16.5 -43t-45.5 -16q-49 0 -57 -56l-14 -90
h41q26 0 41 -14t15 -38t-15 -38t-41 -14z" />
    <glyph glyph-name="Aringacute" unicode="&#x1fa;" horiz-adv-x="644" 
d="M372 775q-18 -15 -38 -15q-21 0 -36.5 14.5t-15.5 36.5q0 25 24 46l46 40q16 15 38 15q21 0 36.5 -14.5t15.5 -36.5q0 -26 -26 -48zM540 -6q-52 0 -69 52l-28 83h-243l-27 -83q-17 -52 -69 -52q-29 0 -50 19.5t-21 49.5q0 15 5 28l161 447q9 28 32 39q-17 26 -17 60
q0 46 30.5 76t76.5 30q47 0 77.5 -30t30.5 -76q0 -32 -16 -59q23 -10 34 -41l159 -446q5 -13 5 -28q0 -30 -21 -49.5t-50 -19.5zM321 589q21 0 34 13.5t13 34.5t-13 34.5t-34 13.5q-20 0 -33 -13.5t-13 -34.5t13 -34.5t33 -13.5zM321 491l-79 -237h160l-78 237h-3z" />
    <glyph glyph-name="aringacute" unicode="&#x1fb;" horiz-adv-x="528" 
d="M320 775q-18 -15 -38 -15q-21 0 -36.5 14.5t-15.5 36.5q0 25 24 46l46 40q16 15 38 15q21 0 36.5 -14.5t15.5 -36.5q0 -26 -26 -48zM491 100q12 -19 12 -41q0 -28 -20.5 -46.5t-49.5 -18.5q-37 0 -57 27l-12 17h-1q-40 -49 -137 -49q-91 0 -137.5 39t-46.5 109
q0 78 53.5 117t146.5 39h87q6 0 6 6v5q0 72 -99 72q-42 0 -78 -14q-21 -7 -33 -7q-25 0 -40.5 15.5t-15.5 40.5q0 38 36 56q56 28 148 28q107 0 161.5 -51t54.5 -144v-132q0 -31 9 -46zM245 94q90 0 90 67v33q0 6 -6 6h-68q-86 0 -86 -55q0 -51 70 -51zM266 524
q-47 0 -77.5 30.5t-30.5 76.5t30.5 76.5t77.5 30.5t77.5 -30.5t30.5 -76.5t-30.5 -76.5t-77.5 -30.5zM266 583q20 0 33 13.5t13 34.5t-13 34.5t-33 13.5t-33 -13.5t-13 -34.5t13 -34.5t33 -13.5z" />
    <glyph glyph-name="AEacute" unicode="&#x1fc;" horiz-adv-x="925" 
d="M819 0h-330q-29 0 -46.5 17.5t-17.5 46.5v59q0 6 -6 6h-202l-43 -88q-23 -47 -69 -47q-30 0 -51.5 19t-21.5 50q0 19 11 43l257 507q34 67 107 67h412q30 0 49 -18t19 -46t-19 -46t-49 -18h-240q-6 0 -6 -6v-134q0 -6 6 -6h192q30 0 48.5 -17.5t18.5 -45.5t-18.5 -45.5
t-48.5 -17.5h-192q-6 0 -6 -6v-140q0 -6 6 -6h240q30 0 49 -18t19 -46t-19 -46t-49 -18zM422 552l-145 -298h142q6 0 6 6v292h-3zM512 761q-19 -22 -47 -22q-20 0 -35 14t-15 35q0 27 17 45l51 57q20 21 46 21q22 0 37.5 -14t15.5 -36q0 -27 -17 -44z" />
    <glyph glyph-name="aeacute" unicode="&#x1fd;" horiz-adv-x="816" 
d="M560 -11q-108 0 -167 59h-1q-34 -33 -72 -46t-94 -13q-91 0 -137.5 39t-46.5 109q0 78 53.5 117t146.5 39h87q6 0 6 6v5q0 72 -99 72q-42 0 -78 -14q-21 -7 -33 -7q-25 0 -40.5 15.5t-15.5 40.5q0 38 36 56q56 28 148 28q101 0 154 -45h1q55 45 144 45q80 0 134 -35.5
t75 -100.5q16 -49 16 -113q0 -21 -12.5 -33.5t-33.5 -12.5h-257q-6 0 -6 -6q0 -13 5 -28q20 -63 100 -63q45 0 91 25q26 15 48 15t36.5 -15t14.5 -37q0 -31 -28 -50q-75 -52 -175 -52zM474 293h159q6 0 6 6q0 19 -5 36q-17 53 -81 53q-63 0 -80 -53q-5 -17 -5 -36q0 -6 6 -6
zM245 94q90 0 90 67v33q0 6 -6 6h-68q-86 0 -86 -55q0 -51 70 -51zM466 565q-19 -25 -47 -25q-22 0 -37 13.5t-15 35.5q0 21 13 41l43 61q18 24 47 24q21 0 37 -14.5t16 -36.5t-13 -40z" />
    <glyph glyph-name="Oslashacute" unicode="&#x1fe;" horiz-adv-x="628" 
d="M142 -13q-14 -23 -37 -23q-16 0 -27.5 11t-11.5 28q0 13 8 26l31 50q-27 35 -39 75q-19 61 -19 186t19 186q26 81 91.5 123t156.5 42q86 0 148 -37l24 39q14 23 37 23q16 0 27.5 -11t11.5 -28q0 -13 -8 -26l-31 -51q24 -31 39 -74q19 -61 19 -186t-19 -186
q-26 -81 -91.5 -123t-156.5 -42q-86 0 -148 36zM194 340q0 -84 4 -116l190 315q-29 23 -74 23q-85 0 -109 -74q-11 -34 -11 -148zM314 118q85 0 109 74q11 34 11 148q0 82 -4 114l-189 -314q28 -22 73 -22zM364 761q-19 -22 -47 -22q-20 0 -35 14t-15 35q0 27 17 45l51 57
q20 21 46 21q22 0 37.5 -14t15.5 -36q0 -27 -17 -44z" />
    <glyph glyph-name="oslashacute" unicode="&#x1ff;" horiz-adv-x="530" 
d="M84 -36q-12 0 -20.5 8t-8.5 20t9 24l30 41q-25 28 -39 71q-16 51 -16 114t16 114q22 67 76.5 103t133.5 36q72 0 122 -29l29 39q12 16 28 16q12 0 20.5 -8t8.5 -20t-9 -24l-30 -41q28 -31 41 -72q16 -51 16 -114t-16 -114q-22 -67 -76.5 -103t-133.5 -36q-74 0 -125 30
l-28 -39q-12 -16 -28 -16zM179 242q0 -41 4 -66l130 188q-20 14 -48 14q-60 0 -77 -54q-9 -27 -9 -82zM265 106q60 0 77 54q9 27 9 82q0 35 -5 65l-129 -188q19 -13 48 -13zM318 565q-19 -25 -47 -25q-22 0 -37 13.5t-15 35.5q0 21 13 41l43 61q18 24 47 24q21 0 37 -14.5
t16 -36.5t-13 -40z" />
    <glyph glyph-name="Scommaaccent" unicode="&#x218;" horiz-adv-x="595" 
d="M291 -11q-121 0 -214 58q-35 23 -35 62q0 27 19 46t47 19q22 0 43 -12q79 -44 146 -44q53 0 82 22t29 58q0 32 -23.5 50t-81.5 26l-36 5q-215 29 -215 204q0 94 65.5 151t175.5 57q118 0 190 -45q35 -22 35 -59q0 -28 -18.5 -46t-45.5 -18q-21 0 -43 11q-58 28 -117 28
q-44 0 -68 -20t-24 -53q0 -60 106 -75l36 -5q107 -15 160.5 -65t53.5 -141q0 -96 -69 -155t-198 -59zM329 -194q-16 -47 -55 -47q-26 0 -43 15t-17 41q0 12 5 27l22 69q15 47 55 47q26 0 43 -15t17 -41q0 -12 -5 -27z" />
    <glyph glyph-name="scommaaccent" unicode="&#x219;" horiz-adv-x="505" 
d="M250 -11q-103 0 -177 46q-34 21 -34 56q0 23 17 39.5t41 16.5q18 0 41 -13q61 -35 119 -35q75 0 75 45q0 18 -14.5 27.5t-55.5 13.5l-53 6q-158 18 -158 148q0 72 53 114t147 42q85 0 147 -32q41 -21 41 -55q0 -24 -15.5 -39.5t-39.5 -15.5q-15 0 -40 12q-45 21 -98 21
q-61 0 -61 -38q0 -18 14 -27t53 -13l53 -6q161 -18 161 -147q0 -75 -57.5 -120.5t-158.5 -45.5zM285 -194q-16 -47 -55 -47q-26 0 -43 15t-17 41q0 12 5 27l22 69q15 47 55 47q26 0 43 -15t17 -41q0 -12 -5 -27z" />
    <glyph glyph-name="uni021A" unicode="&#x21a;" horiz-adv-x="559" 
d="M279 -6q-32 0 -52.5 21.5t-20.5 56.5v471q0 6 -6 6h-115q-33 0 -53.5 18t-20.5 47t20 47.5t54 18.5h389q34 0 54 -18.5t20 -47.5t-20.5 -47t-53.5 -18h-115q-6 0 -6 -6v-471q0 -35 -20.5 -56.5t-53.5 -21.5zM306 -194q-16 -47 -55 -47q-26 0 -43 15t-17 41q0 12 5 27
l22 69q15 47 55 47q26 0 43 -15t17 -41q0 -12 -5 -27z" />
    <glyph glyph-name="uni021B" unicode="&#x21b;" horiz-adv-x="331" 
d="M234 -6h-6q-84 0 -119.5 39t-35.5 123v218q0 6 -7 6h-4q-27 0 -41.5 14t-14.5 38t14.5 38t41.5 14h4q7 0 7 6v72q0 34 19.5 54t50.5 20t50 -20t19 -54v-72q0 -6 6 -6h38q27 0 41.5 -14t14.5 -38t-14.5 -38t-41.5 -14h-38q-6 0 -6 -6v-214q0 -40 37 -44q31 -4 46.5 -21
t15.5 -41q0 -27 -19.5 -43.5t-57.5 -16.5zM211 -194q-16 -47 -55 -47q-26 0 -43 15t-17 41q0 12 5 27l22 69q15 47 55 47q26 0 43 -15t17 -41q0 -12 -5 -27z" />
    <glyph glyph-name="dotlessj" unicode="&#x237;" horiz-adv-x="266" 
d="M33 -180q-30 0 -46.5 16.5t-16.5 42.5q0 51 54 61q22 4 30.5 16t8.5 39v421q0 34 19.5 54t50.5 20t50.5 -20t19.5 -54v-420q0 -91 -42.5 -133.5t-127.5 -42.5z" />
    <glyph glyph-name="circumflex" unicode="&#x2c6;" horiz-adv-x="454" 
d="M326 538q-21 0 -39 18l-59 57h-2l-59 -57q-18 -18 -39 -18q-17 0 -29.5 11.5t-12.5 28.5q0 16 12 30l64 74q31 36 65 36t65 -36l64 -74q12 -14 12 -30q0 -17 -12.5 -28.5t-29.5 -11.5z" />
    <glyph glyph-name="caron" unicode="&#x2c7;" horiz-adv-x="454" 
d="M227 531q-34 0 -65 36l-64 74q-12 13 -12 30t12.5 28.5t29.5 11.5q21 0 39 -18l59 -57h2l59 57q18 18 39 18q17 0 29.5 -11.5t12.5 -28.5t-12 -30l-64 -74q-31 -36 -65 -36z" />
    <glyph glyph-name="uni02C9" unicode="&#x2c9;" horiz-adv-x="454" 
d="M334 769h-213q-25 0 -39 13.5t-14 35.5t14 36t39 14h213q24 0 38 -14t14 -36t-14 -35.5t-38 -13.5z" />
    <glyph glyph-name="breve" unicode="&#x2d8;" horiz-adv-x="454" 
d="M227 545q-63 0 -105.5 33.5t-42.5 81.5q0 18 10.5 29t27.5 11q16 0 24 -7t17 -23q20 -35 69 -35t69 35q9 16 17 23t24 7q17 0 27.5 -11t10.5 -29q0 -48 -42.5 -81.5t-105.5 -33.5z" />
    <glyph glyph-name="dotaccent" unicode="&#x2d9;" horiz-adv-x="454" 
d="M227 533q-33 0 -56 23t-23 56t23 56t56 23t56 -23t23 -56t-23 -56t-56 -23z" />
    <glyph glyph-name="ring" unicode="&#x2da;" horiz-adv-x="454" 
d="M227 524q-47 0 -77.5 30.5t-30.5 76.5t30.5 76.5t77.5 30.5t77.5 -30.5t30.5 -76.5t-30.5 -76.5t-77.5 -30.5zM227 583q20 0 33 13.5t13 34.5t-13 34.5t-33 13.5t-33 -13.5t-13 -34.5t13 -34.5t33 -13.5z" />
    <glyph glyph-name="ogonek" unicode="&#x2db;" horiz-adv-x="454" 
d="M236 -191q-49 0 -77.5 25.5t-28.5 68.5q0 56 60 97q14 10 27 10h102q5 0 5.5 -4t-3.5 -6q-82 -43 -82 -77q0 -18 16 -18q7 0 14 3q12 4 21 4q16 0 27.5 -12.5t11.5 -30.5q0 -30 -26 -44q-27 -16 -67 -16z" />
    <glyph glyph-name="tilde" unicode="&#x2dc;" horiz-adv-x="454" 
d="M287 553q-34 0 -70 22q-28 17 -43 17q-16 0 -33 -16q-18 -16 -36 -16q-19 0 -31 12t-12 30q0 20 14 39q41 50 91 50q34 0 70 -22q28 -17 43 -17q16 0 33 16q18 16 36 16q19 0 31 -12t12 -30q0 -20 -14 -39q-41 -50 -91 -50z" />
    <glyph glyph-name="hungarumlaut" unicode="&#x2dd;" horiz-adv-x="454" 
d="M338 567q-19 -31 -48 -31q-22 0 -37.5 14.5t-15.5 36.5q0 18 11 37l38 64q17 30 49 30q22 0 37.5 -14t15.5 -37q0 -17 -11 -36zM161 567q-19 -31 -48 -31q-22 0 -37.5 14.5t-15.5 36.5q0 18 11 37l38 64q17 30 49 30q22 0 37.5 -14t15.5 -37q0 -17 -11 -36z" />
    <glyph glyph-name="Delta" unicode="&#x394;" horiz-adv-x="644" 
d="M539 0h-435q-33 0 -51.5 16.5t-18.5 46.5q0 14 8 38l180 499q30 86 101 86q72 0 102 -86l177 -499q8 -24 8 -38q0 -30 -19 -46.5t-52 -16.5zM441 121q7 0 5 6l-122 365h-3l-124 -365q-1 -6 5 -6h239z" />
    <glyph glyph-name="Delta" unicode="&#x2206;" horiz-adv-x="644" 
d="M539 0h-435q-33 0 -51.5 16.5t-18.5 46.5q0 14 8 38l180 499q30 86 101 86q72 0 102 -86l177 -499q8 -24 8 -38q0 -30 -19 -46.5t-52 -16.5zM441 121q7 0 5 6l-122 365h-3l-124 -365q-1 -6 5 -6h239z" />
    <glyph glyph-name="Omega" unicode="&#x3a9;" horiz-adv-x="639" 
d="M529 0h-116q-30 0 -48 17.5t-18 44.5q0 23 9 40.5t36 42.5q49 47 49 195q0 105 -13 146q-23 73 -108 73t-108 -73q-14 -39 -14 -146q0 -147 50 -195q27 -25 36 -42.5t9 -40.5q0 -27 -18.5 -44.5t-48.5 -17.5h-115q-30 0 -48.5 17.5t-18.5 44.5q0 28 18.5 45.5t48.5 17.5
h12v2q-74 53 -74 213q0 127 20 187q28 82 93 123t158 41q194 0 250 -164q20 -60 20 -187q0 -161 -73 -213v-2h12q30 0 48 -17.5t18 -45.5q0 -27 -18 -44.5t-48 -17.5z" />
    <glyph glyph-name="Omega" unicode="&#x2126;" horiz-adv-x="639" 
d="M529 0h-116q-30 0 -48 17.5t-18 44.5q0 23 9 40.5t36 42.5q49 47 49 195q0 105 -13 146q-23 73 -108 73t-108 -73q-14 -39 -14 -146q0 -147 50 -195q27 -25 36 -42.5t9 -40.5q0 -27 -18.5 -44.5t-48.5 -17.5h-115q-30 0 -48.5 17.5t-18.5 44.5q0 28 18.5 45.5t48.5 17.5
h12v2q-74 53 -74 213q0 127 20 187q28 82 93 123t158 41q194 0 250 -164q20 -60 20 -187q0 -161 -73 -213v-2h12q30 0 48 -17.5t18 -45.5q0 -27 -18 -44.5t-48 -17.5z" />
    <glyph glyph-name="pi" unicode="&#x3c0;" horiz-adv-x="598" 
d="M500 -6h-9q-70 0 -99.5 37t-29.5 116v210q0 6 -6 6h-118q-6 0 -6 -6v-289q0 -34 -19.5 -54t-50.5 -20t-50 20t-19 54v289q0 6 -6 6h-10q-30 0 -47.5 16.5t-17.5 43.5t17.5 44t47.5 17h439q30 0 48 -17t18 -44t-18 -43.5t-48 -16.5h-9q-6 0 -6 -6v-222q0 -17 17 -18
q28 -3 42.5 -20t14.5 -42q0 -61 -75 -61z" />
    <glyph glyph-name="Wgrave" unicode="&#x1e80;" horiz-adv-x="864" 
d="M615 -6q-31 0 -49.5 18t-30.5 59l-103 361h-2l-101 -361q-11 -41 -30 -59t-50 -18q-59 0 -80 77l-140 516q-4 18 -4 29q0 30 19.5 50t52.5 20q55 0 72 -68l89 -376h2l103 381q18 63 69 63q52 0 70 -63l106 -381h2l86 376q15 68 72 68q32 0 51.5 -19.5t19.5 -50.5
q0 -11 -4 -29l-140 -516q-21 -77 -80 -77zM368 761l-53 56q-17 17 -17 44q0 22 15.5 36t37.5 14q26 0 46 -21l49 -55q19 -21 19 -47q0 -21 -15 -35t-35 -14q-28 0 -47 22z" />
    <glyph glyph-name="wgrave" unicode="&#x1e81;" horiz-adv-x="765" 
d="M532 -6q-60 0 -79 65l-69 232h-2l-70 -232q-21 -65 -77 -65q-57 0 -79 65l-113 335q-5 17 -5 29q0 29 19.5 48t48.5 19q50 0 67 -59l70 -245h2l69 244q18 60 69 60q50 0 68 -60l73 -244h2l67 245q17 59 67 59q29 0 48 -19t19 -48q0 -12 -5 -29l-113 -335q-22 -65 -77 -65
zM365 540q-28 0 -47 25l-44 59q-13 18 -13 40t16 36.5t37 14.5q29 0 47 -24l43 -61q13 -20 13 -41q0 -22 -15 -35.5t-37 -13.5z" />
    <glyph glyph-name="Wacute" unicode="&#x1e82;" horiz-adv-x="864" 
d="M615 -6q-31 0 -49.5 18t-30.5 59l-103 361h-2l-101 -361q-11 -41 -30 -59t-50 -18q-59 0 -80 77l-140 516q-4 18 -4 29q0 30 19.5 50t52.5 20q55 0 72 -68l89 -376h2l103 381q18 63 69 63q52 0 70 -63l106 -381h2l86 376q15 68 72 68q32 0 51.5 -19.5t19.5 -50.5
q0 -11 -4 -29l-140 -516q-21 -77 -80 -77zM494 761q-19 -22 -47 -22q-20 0 -35 14t-15 35q0 27 17 45l51 57q20 21 46 21q22 0 37.5 -14t15.5 -36q0 -27 -17 -44z" />
    <glyph glyph-name="wacute" unicode="&#x1e83;" horiz-adv-x="765" 
d="M532 -6q-60 0 -79 65l-69 232h-2l-70 -232q-21 -65 -77 -65q-57 0 -79 65l-113 335q-5 17 -5 29q0 29 19.5 48t48.5 19q50 0 67 -59l70 -245h2l69 244q18 60 69 60q50 0 68 -60l73 -244h2l67 245q17 59 67 59q29 0 48 -19t19 -48q0 -12 -5 -29l-113 -335q-22 -65 -77 -65
zM445 565q-19 -25 -47 -25q-22 0 -37 13.5t-15 35.5q0 21 13 41l43 61q18 24 47 24q21 0 37 -14.5t16 -36.5t-13 -40z" />
    <glyph glyph-name="Wdieresis" unicode="&#x1e84;" horiz-adv-x="864" 
d="M615 -6q-31 0 -49.5 18t-30.5 59l-103 361h-2l-101 -361q-11 -41 -30 -59t-50 -18q-59 0 -80 77l-140 516q-4 18 -4 29q0 30 19.5 50t52.5 20q55 0 72 -68l89 -376h2l103 381q18 63 69 63q52 0 70 -63l106 -381h2l86 376q15 68 72 68q32 0 51.5 -19.5t19.5 -50.5
q0 -11 -4 -29l-140 -516q-21 -77 -80 -77zM533 748q-30 0 -51 20.5t-21 50.5t21 50.5t51 20.5q29 0 50 -20.5t21 -50.5t-21 -50.5t-50 -20.5zM332 748q-30 0 -51 20.5t-21 50.5t21 50.5t51 20.5q29 0 50 -20.5t21 -50.5t-21 -50.5t-50 -20.5z" />
    <glyph glyph-name="wdieresis" unicode="&#x1e85;" horiz-adv-x="765" 
d="M532 -6q-60 0 -79 65l-69 232h-2l-70 -232q-21 -65 -77 -65q-57 0 -79 65l-113 335q-5 17 -5 29q0 29 19.5 48t48.5 19q50 0 67 -59l70 -245h2l69 244q18 60 69 60q50 0 68 -60l73 -244h2l67 245q17 59 67 59q29 0 48 -19t19 -48q0 -12 -5 -29l-113 -335q-22 -65 -77 -65
zM484 543q-30 0 -51 21t-21 51q0 29 21 50t51 21q29 0 50 -21t21 -50q0 -30 -21 -51t-50 -21zM283 543q-30 0 -51 21t-21 51q0 29 21 50t51 21q29 0 50 -21t21 -50q0 -30 -21 -51t-50 -21z" />
    <glyph glyph-name="Ygrave" unicode="&#x1ef2;" horiz-adv-x="567" 
d="M283 -6q-31 0 -52 21.5t-21 56.5v198l-174 310q-11 20 -11 40q0 28 20 47t49 19q41 0 65 -44l124 -233h3l125 233q23 44 65 44q29 0 48 -18.5t19 -47.5q0 -20 -11 -40l-175 -310v-198q0 -36 -20.5 -57t-53.5 -21zM239 761l-53 56q-17 17 -17 44q0 22 15.5 36t37.5 14
q26 0 46 -21l49 -55q19 -21 19 -47q0 -21 -15 -35t-35 -14q-28 0 -47 22z" />
    <glyph glyph-name="ygrave" unicode="&#x1ef3;" horiz-adv-x="507" 
d="M126 -180h-6q-30 0 -47.5 16.5t-17.5 42.5q0 27 17.5 43t47.5 17q43 1 59 49l13 36l-155 367q-7 17 -7 33q0 28 20 47t49 19q46 0 65 -49l93 -247h2l86 247q17 49 64 49q29 0 48.5 -19t19.5 -47q0 -16 -7 -33l-173 -433q-31 -78 -68.5 -108t-102.5 -30zM251 540
q-28 0 -47 25l-44 59q-13 18 -13 40t16 36.5t37 14.5q29 0 47 -24l43 -61q13 -20 13 -41q0 -22 -15 -35.5t-37 -13.5z" />
    <glyph glyph-name="endash" unicode="&#x2013;" horiz-adv-x="535" 
d="M458 206h-381q-29 0 -46 16t-17 43t17 43t46 16h381q29 0 46 -16t17 -43t-17 -43t-46 -16z" />
    <glyph glyph-name="emdash" unicode="&#x2014;" horiz-adv-x="894" 
d="M816 206h-739q-30 0 -46.5 16t-16.5 43t16.5 43t46.5 16h739q30 0 47 -16t17 -43t-17 -43t-47 -16z" />
    <glyph glyph-name="quoteleft" unicode="&#x2018;" horiz-adv-x="231" 
d="M165 506q-15 -46 -58 -46q-27 0 -44 17t-17 43q0 10 4 24l30 96q15 46 58 46q27 0 44 -17t17 -43q0 -10 -4 -24z" />
    <glyph glyph-name="quoteright" unicode="&#x2019;" horiz-adv-x="231" 
d="M165 506q-15 -46 -58 -46q-27 0 -44 17t-17 43q0 10 4 24l30 96q15 46 58 46q27 0 44 -17t17 -43q0 -10 -4 -24z" />
    <glyph glyph-name="quotesinglbase" unicode="&#x201a;" horiz-adv-x="231" 
d="M165 -68q-15 -46 -58 -46q-27 0 -44 17t-17 43q0 10 4 24l30 96q15 46 58 46q27 0 44 -17t17 -43q0 -10 -4 -24z" />
    <glyph glyph-name="quotedblleft" unicode="&#x201c;" horiz-adv-x="416" 
d="M350 506q-15 -46 -58 -46q-27 0 -44 17t-17 43q0 10 4 24l30 96q15 46 58 46q27 0 44 -17t17 -43q0 -10 -4 -24zM165 506q-15 -46 -58 -46q-27 0 -44 17t-17 43q0 10 4 24l30 96q15 46 58 46q27 0 44 -17t17 -43q0 -10 -4 -24z" />
    <glyph glyph-name="quotedblright" unicode="&#x201d;" horiz-adv-x="416" 
d="M350 506q-15 -46 -58 -46q-27 0 -44 17t-17 43q0 10 4 24l30 96q15 46 58 46q27 0 44 -17t17 -43q0 -10 -4 -24zM165 506q-15 -46 -58 -46q-27 0 -44 17t-17 43q0 10 4 24l30 96q15 46 58 46q27 0 44 -17t17 -43q0 -10 -4 -24z" />
    <glyph glyph-name="quotedblbase" unicode="&#x201e;" horiz-adv-x="416" 
d="M350 -68q-15 -46 -58 -46q-27 0 -44 17t-17 43q0 10 4 24l30 96q15 46 58 46q27 0 44 -17t17 -43q0 -10 -4 -24zM165 -68q-15 -46 -58 -46q-27 0 -44 17t-17 43q0 10 4 24l30 96q15 46 58 46q27 0 44 -17t17 -43q0 -10 -4 -24z" />
    <glyph glyph-name="dagger" unicode="&#x2020;" horiz-adv-x="548" 
d="M274 -186q-30 0 -49 19.5t-19 52.5v447q0 6 -6 6h-95q-30 0 -47.5 17t-17.5 44t17.5 44t47.5 17h95q6 0 6 6v147q0 33 19 52.5t49 19.5t49 -19.5t19 -52.5v-147q0 -6 6 -6h95q30 0 47.5 -17t17.5 -44t-17.5 -44t-47.5 -17h-95q-6 0 -6 -6v-447q0 -33 -19 -52.5t-49 -19.5
z" />
    <glyph glyph-name="daggerdbl" unicode="&#x2021;" horiz-adv-x="548" 
d="M274 -186q-30 0 -49 19.5t-19 52.5v114q0 6 -6 6h-95q-30 0 -47.5 17t-17.5 44t17.5 44t47.5 17h95q6 0 6 6v232q0 6 -6 6h-95q-30 0 -47.5 17t-17.5 44t17.5 44t47.5 17h95q6 0 6 6v114q0 33 19 52.5t49 19.5t49 -19.5t19 -52.5v-114q0 -6 6 -6h95q30 0 47.5 -17
t17.5 -44t-17.5 -44t-47.5 -17h-95q-6 0 -6 -6v-232q0 -6 6 -6h95q30 0 47.5 -17t17.5 -44t-17.5 -44t-47.5 -17h-95q-6 0 -6 -6v-114q0 -33 -19 -52.5t-49 -19.5z" />
    <glyph glyph-name="bullet" unicode="&#x2022;" horiz-adv-x="475" 
d="M237 158q-65 0 -107.5 42.5t-42.5 107.5q0 66 42.5 108.5t107.5 42.5q66 0 108.5 -42.5t42.5 -108.5q0 -65 -42.5 -107.5t-108.5 -42.5z" />
    <glyph glyph-name="ellipsis" unicode="&#x2026;" horiz-adv-x="780" 
d="M650 -11q-34 0 -58 24t-24 58t24 58t58 24t58 -24t24 -58t-24 -58t-58 -24zM390 -11q-34 0 -58 24t-24 58t24 58t58 24t58 -24t24 -58t-24 -58t-58 -24zM130 -11q-34 0 -58 24t-24 58t24 58t58 24t58 -24t24 -58t-24 -58t-58 -24z" />
    <glyph glyph-name="perthousand" unicode="&#x2030;" horiz-adv-x="1137" 
d="M226 -17q-19 0 -31 12.5t-12 31.5q0 14 8 28l354 613q16 28 44 28q19 0 31 -12.5t12 -31.5q0 -14 -8 -28l-354 -613q-16 -28 -44 -28zM198 330q-101 0 -128 83q-10 31 -10 96t10 96q27 83 128 83t128 -83q10 -31 10 -96t-10 -96q-27 -83 -128 -83zM198 408q27 0 35 25
q5 15 5 76t-5 76q-8 25 -35 25t-35 -25q-5 -15 -5 -76t5 -76q8 -25 35 -25zM939 -9q-101 0 -128 83q-10 31 -10 96t10 96q27 83 128 83t128 -83q10 -31 10 -96t-10 -96q-27 -83 -128 -83zM617 -9q-101 0 -128 83q-10 31 -10 96t10 96q27 83 128 83t128 -83q10 -31 10 -96
t-10 -96q-27 -83 -128 -83zM939 69q27 0 35 25q5 15 5 76t-5 76q-8 25 -35 25t-35 -25q-5 -15 -5 -76t5 -76q8 -25 35 -25zM617 69q27 0 35 25q5 15 5 76t-5 76q-8 25 -35 25t-35 -25q-5 -15 -5 -76t5 -76q8 -25 35 -25z" />
    <glyph glyph-name="guilsinglleft" unicode="&#x2039;" horiz-adv-x="321" 
d="M233 63q-24 0 -43 19l-140 140q-22 22 -22 42t22 42l140 140q19 19 43 19q20 0 34 -13.5t14 -34.5q0 -23 -19 -42l-107 -106q-5 -5 0 -10l107 -106q19 -19 19 -42q0 -21 -14 -34.5t-34 -13.5z" />
    <glyph glyph-name="guilsinglright" unicode="&#x203a;" horiz-adv-x="321" 
d="M88 63q-20 0 -34 13.5t-14 34.5q0 23 19 42l107 106q5 5 0 10l-107 106q-19 19 -19 42q0 21 14 34.5t34 13.5q24 0 43 -19l140 -140q22 -22 22 -42t-22 -42l-140 -140q-19 -19 -43 -19z" />
    <glyph glyph-name="fraction" unicode="&#x2044;" horiz-adv-x="166" 
d="M-55 11q-16 -28 -44 -28q-19 0 -31 12.5t-12 31.5q0 14 8 28l355 613q16 28 44 28q19 0 31 -12.5t12 -31.5q0 -14 -8 -28z" />
    <glyph glyph-name="zero.superior" unicode="&#x2070;" horiz-adv-x="358" 
d="M180 422q-111 0 -140 90q-10 32 -10 121t10 121q29 90 140 90q109 0 138 -90q10 -32 10 -121t-10 -121q-29 -90 -138 -90zM179 509q29 0 37 26q4 11 4 98t-4 98q-8 26 -37 26t-37 -26q-4 -11 -4 -98t4 -98q8 -26 37 -26z" />
    <glyph glyph-name="four.superior" unicode="&#x2074;" horiz-adv-x="358" 
d="M249 424q-22 0 -36 13.5t-14 37.5v5q0 6 -6 6h-130q-22 0 -35 12t-13 32q0 26 18 66l96 211q16 36 49 36q21 0 35.5 -14t14.5 -36q0 -13 -6 -26l-90 -192v-1h61q6 0 6 6v33q0 24 14 38t36 14q21 0 35 -14t14 -38v-33q0 -6 6 -6q20 0 32.5 -12t12.5 -32t-12.5 -32
t-32.5 -12q-6 0 -6 -6v-5q0 -23 -14 -37t-35 -14z" />
    <glyph glyph-name="five.superior" unicode="&#x2075;" horiz-adv-x="358" 
d="M173 422q-78 0 -114 45q-15 18 -15 39q0 18 12.5 31t32.5 13q22 0 42 -20t42 -20q33 0 41 25q4 11 4 26q0 17 -4 28q-7 23 -37 23q-21 0 -36 -12q-20 -15 -48 -15q-23 0 -36 13.5t-13 37.5v155q0 45 45 45h180q22 0 35 -12.5t13 -32.5t-13 -31.5t-35 -11.5h-123
q-6 0 -6 -6v-59h1q24 15 60 15q91 0 113 -71q8 -23 8 -63q0 -32 -8 -58q-13 -40 -50 -62t-91 -22z" />
    <glyph glyph-name="six.superior" unicode="&#x2076;" horiz-adv-x="358" 
d="M179 422q-67 0 -109 37t-42 97q0 46 36 110l82 146q16 30 48 30q22 0 36.5 -13t14.5 -34q0 -15 -9 -30l-45 -81l1 -1q3 1 13 1q55 0 89.5 -35t34.5 -93q0 -60 -42 -97t-108 -37zM179 508q21 0 33.5 13t12.5 33t-12.5 33t-33.5 13t-34 -13t-13 -33t13 -33t34 -13z" />
    <glyph glyph-name="seven.superior" unicode="&#x2077;" horiz-adv-x="358" 
d="M204 458q-13 -34 -49 -34q-21 0 -35.5 13.5t-14.5 34.5q0 10 5 23l106 251v2h-73q-6 0 -6 -6v-5q0 -22 -13.5 -36t-35.5 -14t-36 14t-14 36v54q0 45 45 45h201q22 0 35 -12.5t13 -34.5q0 -24 -25 -84z" />
    <glyph glyph-name="eight.superior" unicode="&#x2078;" horiz-adv-x="358" 
d="M179 422q-66 0 -109 35.5t-43 93.5q0 57 46 91v1q-37 31 -37 77q0 51 38 87.5t105 36.5t105 -36.5t38 -87.5q0 -46 -37 -77v-1q46 -34 46 -91q0 -58 -43 -93.5t-109 -35.5zM179 680q18 0 29 11t11 28q0 18 -11 29t-29 11t-29 -11t-11 -29q0 -17 11 -28t29 -11zM179 508
q21 0 34.5 13.5t13.5 33.5t-13.5 33t-34.5 13t-34.5 -13t-13.5 -33t13.5 -33.5t34.5 -13.5z" />
    <glyph glyph-name="nine.superior" unicode="&#x2079;" horiz-adv-x="358" 
d="M163 424q-22 0 -36.5 13t-14.5 34q0 15 9 30l45 81l-1 1q-3 -1 -13 -1q-55 0 -89.5 35t-34.5 93q0 60 42 97t108 37q67 0 109 -37t42 -97q0 -46 -36 -110l-82 -146q-16 -30 -48 -30zM178 666q21 0 34 13t13 33t-12.5 33t-34.5 13q-21 0 -33.5 -13t-12.5 -33t12.5 -33
t33.5 -13z" />
    <glyph glyph-name="zero.inferior" unicode="&#x2080;" horiz-adv-x="358" 
d="M180 -164q-111 0 -140 90q-10 32 -10 121t10 121q29 90 140 90q109 0 138 -90q10 -32 10 -121t-10 -121q-29 -90 -138 -90zM179 -77q29 0 37 26q4 11 4 98t-4 98q-8 26 -37 26t-37 -26q-4 -11 -4 -98t4 -98q8 -26 37 -26z" />
    <glyph glyph-name="one.inferior" unicode="&#x2081;" horiz-adv-x="358" 
d="M204 -162q-24 0 -38.5 15.5t-14.5 41.5v241h-2l-23 -14q-15 -9 -32 -9q-19 0 -30.5 13t-11.5 32q0 27 24 42l53 33q37 23 69 23q59 0 59 -63v-298q0 -26 -14.5 -41.5t-38.5 -15.5z" />
    <glyph glyph-name="two.inferior" unicode="&#x2082;" horiz-adv-x="358" 
d="M278 -156h-194q-24 0 -37.5 13t-13.5 34q0 30 40 70l118 123q25 25 25 52q0 16 -10.5 25.5t-28.5 9.5q-25 0 -43 -27q-20 -29 -46 -29q-20 0 -33.5 12t-13.5 32q0 11 5 26q12 31 48.5 52t85.5 21q62 0 101 -33.5t39 -88.5q0 -56 -49 -105l-95 -97v-1h102q23 0 35.5 -12
t12.5 -32q0 -21 -12.5 -33t-35.5 -12z" />
    <glyph glyph-name="three.inferior" unicode="&#x2083;" horiz-adv-x="358" 
d="M179 -164q-46 0 -83 17t-49 47q-5 13 -5 22q0 19 13.5 32t34.5 13q25 0 47 -27q14 -17 40 -17q20 0 32 11.5t12 31.5q0 19 -13 30.5t-36 11.5q-21 0 -33 12t-12 31t12 31t33 12q17 0 28.5 10.5t11.5 27.5q0 18 -11 28.5t-29 10.5q-21 0 -36 -15q-25 -25 -45 -25
q-19 0 -32.5 11.5t-13.5 30.5q0 9 5 22q11 27 45 45t81 18q65 0 102.5 -32t37.5 -84q0 -50 -42 -82v-1q21 -9 36 -34t15 -60q0 -58 -40.5 -93.5t-105.5 -35.5z" />
    <glyph glyph-name="four.inferior" unicode="&#x2084;" horiz-adv-x="358" 
d="M249 -162q-22 0 -36 13.5t-14 37.5v5q0 6 -6 6h-130q-22 0 -35 12t-13 32q0 26 18 66l96 211q16 36 49 36q21 0 35.5 -14t14.5 -36q0 -13 -6 -26l-90 -192v-1h61q6 0 6 6v33q0 24 14 38t36 14q21 0 35 -14t14 -38v-33q0 -6 6 -6q20 0 32.5 -12t12.5 -32t-12.5 -32
t-32.5 -12q-6 0 -6 -6v-5q0 -23 -14 -37t-35 -14z" />
    <glyph glyph-name="five.inferior" unicode="&#x2085;" horiz-adv-x="358" 
d="M173 -164q-78 0 -114 45q-15 18 -15 39q0 18 12.5 31t32.5 13q22 0 42 -20t42 -20q33 0 41 25q4 11 4 26q0 17 -4 28q-7 23 -37 23q-21 0 -36 -12q-20 -15 -48 -15q-23 0 -36 13.5t-13 37.5v155q0 45 45 45h180q22 0 35 -12.5t13 -32.5t-13 -31.5t-35 -11.5h-123
q-6 0 -6 -6v-59h1q24 15 60 15q91 0 113 -71q8 -23 8 -63q0 -32 -8 -58q-13 -40 -50 -62t-91 -22z" />
    <glyph glyph-name="six.inferior" unicode="&#x2086;" horiz-adv-x="358" 
d="M179 -164q-67 0 -109 37t-42 97q0 46 36 110l82 146q16 30 48 30q22 0 36.5 -13t14.5 -34q0 -15 -9 -30l-45 -81l1 -1q3 1 13 1q55 0 89.5 -35t34.5 -93q0 -60 -42 -97t-108 -37zM179 -78q21 0 33.5 13t12.5 33t-12.5 33t-33.5 13t-34 -13t-13 -33t13 -33t34 -13z" />
    <glyph glyph-name="seven.inferior" unicode="&#x2087;" horiz-adv-x="358" 
d="M204 -128q-13 -34 -49 -34q-21 0 -35.5 13.5t-14.5 34.5q0 10 5 23l106 251v2h-73q-6 0 -6 -6v-5q0 -22 -13.5 -36t-35.5 -14t-36 14t-14 36v54q0 45 45 45h201q22 0 35 -12.5t13 -34.5q0 -24 -25 -84z" />
    <glyph glyph-name="eight.inferior" unicode="&#x2088;" horiz-adv-x="358" 
d="M179 -164q-66 0 -109 35.5t-43 93.5q0 56 46 91v1q-37 31 -37 77q0 51 38 87.5t105 36.5t105 -36.5t38 -87.5q0 -46 -37 -77v-1q46 -35 46 -91q0 -58 -43 -93.5t-109 -35.5zM179 94q18 0 29 11t11 28q0 18 -11 29t-29 11t-29 -11t-11 -29q0 -17 11 -28t29 -11zM179 -78
q21 0 34.5 13.5t13.5 33.5t-13.5 33t-34.5 13t-34.5 -13t-13.5 -33t13.5 -33.5t34.5 -13.5z" />
    <glyph glyph-name="nine.inferior" unicode="&#x2089;" horiz-adv-x="358" 
d="M163 -162q-22 0 -36.5 13t-14.5 34q0 15 9 30l45 81l-1 1q-3 -1 -13 -1q-55 0 -89.5 35t-34.5 93q0 60 42 97t108 37q67 0 109 -37t42 -97q0 -46 -36 -110l-82 -146q-16 -30 -48 -30zM178 80q21 0 34 13t13 33t-12.5 33t-34.5 13q-21 0 -33.5 -13t-12.5 -33t12.5 -33
t33.5 -13z" />
    <glyph glyph-name="Euro" unicode="&#x20ac;" 
d="M328 -11q-81 0 -136.5 37t-77.5 107q-13 44 -13 98q0 6 -6 6h-16q-21 0 -33 11.5t-12 29.5t12 29.5t33 11.5h16q6 0 6 6v34q0 6 -6 6h-16q-21 0 -33 11.5t-12 29.5t12 29.5t33 11.5h16q6 0 6 6q0 50 13 94q22 70 77.5 107t136.5 37q67 0 119 -31t67 -70q5 -11 5 -27
q0 -24 -17 -40.5t-42 -16.5q-31 0 -57 32q-27 34 -74 34q-59 0 -78 -57q-8 -24 -8 -62q0 -6 6 -6h148q21 0 32.5 -11.5t11.5 -29.5t-11.5 -29.5t-32.5 -11.5h-148q-6 0 -6 -6v-34q0 -6 6 -6h108q21 0 32.5 -11.5t11.5 -29.5t-11.5 -29.5t-32.5 -11.5h-108q-6 0 -6 -6
q0 -42 8 -66q19 -57 78 -57q47 0 74 34q26 32 57 32q25 0 42 -16.5t17 -40.5q0 -16 -5 -27q-15 -39 -67 -70t-119 -31z" />
    <glyph glyph-name="afii61289" unicode="&#x2113;" horiz-adv-x="461" 
d="M116 160q-15 -12 -34 -12q-20 0 -33.5 13t-13.5 35q0 27 25 45l59 44v190q0 103 40.5 159.5t120.5 56.5q64 0 103 -40.5t39 -111.5q0 -145 -175 -298v-87q0 -52 41 -52q19 0 39 12q17 10 32 10q20 0 33 -13.5t13 -33.5q0 -25 -21 -43q-53 -45 -124 -45q-141 0 -141 162
v11zM247 496v-116q69 77 69 160q0 53 -31 53q-19 0 -28.5 -20.5t-9.5 -76.5z" />
    <glyph glyph-name="trademark" unicode="&#x2122;" horiz-adv-x="846" 
d="M750 280q-20 0 -32.5 13t-12.5 34v164h-2l-57 -127q-13 -28 -41 -28q-29 0 -42 28l-58 127h-2v-164q0 -21 -12.5 -34t-31.5 -13q-20 0 -32.5 13t-12.5 34v308q0 23 13.5 37t35.5 14q36 0 53 -38l88 -194h4l85 194q17 38 52 38q22 0 35.5 -14t13.5 -37v-308q0 -21 -12 -34
t-32 -13zM198 280q-21 0 -35 14t-14 37v258q0 6 -6 6h-66q-21 0 -33 12t-12 30q0 19 12 31t33 12h242q21 0 33 -12t12 -31q0 -18 -12 -30t-33 -12h-67q-6 0 -6 -6v-258q0 -23 -13.5 -37t-34.5 -14z" />
    <glyph glyph-name="estimated" unicode="&#x212e;" horiz-adv-x="586" 
d="M292 -11q-105 0 -170.5 73.5t-65.5 180.5q0 108 65.5 180t170.5 72q106 0 171.5 -70t66.5 -182h-370v-167q52 -52 132 -52q112 0 176 110l33 -21q-44 -66 -91 -95t-118 -29zM426 276v133q-59 56 -134 56q-79 0 -132 -56v-133h266z" />
    <glyph glyph-name="onethird" unicode="&#x2153;" horiz-adv-x="917" 
d="M226 268q-24 0 -38.5 15.5t-14.5 41.5v241h-2l-23 -14q-15 -9 -32 -9q-19 0 -30.5 13t-11.5 32q0 27 24 42l53 33q37 23 69 23q59 0 59 -63v-298q0 -26 -14.5 -41.5t-38.5 -15.5zM295 11q-16 -28 -44 -28q-19 0 -31 12.5t-12 31.5q0 14 8 28l355 613q16 28 44 28
q19 0 31 -12.5t12 -31.5q0 -14 -8 -28zM694 -8q-46 0 -83 17t-49 47q-5 13 -5 22q0 19 13.5 32t34.5 13q25 0 47 -27q14 -17 40 -17q20 0 32 11.5t12 31.5q0 19 -13 30.5t-36 11.5q-21 0 -33 12t-12 31t12 31t33 12q17 0 28.5 10.5t11.5 27.5q0 18 -11 28.5t-29 10.5
q-21 0 -36 -15q-25 -25 -45 -25q-19 0 -32.5 11.5t-13.5 30.5q0 9 5 22q11 27 45 45t81 18q65 0 102.5 -32t37.5 -84q0 -50 -42 -82v-1q21 -9 36 -34t15 -60q0 -58 -40.5 -93.5t-105.5 -35.5z" />
    <glyph glyph-name="twothirds" unicode="&#x2154;" horiz-adv-x="1015" 
d="M322 274h-194q-24 0 -37.5 13t-13.5 34q0 30 40 70l118 123q25 25 25 52q0 16 -10.5 25.5t-28.5 9.5q-25 0 -43 -27q-20 -29 -46 -29q-20 0 -33.5 12t-13.5 32q0 11 5 26q12 31 48.5 52t85.5 21q62 0 101 -33.5t39 -88.5q0 -56 -49 -105l-95 -97v-1h102q23 0 35.5 -12
t12.5 -32q0 -21 -12.5 -33t-35.5 -12zM378 11q-16 -28 -44 -28q-19 0 -31 12.5t-12 31.5q0 14 8 28l355 613q16 28 44 28q19 0 31 -12.5t12 -31.5q0 -14 -8 -28zM778 -8q-46 0 -83 17t-49 47q-5 13 -5 22q0 19 13.5 32t34.5 13q25 0 47 -27q14 -17 40 -17q20 0 32 11.5
t12 31.5q0 19 -13 30.5t-36 11.5q-21 0 -33 12t-12 31t12 31t33 12q17 0 28.5 10.5t11.5 27.5q0 18 -11 28.5t-29 10.5q-21 0 -36 -15q-25 -25 -45 -25q-19 0 -32.5 11.5t-13.5 30.5q0 9 5 22q11 27 45 45t81 18q65 0 102.5 -32t37.5 -84q0 -50 -42 -82v-1q21 -9 36 -34
t15 -60q0 -58 -40.5 -93.5t-105.5 -35.5z" />
    <glyph glyph-name="oneeighth" unicode="&#x215b;" horiz-adv-x="920" 
d="M226 268q-24 0 -38.5 15.5t-14.5 41.5v241h-2l-23 -14q-15 -9 -32 -9q-19 0 -30.5 13t-11.5 32q0 27 24 42l53 33q37 23 69 23q59 0 59 -63v-298q0 -26 -14.5 -41.5t-38.5 -15.5zM691 -8q-66 0 -109 35.5t-43 93.5q0 56 46 91v1q-37 31 -37 77q0 51 38 87.5t105 36.5
t105 -36.5t38 -87.5q0 -46 -37 -77v-1q46 -35 46 -91q0 -58 -43 -93.5t-109 -35.5zM691 250q18 0 29 11t11 28q0 18 -11 29t-29 11t-29 -11t-11 -29q0 -17 11 -28t29 -11zM691 78q21 0 34.5 13.5t13.5 33.5t-13.5 33t-34.5 13t-34.5 -13t-13.5 -33t13.5 -33.5t34.5 -13.5z
M295 11q-16 -28 -44 -28q-19 0 -31 12.5t-12 31.5q0 14 8 28l355 613q16 28 44 28q19 0 31 -12.5t12 -31.5q0 -14 -8 -28z" />
    <glyph glyph-name="threeeighths" unicode="&#x215c;" horiz-adv-x="989" 
d="M743 -8q-66 0 -109 35.5t-43 93.5q0 56 46 91v1q-37 31 -37 77q0 51 38 87.5t105 36.5t105 -36.5t38 -87.5q0 -46 -37 -77v-1q46 -35 46 -91q0 -58 -43 -93.5t-109 -35.5zM743 250q18 0 29 11t11 28q0 18 -11 29t-29 11t-29 -11t-11 -29q0 -17 11 -28t29 -11zM743 78
q21 0 34.5 13.5t13.5 33.5t-13.5 33t-34.5 13t-34.5 -13t-13.5 -33t13.5 -33.5t34.5 -13.5zM348 11q-16 -28 -44 -28q-19 0 -31 12.5t-12 31.5q0 14 8 28l355 613q16 28 44 28q19 0 31 -12.5t12 -31.5q0 -14 -8 -28zM226 266q-46 0 -83 17t-49 47q-5 13 -5 22q0 19 13.5 32
t34.5 13q25 0 47 -27q14 -17 40 -17q20 0 32 11.5t12 31.5q0 19 -13 30.5t-36 11.5q-21 0 -33 12t-12 31t12 31t33 12q17 0 28.5 10.5t11.5 27.5q0 18 -11 28.5t-29 10.5q-21 0 -36 -15q-25 -25 -45 -25q-19 0 -32.5 11.5t-13.5 30.5q0 9 5 22q11 27 45 45t81 18
q65 0 102.5 -32t37.5 -84q0 -50 -42 -82v-1q21 -9 36 -34t15 -60q0 -58 -40.5 -93.5t-105.5 -35.5z" />
    <glyph glyph-name="fiveeighths" unicode="&#x215d;" horiz-adv-x="981" 
d="M742 -8q-66 0 -109 35.5t-43 93.5q0 56 46 91v1q-37 31 -37 77q0 51 38 87.5t105 36.5t105 -36.5t38 -87.5q0 -46 -37 -77v-1q46 -35 46 -91q0 -58 -43 -93.5t-109 -35.5zM742 250q18 0 29 11t11 28q0 18 -11 29t-29 11t-29 -11t-11 -29q0 -17 11 -28t29 -11zM742 78
q21 0 34.5 13.5t13.5 33.5t-13.5 33t-34.5 13t-34.5 -13t-13.5 -33t13.5 -33.5t34.5 -13.5zM347 11q-16 -28 -44 -28q-19 0 -31 12.5t-12 31.5q0 14 8 28l355 613q16 28 44 28q19 0 31 -12.5t12 -31.5q0 -14 -8 -28zM221 266q-78 0 -114 45q-15 18 -15 39q0 18 12.5 31
t32.5 13q22 0 42 -20t42 -20q33 0 41 25q4 11 4 26q0 17 -4 28q-7 23 -37 23q-21 0 -36 -12q-20 -15 -48 -15q-23 0 -36 13.5t-13 37.5v155q0 45 45 45h180q22 0 35 -12.5t13 -32.5t-13 -31.5t-35 -11.5h-123q-6 0 -6 -6v-59h1q24 15 60 15q91 0 113 -71q8 -23 8 -63
q0 -32 -8 -58q-13 -40 -50 -62t-91 -22z" />
    <glyph glyph-name="seveneighths" unicode="&#x215e;" horiz-adv-x="908" 
d="M690 -8q-66 0 -109 35.5t-43 93.5q0 56 46 91v1q-37 31 -37 77q0 51 38 87.5t105 36.5t105 -36.5t38 -87.5q0 -46 -37 -77v-1q46 -35 46 -91q0 -58 -43 -93.5t-109 -35.5zM690 250q18 0 29 11t11 28q0 18 -11 29t-29 11t-29 -11t-11 -29q0 -17 11 -28t29 -11zM690 78
q21 0 34.5 13.5t13.5 33.5t-13.5 33t-34.5 13t-34.5 -13t-13.5 -33t13.5 -33.5t34.5 -13.5zM254 302q-13 -34 -49 -34q-21 0 -35.5 13.5t-14.5 34.5q0 10 5 23l106 251v2h-73q-6 0 -6 -6v-5q0 -22 -13.5 -36t-35.5 -14t-36 14t-14 36v54q0 45 45 45h201q22 0 35 -12.5
t13 -34.5q0 -24 -25 -84zM294 11q-16 -28 -44 -28q-19 0 -31 12.5t-12 31.5q0 14 8 28l355 613q16 28 44 28q19 0 31 -12.5t12 -31.5q0 -14 -8 -28z" />
    <glyph glyph-name="partialdiff" unicode="&#x2202;" horiz-adv-x="550" 
d="M250 -11q-95 0 -152.5 58.5t-57.5 150.5q0 95 58 158t152 63q79 0 126 -46h2q-2 91 -35.5 144.5t-95.5 53.5q-34 0 -75 -23q-20 -11 -38 -11q-24 0 -40 17.5t-16 41.5q0 30 27 51q58 44 150 44q119 0 186.5 -86.5t67.5 -245.5q0 -165 -65.5 -267.5t-193.5 -102.5z
M260 108q94 0 111 162q-47 37 -101 37q-45 0 -72 -27.5t-27 -78.5q0 -42 24.5 -67.5t64.5 -25.5z" />
    <glyph glyph-name="product" unicode="&#x220f;" horiz-adv-x="668" 
d="M525 -186q-32 0 -52.5 21.5t-20.5 56.5v711q0 6 -6 6h-224q-6 0 -6 -6v-711q0 -35 -20.5 -56.5t-52.5 -21.5q-33 0 -53.5 21.5t-20.5 56.5v774q0 33 20.5 53.5t53.5 20.5h382q33 0 53.5 -20.5t20.5 -53.5v-774q0 -35 -20.5 -56.5t-53.5 -21.5z" />
    <glyph glyph-name="summation" unicode="&#x2211;" horiz-adv-x="544" 
d="M422 -180h-316q-37 0 -57 19t-20 50q0 40 35 116l145 312l-138 245q-42 73 -42 109q0 31 20 50t57 19h330q33 0 51.5 -18.5t18.5 -47.5q0 -30 -18.5 -48t-51.5 -18h-229l131 -233q15 -29 15 -52t-14 -53l-147 -318h230q33 0 51.5 -18t18.5 -48q0 -29 -19 -47.5t-51 -18.5
z" />
    <glyph glyph-name="minus" unicode="&#x2212;" 
d="M447 217h-338q-29 0 -46 16t-17 43t17 43t46 16h338q29 0 46 -16t17 -43t-17 -43t-46 -16z" />
    <glyph glyph-name="uni2215" unicode="&#x2215;" horiz-adv-x="166" 
d="M-55 11q-16 -28 -44 -28q-19 0 -31 12.5t-12 31.5q0 14 8 28l355 613q16 28 44 28q19 0 31 -12.5t12 -31.5q0 -14 -8 -28z" />
    <glyph glyph-name="uni2219" unicode="&#x2219;" horiz-adv-x="260" 
d="M130 184q-34 0 -58 24t-24 58t24 58t58 24t58 -24t24 -58t-24 -58t-58 -24z" />
    <glyph glyph-name="radical" unicode="&#x221a;" horiz-adv-x="649" 
d="M322 -186q-51 0 -82 66l-98 200q-3 6 -9 3l-37 -18q-12 -6 -25 -6q-21 0 -35 14.5t-14 35.5q0 33 32 48l97 47q16 7 28 7q27 0 42 -30l90 -189h3l187 705q13 49 59 49q25 0 43 -16t18 -42q0 -10 -3 -20l-217 -787q-19 -67 -79 -67z" />
    <glyph glyph-name="infinity" unicode="&#x221e;" horiz-adv-x="754" 
d="M555 79q-87 0 -178 94q-90 -94 -179 -94q-71 0 -118 46.5t-47 120.5t47.5 121t119.5 47q82 0 176 -97q51 52 92 74.5t86 22.5q72 0 119.5 -46.5t47.5 -121.5q0 -73 -47 -120t-119 -47zM550 172q34 0 53.5 22t19.5 54q0 31 -19.5 52t-53.5 21q-42 0 -109 -75
q38 -41 61.5 -57.5t47.5 -16.5zM204 172q41 0 108 74q-37 42 -61 58.5t-47 16.5q-34 0 -53 -21t-19 -52q0 -33 19.5 -54.5t52.5 -21.5z" />
    <glyph glyph-name="integral" unicode="&#x222b;" horiz-adv-x="430" 
d="M112 -180q-14 0 -22 1q-25 3 -42 18.5t-17 39.5q0 25 17.5 42.5t42.5 17.5q28 0 41 17t13 57v518q0 111 42 160t132 49q13 0 21 -1q25 -3 42 -18.5t17 -39.5q0 -25 -17.5 -42.5t-42.5 -17.5q-28 0 -41 -17t-13 -57v-518q0 -112 -41.5 -160.5t-131.5 -48.5z" />
    <glyph glyph-name="approxequal" unicode="&#x2248;" 
d="M367 294q-53 0 -105 34q-40 26 -67 26q-28 0 -49 -25q-23 -27 -48 -27q-21 0 -35.5 13t-14.5 35q0 20 13 40q20 31 54.5 52t73.5 21q53 0 105 -34q40 -26 67 -26q28 0 49 25q23 27 48 27q21 0 35.5 -13t14.5 -35q0 -20 -13 -40q-20 -31 -54.5 -52t-73.5 -21zM367 88
q-53 0 -105 34q-40 26 -67 26q-28 0 -49 -25q-23 -27 -48 -27q-21 0 -35.5 13t-14.5 35q0 20 13 40q20 31 54.5 52t73.5 21q53 0 105 -34q40 -26 67 -26q28 0 49 25q23 27 48 27q21 0 35.5 -13t14.5 -35q0 -20 -13 -40q-20 -31 -54.5 -52t-73.5 -21z" />
    <glyph glyph-name="notequal" unicode="&#x2260;" 
d="M206 27q-14 -29 -43 -29q-18 0 -31 12t-13 30q0 12 6 24l24 48h-40q-29 0 -46 16t-17 43t17 43t46 16h98l45 92h-143q-29 0 -46 16t-17 43t17 43t46 16h201l41 84q14 29 43 29q18 0 31 -12t13 -30q0 -12 -6 -24l-23 -47h38q29 0 46 -16t17 -43t-17 -43t-46 -16h-96
l-45 -92h141q29 0 46 -16t17 -43t-17 -43t-46 -16h-199z" />
    <glyph glyph-name="lessequal" unicode="&#x2264;" 
d="M422 192l-311 122q-65 25 -65 75t65 75l311 122q15 5 28 5q25 0 42.5 -15.5t17.5 -41.5q0 -43 -45 -59l-233 -85v-2l233 -85q45 -16 45 -59q0 -26 -17.5 -41.5t-42.5 -15.5q-13 0 -28 5zM447 0h-338q-29 0 -46 16t-17 43t17 43t46 16h338q29 0 46 -16t17 -43t-17 -43
t-46 -16z" />
    <glyph glyph-name="greaterequal" unicode="&#x2265;" 
d="M445 314l-311 -122q-15 -5 -28 -5q-25 0 -42.5 15.5t-17.5 41.5q0 43 45 59l233 85v2l-233 85q-45 16 -45 59q0 26 17.5 41.5t42.5 15.5q13 0 28 -5l311 -122q65 -25 65 -75t-65 -75zM447 0h-338q-29 0 -46 16t-17 43t17 43t46 16h338q29 0 46 -16t17 -43t-17 -43
t-46 -16z" />
    <glyph glyph-name="lozenge" unicode="&#x25ca;" horiz-adv-x="562" 
d="M281 -58q-31 0 -52.5 17.5t-43.5 63.5l-127 266q-10 22 -10 40q0 17 10 39l127 267q22 46 43.5 63.5t52.5 17.5q30 0 52 -18t44 -63l127 -267q10 -22 10 -39q0 -18 -10 -40l-127 -266q-22 -45 -44 -63t-52 -18zM284 79l109 250l-112 250h-2l-110 -250l113 -250h2z" />
    <glyph glyph-name="uniF8FF" unicode="&#xf8ff;" horiz-adv-x="506" 
d="M472 0h-437q-35 0 -35 35v610q0 35 35 35h437q34 0 34 -35v-610q0 -35 -34 -35zM431 65q6 0 6 6v538q0 6 -6 6h-356q-6 0 -6 -6v-538q0 -6 6 -6h356zM245 236q-20 0 -32.5 12t-12.5 31v7q0 33 24 61l40 45q24 27 24 50q0 19 -11 31t-30 12q-28 0 -44 -28t-39 -28
q-17 0 -28.5 10.5t-11.5 28.5q0 8 1 12q8 36 41.5 59.5t84.5 23.5q56 0 91.5 -33.5t35.5 -83.5q0 -45 -32 -81l-45 -49q-12 -13 -12 -31v-6q0 -19 -12 -31t-32 -12zM244 102q-22 0 -37.5 15.5t-15.5 37.5t15.5 37t37.5 15q21 0 36.5 -15t15.5 -37t-15.5 -37.5t-36.5 -15.5z
" />
    <glyph glyph-name="CR" horiz-adv-x="0" 
 />
    <glyph glyph-name="grave.cap" horiz-adv-x="454" 
d="M209 761l-53 56q-17 17 -17 44q0 22 15.5 36t37.5 14q26 0 46 -21l49 -55q19 -21 19 -47q0 -21 -15 -35t-35 -14q-28 0 -47 22z" />
    <glyph glyph-name="acute.cap" horiz-adv-x="454" 
d="M242 761q-19 -22 -47 -22q-20 0 -35 14t-15 35q0 27 17 45l51 57q20 21 46 21q22 0 37.5 -14t15.5 -36q0 -27 -17 -44z" />
    <glyph glyph-name="circumflex.cap" horiz-adv-x="454" 
d="M326 735q-21 0 -39 18l-59 57h-2l-59 -57q-18 -18 -39 -18q-17 0 -29.5 11.5t-12.5 28.5t12 30l64 74q31 36 65 36t65 -36l64 -74q12 -13 12 -30t-12.5 -28.5t-29.5 -11.5z" />
    <glyph glyph-name="caron.cap" horiz-adv-x="454" 
d="M227 727q-34 0 -65 36l-64 74q-12 13 -12 30t12.5 28.5t29.5 11.5q21 0 39 -18l59 -57h2l59 57q18 18 39 18q17 0 29.5 -11.5t12.5 -28.5t-12 -30l-64 -74q-31 -36 -65 -36z" />
    <glyph glyph-name="caron.alt" horiz-adv-x="454" 
d="M270 541q-16 -47 -55 -47q-26 0 -42.5 15t-16.5 41q0 15 4 27l20 62q16 47 55 47q26 0 42.5 -15.5t16.5 -41.5q0 -14 -4 -26z" />
    <glyph glyph-name="tilde.cap" horiz-adv-x="454" 
d="M287 748q-34 0 -70 22q-28 17 -43 17q-16 0 -33 -16q-18 -16 -36 -16q-19 0 -31 12t-12 30q0 20 14 39q41 50 91 50q34 0 70 -22q28 -17 43 -17q16 0 33 16q18 16 36 16q19 0 31 -12t12 -30q0 -20 -14 -39q-41 -50 -91 -50z" />
    <glyph glyph-name="dieresis.cap" horiz-adv-x="454" 
d="M328 748q-30 0 -51 20.5t-21 50.5t21 50.5t51 20.5q29 0 50 -20.5t21 -50.5t-21 -50.5t-50 -20.5zM127 748q-30 0 -51 20.5t-21 50.5t21 50.5t51 20.5q29 0 50 -20.5t21 -50.5t-21 -50.5t-50 -20.5z" />
    <glyph glyph-name="macron.cap" horiz-adv-x="454" 
d="M334 769h-213q-25 0 -39 13.5t-14 35.5t14 36t39 14h213q24 0 38 -14t14 -36t-14 -35.5t-38 -13.5z" />
    <glyph glyph-name="breve.cap" horiz-adv-x="454" 
d="M227 743q-63 0 -105.5 33.5t-42.5 81.5q0 18 10.5 29t27.5 11q16 0 24 -7t17 -23q20 -35 69 -35t69 35q9 16 17 23t24 7q17 0 27.5 -11t10.5 -29q0 -48 -42.5 -81.5t-105.5 -33.5z" />
    <glyph glyph-name="ring.cap" horiz-adv-x="454" 
d="M227 712q-47 0 -77.5 30.5t-30.5 76.5t30.5 76.5t77.5 30.5t77.5 -30.5t30.5 -76.5t-30.5 -76.5t-77.5 -30.5zM227 771q20 0 33 13.5t13 34.5t-13 34.5t-33 13.5t-33 -13.5t-13 -34.5t13 -34.5t33 -13.5z" />
    <glyph glyph-name="hungarumlaut.cap" horiz-adv-x="454" 
d="M338 776q-18 -27 -46 -27q-21 0 -37.5 14t-16.5 36q0 20 14 40l36 54q17 26 47 26q21 0 37 -14.5t16 -36.5q0 -20 -13 -39zM162 776q-18 -27 -46 -27q-21 0 -37.5 14t-16.5 36q0 20 14 40l36 54q17 26 47 26q21 0 37 -14.5t16 -36.5q0 -20 -13 -39z" />
    <glyph glyph-name="dotaccent.cap" horiz-adv-x="454" 
d="M227 737q-33 0 -56 23t-23 56t23 56t56 23t56 -23t23 -56t-23 -56t-56 -23z" />
    <glyph glyph-name="commaaccent" horiz-adv-x="454" 
d="M275 -194q-16 -47 -55 -47q-26 0 -43 15t-17 41q0 12 5 27l22 69q15 47 55 47q26 0 43 -15t17 -41q0 -12 -5 -27z" />
    <glyph glyph-name="commaaccent.alt" horiz-adv-x="454" 
d="M274 593q-16 -47 -55 -47q-25 0 -42 15t-17 40q0 16 4 28l24 73q16 47 55 47q25 0 42 -15.5t17 -41.5q0 -14 -4 -26z" />
    <glyph glyph-name="uni0394" horiz-adv-x="644" 
d="M539 0h-435q-33 0 -51.5 16.5t-18.5 46.5q0 14 8 38l180 499q30 86 101 86q72 0 102 -86l177 -499q8 -24 8 -38q0 -30 -19 -46.5t-52 -16.5zM441 121q7 0 5 6l-122 365h-3l-124 -365q-1 -6 5 -6h239z" />
    <glyph glyph-name="uni03A9" horiz-adv-x="639" 
d="M529 0h-116q-30 0 -48 17.5t-18 44.5q0 23 9 40.5t36 42.5q49 47 49 195q0 105 -13 146q-23 73 -108 73t-108 -73q-14 -39 -14 -146q0 -147 50 -195q27 -25 36 -42.5t9 -40.5q0 -27 -18.5 -44.5t-48.5 -17.5h-115q-30 0 -48.5 17.5t-18.5 44.5q0 28 18.5 45.5t48.5 17.5
h12v2q-74 53 -74 213q0 127 20 187q28 82 93 123t158 41q194 0 250 -164q20 -60 20 -187q0 -161 -73 -213v-2h12q30 0 48 -17.5t18 -45.5q0 -27 -18 -44.5t-48 -17.5z" />
    <glyph glyph-name="uni03BC" horiz-adv-x="554" 
d="M421 -6q-54 0 -67 51h-1q-13 -22 -40 -37t-58 -15q-33 0 -50 15h-1v-120q0 -34 -19.5 -54t-50.5 -20t-51 20t-20 54v528q0 34 20 54t51 20t50 -20t19 -54v-220q0 -41 18.5 -64.5t55.5 -23.5q36 0 55 23.5t19 64.5v220q0 34 19.5 54t50.5 20t50.5 -20t19.5 -54v-348
q0 -34 -19.5 -54t-50.5 -20z" />
    <glyph glyph-name="zero.onum" 
d="M278 -11q-112 0 -184.5 72t-72.5 181t72.5 181t184.5 72t184.5 -72t72.5 -181t-72.5 -181t-184.5 -72zM278 117q52 0 83.5 36t31.5 89t-31.5 89t-83.5 36t-84 -36t-32 -89t32 -89t84 -36z" />
    <glyph glyph-name="one.onum" 
d="M322 -6q-31 0 -50.5 20t-19.5 54v273h-2l-69 -25q-17 -5 -28 -5q-27 0 -44.5 16.5t-17.5 43.5q0 43 41 60l97 40q44 19 85 19q35 0 56.5 -24t21.5 -61v-337q0 -34 -19.5 -54t-50.5 -20z" />
    <glyph glyph-name="two.onum" 
d="M437 0h-323q-27 0 -42.5 15.5t-15.5 41.5q0 41 65 80l151 91q47 28 63.5 47t16.5 42q0 27 -21.5 44.5t-56.5 17.5q-50 0 -76 -38q-18 -26 -34 -36t-38 -10q-29 0 -46 15.5t-17 41.5q0 12 4 22q17 54 73.5 87.5t135.5 33.5q97 0 156.5 -49t59.5 -126q0 -95 -102 -151
l-94 -52v-2h141q28 0 44.5 -16t16.5 -42q0 -25 -17 -41t-44 -16z" />
    <glyph glyph-name="three.onum" 
d="M277 -191q-73 0 -126 28.5t-73 76.5q-6 15 -6 31q0 26 17.5 43t45.5 17q34 0 67 -42q28 -36 72 -36q39 0 62.5 23.5t23.5 68.5q0 43 -27 67.5t-74 24.5q-32 0 -52 18.5t-20 48.5q0 32 34 74l91 111v2h-180q-30 0 -47.5 16.5t-17.5 43.5q0 26 17.5 42.5t47.5 16.5h296
q28 0 45 -16.5t17 -43.5q0 -39 -39 -86l-101 -123v-2q73 -16 111 -66t38 -130q0 -94 -62.5 -151t-159.5 -57z" />
    <glyph glyph-name="four.onum" 
d="M385 -186q-30 0 -49 19.5t-19 52.5v108q0 6 -6 6h-194q-36 0 -56.5 19.5t-20.5 51.5q0 29 23 76l142 299q20 44 65 44q29 0 47 -18t18 -46q0 -19 -9 -37l-128 -266v-2h113q6 0 6 6v81q0 33 19 52.5t49 19.5q31 0 50 -19.5t19 -52.5v-81q0 -6 6 -6h4q29 0 47 -17t18 -44
q0 -26 -18 -43t-47 -17h-4q-6 0 -6 -6v-108q0 -33 -19.5 -52.5t-49.5 -19.5z" />
    <glyph glyph-name="five.onum" 
d="M282 -191q-74 0 -128.5 30t-68.5 73q-5 15 -5 26q0 26 17 43.5t45 17.5q34 0 61 -33q31 -39 75 -39q57 0 74 48q9 27 9 60t-8 59q-17 48 -71 48q-39 0 -62 -29q-29 -33 -69 -33q-31 0 -49.5 19.5t-18.5 52.5v272q0 28 16.5 44t44.5 16h281q29 0 46.5 -16.5t17.5 -42.5
q0 -27 -17.5 -43.5t-46.5 -16.5h-213q-6 0 -6 -6v-132h3q33 33 102 33q137 0 175 -114q14 -45 14 -111q0 -53 -15 -98q-20 -62 -74.5 -95t-128.5 -33z" />
    <glyph glyph-name="six.onum" 
d="M278 -11q-100 0 -164 58t-64 156q0 77 50 168l149 276q21 39 62 39q27 0 46 -17t19 -45q0 -21 -11 -40l-99 -179l2 -1q12 7 43 7q83 0 139 -56.5t56 -147.5q0 -100 -64.5 -159t-163.5 -59zM278 107q40 0 65 26.5t25 68.5t-25 68t-65 26t-65 -26t-25 -68t25 -68.5
t65 -26.5z" />
    <glyph glyph-name="seven.onum" 
d="M230 -186q-29 0 -47.5 19t-18.5 48q0 15 6 30l181 448v3h-144q-6 0 -6 -6v-17q0 -32 -18 -51t-47 -19q-30 0 -48 19t-18 51v79q0 31 18 48.5t49 17.5h288q38 0 58.5 -20t20.5 -55q0 -31 -25 -93l-183 -457q-19 -45 -66 -45z" />
    <glyph glyph-name="eight.onum" 
d="M278 -11q-100 0 -165 57t-65 150q0 104 81 159v2q-27 19 -46.5 55t-19.5 81q0 83 58 140.5t157 57.5t157 -57.5t58 -140.5q0 -45 -19.5 -81t-46.5 -55v-2q81 -55 81 -159q0 -93 -65 -150t-165 -57zM278 414q34 0 56 23t22 56q0 34 -21.5 57t-56.5 23t-56.5 -23t-21.5 -57
q0 -33 22 -56t56 -23zM278 107q41 0 66.5 26.5t25.5 68.5q0 41 -25.5 67.5t-66.5 26.5t-66.5 -26.5t-25.5 -67.5q0 -42 25.5 -68.5t66.5 -26.5z" />
    <glyph glyph-name="nine.onum" 
d="M254 -184q-27 0 -46 17t-19 45q0 21 11 40l90 161l-2 1q-12 -7 -43 -7q-83 0 -139 56.5t-56 147.5q0 100 64.5 159t163.5 59q100 0 164 -58t64 -156q0 -77 -50 -168l-140 -258q-21 -39 -62 -39zM278 188q40 0 65 26t25 68t-25 68.5t-65 26.5t-65 -26.5t-25 -68.5t25 -68
t65 -26z" />
    <glyph glyph-name="zero.prop" 
d="M72 128q-14 43 -14 212t14 212q46 139 206 139t206 -139q14 -43 14 -212t-14 -212q-46 -139 -206 -139t-206 139zM210 153q15 -45 68 -45t68 45q9 27 9 187t-9 187q-15 45 -68 45t-68 -45q-9 -27 -9 -187t9 -187z" />
    <glyph glyph-name="one.prop" horiz-adv-x="412" 
d="M176 68v451h-2l-63 -43q-19 -13 -42 -13q-24 0 -41 17t-17 42q0 36 35 59l107 74q45 31 85 31q36 0 57 -23.5t21 -61.5v-533q0 -34 -19.5 -54t-50.5 -20t-50.5 20t-19.5 54z" />
    <glyph glyph-name="two.prop" horiz-adv-x="526" 
d="M40 60q0 37 42 87l212 254q40 48 40 94q0 35 -20 56.5t-55 21.5q-54 0 -82 -57q-22 -45 -63 -45q-27 0 -45 17.5t-18 44.5q0 5 2 17q12 59 69 100t143 41q95 0 152 -55t57 -139q0 -83 -69 -165l-179 -211v-2h191q30 0 47 -16.5t17 -43.5t-17 -43t-47 -16h-312
q-30 0 -47.5 16.5t-17.5 43.5z" />
    <glyph glyph-name="three.prop" horiz-adv-x="523" 
d="M52 93q-7 15 -7 34q0 27 17 44.5t46 17.5q39 0 64 -40q26 -42 77 -42q38 0 61 24.5t23 64.5q0 43 -26 69t-64 26h-7q-27 0 -44 16.5t-17 42.5t17 42.5t44 16.5h7q34 0 55.5 23t21.5 61q0 36 -21 58t-55 22q-49 0 -69 -41q-20 -40 -62 -40q-27 0 -44.5 17.5t-17.5 44.5
q0 16 8 35q20 45 70 73.5t121 28.5q98 0 154 -52t56 -136q0 -90 -76 -140v-2q36 -17 62.5 -59.5t26.5 -104.5q0 -92 -62.5 -150t-159.5 -58q-73 0 -125 27t-74 77z" />
    <glyph glyph-name="four.prop" horiz-adv-x="562" 
d="M115 99q-36 0 -56.5 19.5t-20.5 51.5q0 24 23 76l177 396q20 44 64 44q29 0 48 -19t19 -49q0 -17 -7 -33l-165 -363v-2h123q6 0 6 6v90q0 33 19 52.5t49 19.5t49 -19.5t19 -52.5v-90q0 -6 6 -6h4q29 0 47 -17t18 -43q0 -27 -18 -44t-47 -17h-4q-6 0 -6 -6v-27
q0 -33 -19 -52.5t-49 -19.5t-49 19.5t-19 52.5v27q0 6 -6 6h-205z" />
    <glyph glyph-name="five.prop" horiz-adv-x="536" 
d="M72 92q-5 15 -5 26q0 26 17.5 43.5t45.5 17.5q34 0 61 -33q30 -38 76 -38q57 0 74 48q9 27 9 65q0 41 -8 67q-17 47 -71 47q-39 0 -62 -29q-26 -33 -69 -33q-31 0 -49.5 19.5t-18.5 52.5v275q0 28 16.5 44t44.5 16h281q29 0 46.5 -16.5t17.5 -43.5t-17.5 -44t-46.5 -17
h-213q-6 0 -6 -6v-133h3q33 33 102 33q137 0 175 -113q14 -45 14 -119q0 -58 -15 -103q-20 -61 -76 -95t-130 -34q-75 0 -128.5 29.5t-67.5 73.5z" />
    <glyph glyph-name="six.prop" horiz-adv-x="552" 
d="M48 203q0 77 50 168l149 276q21 39 62 39q27 0 46 -17t19 -45q0 -21 -11 -40l-99 -179l2 -1q12 7 43 7q83 0 139 -56.5t56 -147.5q0 -100 -64.5 -159t-163.5 -59q-100 0 -164 58t-64 156zM186 202q0 -42 25 -68.5t65 -26.5t65 26.5t25 68.5t-25 68t-65 26t-65 -26
t-25 -68z" />
    <glyph glyph-name="seven.prop" horiz-adv-x="521" 
d="M144 61q0 15 6 30l186 464v3h-144q-6 0 -6 -6v-17q0 -32 -18 -51t-47 -19q-30 0 -48 19t-18 51v79q0 31 18 48.5t49 17.5h288q38 0 58.5 -20t20.5 -55q0 -31 -25 -93l-188 -473q-19 -45 -66 -45q-29 0 -47.5 19t-18.5 48z" />
    <glyph glyph-name="eight.prop" horiz-adv-x="560" 
d="M50 196q0 104 81 159v2q-27 19 -46.5 55t-19.5 81q0 83 58 140.5t157 57.5t157 -57.5t58 -140.5q0 -45 -19.5 -81t-46.5 -55v-2q81 -55 81 -159q0 -93 -65 -150t-165 -57t-165 57t-65 150zM280 414q34 0 56 23t22 56q0 34 -21.5 57t-56.5 23t-56.5 -23t-21.5 -57
q0 -33 22 -56t56 -23zM188 202q0 -42 25.5 -68.5t66.5 -26.5t66.5 26.5t25.5 68.5q0 41 -25.5 67.5t-66.5 26.5t-66.5 -26.5t-25.5 -67.5z" />
    <glyph glyph-name="nine.prop" horiz-adv-x="552" 
d="M178 56q0 21 11 40l99 179l-2 1q-12 -7 -43 -7q-83 0 -139 56.5t-56 147.5q0 100 64.5 159t163.5 59q100 0 164 -58t64 -156q0 -77 -50 -168l-149 -276q-21 -39 -62 -39q-27 0 -46 17t-19 45zM276 384q40 0 65 26t25 68t-25 68.5t-65 26.5t-65 -26.5t-25 -68.5t25 -68
t65 -26z" />
    <glyph glyph-name="Euro.prop" horiz-adv-x="563" 
d="M324 -11q-81 0 -136.5 37t-77.5 107q-13 44 -13 98q0 6 -6 6h-16q-21 0 -33 11.5t-12 29.5t12 29.5t33 11.5h16q6 0 6 6v34q0 6 -6 6h-16q-21 0 -33 11.5t-12 29.5t12 29.5t33 11.5h16q6 0 6 6q0 50 13 94q22 70 77.5 107t136.5 37q67 0 119 -31t67 -70q5 -11 5 -27
q0 -24 -17 -40.5t-42 -16.5q-31 0 -57 32q-27 34 -74 34q-59 0 -78 -57q-8 -24 -8 -62q0 -6 6 -6h148q21 0 32.5 -11.5t11.5 -29.5t-11.5 -29.5t-32.5 -11.5h-148q-6 0 -6 -6v-34q0 -6 6 -6h108q21 0 32.5 -11.5t11.5 -29.5t-11.5 -29.5t-32.5 -11.5h-108q-6 0 -6 -6
q0 -42 8 -66q19 -57 78 -57q47 0 74 34q26 32 57 32q25 0 42 -16.5t17 -40.5q0 -16 -5 -27q-15 -39 -67 -70t-119 -31z" />
    <glyph glyph-name="cent.prop" horiz-adv-x="492" 
d="M236 -70v61q-66 7 -112.5 41.5t-65.5 94.5q-16 46 -16 115t16 115q19 59 65.5 94t112.5 42v61q0 16 9 25t24 9q14 0 23 -9t9 -25v-61q102 -14 138 -78q9 -18 9 -35q0 -24 -16.5 -41t-41.5 -17q-28 0 -58 28q-15 13 -31 20v-256q16 7 31 20q30 28 58 28q25 0 41.5 -17
t16.5 -41q0 -17 -9 -35q-36 -64 -138 -78v-61q0 -16 -9 -25t-23 -9q-15 0 -24 9t-9 25zM193 161q10 -35 43 -48v257q-32 -11 -43 -47q-8 -25 -8 -81t8 -81z" />
    <glyph glyph-name="dollar.prop" horiz-adv-x="535" 
d="M73 39q-31 18 -31 54q0 26 17.5 44.5t45.5 18.5q20 0 39 -11q46 -28 94 -34v171q-88 13 -138 65t-50 131q0 85 52 142.5t136 68.5v39q0 16 9 25.5t24 9.5t24 -9.5t9 -25.5v-38q68 -6 122 -36q34 -19 34 -54q0 -25 -17 -43t-42 -18q-15 0 -31 7q-36 17 -66 22v-161
q93 -13 141 -65t48 -133q0 -88 -50.5 -145.5t-138.5 -70.5v-41q0 -16 -9 -25.5t-24 -9.5t-24 9.5t-9 25.5v38q-89 4 -165 49zM238 420v144q-50 -19 -50 -74q0 -51 50 -70zM304 118q51 19 51 81q0 50 -51 69v-150z" />
    <glyph glyph-name="sterling.prop" horiz-adv-x="517" 
d="M423 0h-308q-30 0 -47.5 16.5t-17.5 43.5q0 32 35 70q24 25 24 75v58q0 6 -6 6h-11q-26 0 -40.5 13.5t-14.5 36.5t14.5 36t40.5 13h11q6 0 6 6v122q0 92 51 143.5t140 51.5q61 0 103.5 -26t56.5 -66q5 -14 5 -29q0 -27 -17.5 -45t-44.5 -18q-40 0 -59 35q-17 30 -45 30
q-49 0 -49 -61v-137q0 -6 6 -6h83q26 0 40.5 -13t14.5 -36t-14.5 -36.5t-40.5 -13.5h-83q-6 0 -6 -6v-43q0 -68 -26 -98v-2h199q30 0 47 -16.5t17 -43.5t-17 -43.5t-47 -16.5z" />
    <glyph glyph-name="florin.prop" horiz-adv-x="482" 
d="M376 313h-57l-49 -325q-13 -90 -57 -129t-130 -39h-6q-29 0 -46 16t-17 42q0 27 16.5 43t46.5 16q48 0 56 56l49 320h-20q-27 0 -42 14t-15 38t15 38t42 14h36l15 95q14 90 57.5 129t129.5 39h6q29 0 45.5 -16t16.5 -42q0 -27 -16.5 -43t-45.5 -16q-49 0 -57 -56l-14 -90
h41q26 0 41 -14t15 -38t-15 -38t-41 -14z" />
    <glyph glyph-name="yen.prop" horiz-adv-x="542" 
d="M271 -6q-31 0 -50.5 20t-19.5 54v57q0 6 -6 6h-88q-20 0 -31.5 11.5t-11.5 29.5t11.5 29.5t31.5 11.5h88q6 0 6 6v34q0 6 -6 6h-88q-20 0 -31.5 11.5t-11.5 29.5t11.5 29.5t31.5 11.5h64v2l-120 246q-7 15 -7 33q0 27 19 45.5t49 18.5q43 0 63 -45l98 -228h3l94 228
q19 45 62 45q29 0 47.5 -18.5t18.5 -45.5q0 -18 -7 -33l-120 -246v-2h64q20 0 31.5 -11.5t11.5 -29.5t-11.5 -29.5t-31.5 -11.5h-88q-6 0 -6 -6v-34q0 -6 6 -6h88q20 0 31.5 -11.5t11.5 -29.5t-11.5 -29.5t-31.5 -11.5h-88q-6 0 -6 -6v-57q0 -34 -19.5 -54t-50.5 -20z" />
    <glyph glyph-name="zero.onumprop" horiz-adv-x="592" 
d="M296 -11q-112 0 -184.5 72t-72.5 181t72.5 181t184.5 72t184.5 -72t72.5 -181t-72.5 -181t-184.5 -72zM296 117q52 0 83.5 36t31.5 89t-31.5 89t-83.5 36t-84 -36t-32 -89t32 -89t84 -36z" />
    <glyph glyph-name="one.onumprop" horiz-adv-x="412" 
d="M247 -6q-31 0 -50.5 20t-19.5 54v273h-2l-69 -25q-17 -5 -28 -5q-27 0 -44.5 16.5t-17.5 43.5q0 43 41 60l97 40q44 19 85 19q35 0 56.5 -24t21.5 -61v-337q0 -34 -19.5 -54t-50.5 -20z" />
    <glyph glyph-name="two.onumprop" horiz-adv-x="534" 
d="M423 0h-323q-27 0 -42.5 15.5t-15.5 41.5q0 41 65 80l151 91q47 28 63.5 47t16.5 42q0 27 -21.5 44.5t-56.5 17.5q-50 0 -76 -38q-18 -26 -34 -36t-38 -10q-29 0 -46 15.5t-17 41.5q0 12 4 22q17 54 73.5 87.5t135.5 33.5q97 0 156.5 -49t59.5 -126q0 -95 -102 -151
l-94 -52v-2h141q28 0 44.5 -16t16.5 -42q0 -25 -17 -41t-44 -16z" />
    <glyph glyph-name="three.onumprop" horiz-adv-x="526" 
d="M254 -191q-73 0 -126 28.5t-73 76.5q-6 15 -6 31q0 26 17.5 43t45.5 17q34 0 67 -42q28 -36 72 -36q39 0 62.5 23.5t23.5 68.5q0 43 -27 67.5t-74 24.5q-32 0 -52 18.5t-20 48.5q0 32 34 74l91 111v2h-180q-30 0 -47.5 16.5t-17.5 43.5q0 26 17.5 42.5t47.5 16.5h296
q28 0 45 -16.5t17 -43.5q0 -39 -39 -86l-101 -123v-2q73 -16 111 -66t38 -130q0 -94 -62.5 -151t-159.5 -57z" />
    <glyph glyph-name="four.onumprop" horiz-adv-x="543" 
d="M373 -186q-30 0 -49 19.5t-19 52.5v108q0 6 -6 6h-194q-36 0 -56.5 19.5t-20.5 51.5q0 29 23 76l142 299q20 44 65 44q29 0 47 -18t18 -46q0 -19 -9 -37l-128 -266v-2h113q6 0 6 6v81q0 33 19 52.5t49 19.5q31 0 50 -19.5t19 -52.5v-81q0 -6 6 -6h4q29 0 47 -17t18 -44
q0 -26 -18 -43t-47 -17h-4q-6 0 -6 -6v-108q0 -33 -19.5 -52.5t-49.5 -19.5z" />
    <glyph glyph-name="five.onumprop" horiz-adv-x="516" 
d="M266 -191q-74 0 -128.5 30t-68.5 73q-5 15 -5 26q0 26 17 43.5t45 17.5q34 0 61 -33q31 -39 75 -39q57 0 74 48q9 27 9 60t-8 59q-17 48 -71 48q-39 0 -62 -29q-29 -33 -69 -33q-31 0 -49.5 19.5t-18.5 52.5v272q0 28 16.5 44t44.5 16h281q29 0 46.5 -16.5t17.5 -42.5
q0 -27 -17.5 -43.5t-46.5 -16.5h-213q-6 0 -6 -6v-132h3q33 33 102 33q137 0 175 -114q14 -45 14 -111q0 -53 -15 -98q-20 -62 -74.5 -95t-128.5 -33z" />
    <glyph glyph-name="six.onumprop" horiz-adv-x="534" 
d="M267 -11q-100 0 -164 58t-64 156q0 77 50 168l149 276q21 39 62 39q27 0 46 -17t19 -45q0 -21 -11 -40l-99 -179l2 -1q12 7 43 7q83 0 139 -56.5t56 -147.5q0 -100 -64.5 -159t-163.5 -59zM267 107q40 0 65 26.5t25 68.5t-25 68t-65 26t-65 -26t-25 -68t25 -68.5
t65 -26.5z" />
    <glyph glyph-name="seven.onumprop" horiz-adv-x="503" 
d="M203 -186q-29 0 -47.5 19t-18.5 48q0 15 6 30l181 448v3h-144q-6 0 -6 -6v-17q0 -32 -18 -51t-47 -19q-30 0 -48 19t-18 51v79q0 31 18 48.5t49 17.5h288q38 0 58.5 -20t20.5 -55q0 -31 -25 -93l-183 -457q-19 -45 -66 -45z" />
    <glyph glyph-name="eight.onumprop" horiz-adv-x="538" 
d="M269 -11q-100 0 -165 57t-65 150q0 104 81 159v2q-27 19 -46.5 55t-19.5 81q0 83 58 140.5t157 57.5t157 -57.5t58 -140.5q0 -45 -19.5 -81t-46.5 -55v-2q81 -55 81 -159q0 -93 -65 -150t-165 -57zM269 414q34 0 56 23t22 56q0 34 -21.5 57t-56.5 23t-56.5 -23t-21.5 -57
q0 -33 22 -56t56 -23zM269 107q41 0 66.5 26.5t25.5 68.5q0 41 -25.5 67.5t-66.5 26.5t-66.5 -26.5t-25.5 -67.5q0 -42 25.5 -68.5t66.5 -26.5z" />
    <glyph glyph-name="nine.onumprop" horiz-adv-x="534" 
d="M243 -184q-27 0 -46 17t-19 45q0 21 11 40l90 161l-2 1q-12 -7 -43 -7q-83 0 -139 56.5t-56 147.5q0 100 64.5 159t163.5 59q100 0 164 -58t64 -156q0 -77 -50 -168l-140 -258q-21 -39 -62 -39zM267 188q40 0 65 26t25 68t-25 68.5t-65 26.5t-65 -26.5t-25 -68.5t25 -68
t65 -26z" />
    <glyph glyph-name="one.superior" horiz-adv-x="358" 
d="M204 424q-24 0 -38.5 15.5t-14.5 41.5v241h-2l-23 -14q-15 -9 -32 -9q-19 0 -30.5 13t-11.5 32q0 27 24 42l53 33q37 23 69 23q59 0 59 -63v-298q0 -26 -14.5 -41.5t-38.5 -15.5z" />
    <glyph glyph-name="two.superior" horiz-adv-x="358" 
d="M278 430h-194q-24 0 -37.5 13t-13.5 34q0 30 40 70l118 123q25 25 25 52q0 16 -10.5 25.5t-28.5 9.5q-25 0 -43 -27q-20 -29 -46 -29q-20 0 -33.5 12t-13.5 32q0 11 5 26q12 31 48.5 52t85.5 21q62 0 101 -33.5t39 -88.5q0 -56 -49 -105l-95 -97v-1h102q23 0 35.5 -12
t12.5 -32q0 -21 -12.5 -33t-35.5 -12z" />
    <glyph glyph-name="three.superior" horiz-adv-x="358" 
d="M179 422q-46 0 -83 17t-49 47q-5 13 -5 22q0 19 13.5 32t34.5 13q25 0 47 -27q14 -17 40 -17q20 0 32 11.5t12 31.5q0 19 -13 30.5t-36 11.5q-21 0 -33 12t-12 31t12 31t33 12q17 0 28.5 10.5t11.5 27.5q0 18 -11 28.5t-29 10.5q-21 0 -36 -15q-25 -25 -45 -25
q-19 0 -32.5 11.5t-13.5 30.5q0 9 5 22q11 27 45 45t81 18q65 0 102.5 -32t37.5 -84q0 -50 -42 -82v-1q21 -9 36 -34t15 -60q0 -58 -40.5 -93.5t-105.5 -35.5z" />
    <glyph glyph-name="a.alt01" horiz-adv-x="552" 
d="M489 416v-348q0 -34 -19.5 -54t-50.5 -20q-53 0 -67 51h-1q-40 -56 -126 -56q-59 0 -104 33t-64 90q-17 51 -17 130t17 130q19 57 64 90t104 33q86 0 126 -56h1q14 51 67 51q31 0 50.5 -20t19.5 -54zM266 107q56 0 74 56q9 27 9 79t-9 79q-18 56 -74 56q-57 0 -75 -56
q-9 -27 -9 -79t9 -79q18 -56 75 -56z" />
    <glyph glyph-name="agrave.alt01" horiz-adv-x="552" 
d="M489 416v-348q0 -34 -19.5 -54t-50.5 -20q-53 0 -67 51h-1q-40 -56 -126 -56q-59 0 -104 33t-64 90q-17 51 -17 130t17 130q19 57 64 90t104 33q86 0 126 -56h1q14 51 67 51q31 0 50.5 -20t19.5 -54zM266 107q56 0 74 56q9 27 9 79t-9 79q-18 56 -74 56q-57 0 -75 -56
q-9 -27 -9 -79t9 -79q18 -56 75 -56zM262 540q-28 0 -47 25l-44 59q-13 18 -13 40t16 36.5t37 14.5q29 0 47 -24l43 -61q13 -20 13 -41q0 -22 -15 -35.5t-37 -13.5z" />
    <glyph glyph-name="aacute.alt01" horiz-adv-x="552" 
d="M489 416v-348q0 -34 -19.5 -54t-50.5 -20q-53 0 -67 51h-1q-40 -56 -126 -56q-59 0 -104 33t-64 90q-17 51 -17 130t17 130q19 57 64 90t104 33q86 0 126 -56h1q14 51 67 51q31 0 50.5 -20t19.5 -54zM266 107q56 0 74 56q9 27 9 79t-9 79q-18 56 -74 56q-57 0 -75 -56
q-9 -27 -9 -79t9 -79q18 -56 75 -56zM311 565q-19 -25 -47 -25q-22 0 -37 13.5t-15 35.5q0 21 13 41l43 61q18 24 47 24q21 0 37 -14.5t16 -36.5t-13 -40z" />
    <glyph glyph-name="acircumflex.alt01" horiz-adv-x="552" 
d="M489 416v-348q0 -34 -19.5 -54t-50.5 -20q-53 0 -67 51h-1q-40 -56 -126 -56q-59 0 -104 33t-64 90q-17 51 -17 130t17 130q19 57 64 90t104 33q86 0 126 -56h1q14 51 67 51q31 0 50.5 -20t19.5 -54zM266 107q56 0 74 56q9 27 9 79t-9 79q-18 56 -74 56q-57 0 -75 -56
q-9 -27 -9 -79t9 -79q18 -56 75 -56zM371 538q-21 0 -39 18l-59 57h-2l-59 -57q-18 -18 -39 -18q-17 0 -29.5 11.5t-12.5 28.5q0 16 12 30l64 74q31 36 65 36t65 -36l64 -74q12 -14 12 -30q0 -17 -12.5 -28.5t-29.5 -11.5z" />
    <glyph glyph-name="atilde.alt01" horiz-adv-x="552" 
d="M489 416v-348q0 -34 -19.5 -54t-50.5 -20q-53 0 -67 51h-1q-40 -56 -126 -56q-59 0 -104 33t-64 90q-17 51 -17 130t17 130q19 57 64 90t104 33q86 0 126 -56h1q14 51 67 51q31 0 50.5 -20t19.5 -54zM266 107q56 0 74 56q9 27 9 79t-9 79q-18 56 -74 56q-57 0 -75 -56
q-9 -27 -9 -79t9 -79q18 -56 75 -56zM332 553q-34 0 -70 22q-28 17 -43 17q-16 0 -33 -16q-18 -16 -36 -16q-19 0 -31 12t-12 30q0 20 14 39q41 50 91 50q34 0 70 -22q28 -17 43 -17q16 0 33 16q18 16 36 16q19 0 31 -12t12 -30q0 -20 -14 -39q-41 -50 -91 -50z" />
    <glyph glyph-name="adieresis.alt01" horiz-adv-x="552" 
d="M489 416v-348q0 -34 -19.5 -54t-50.5 -20q-53 0 -67 51h-1q-40 -56 -126 -56q-59 0 -104 33t-64 90q-17 51 -17 130t17 130q19 57 64 90t104 33q86 0 126 -56h1q14 51 67 51q31 0 50.5 -20t19.5 -54zM266 107q56 0 74 56q9 27 9 79t-9 79q-18 56 -74 56q-57 0 -75 -56
q-9 -27 -9 -79t9 -79q18 -56 75 -56zM372 543q-30 0 -51 21t-21 51q0 29 21 50t51 21q29 0 50 -21t21 -50q0 -30 -21 -51t-50 -21zM171 543q-30 0 -51 21t-21 51q0 29 21 50t51 21q29 0 50 -21t21 -50q0 -30 -21 -51t-50 -21z" />
    <glyph glyph-name="amacron.alt01" horiz-adv-x="552" 
d="M489 416v-348q0 -34 -19.5 -54t-50.5 -20q-53 0 -67 51h-1q-40 -56 -126 -56q-59 0 -104 33t-64 90q-17 51 -17 130t17 130q19 57 64 90t104 33q86 0 126 -56h1q14 51 67 51q31 0 50.5 -20t19.5 -54zM266 107q56 0 74 56q9 27 9 79t-9 79q-18 56 -74 56q-57 0 -75 -56
q-9 -27 -9 -79t9 -79q18 -56 75 -56zM381 575h-213q-25 0 -39 13.5t-14 35.5t14 36t39 14h213q24 0 38 -14t14 -36t-14 -35.5t-38 -13.5z" />
    <glyph glyph-name="abreve.alt01" horiz-adv-x="552" 
d="M489 416v-348q0 -34 -19.5 -54t-50.5 -20q-53 0 -67 51h-1q-40 -56 -126 -56q-59 0 -104 33t-64 90q-17 51 -17 130t17 130q19 57 64 90t104 33q86 0 126 -56h1q14 51 67 51q31 0 50.5 -20t19.5 -54zM266 107q56 0 74 56q9 27 9 79t-9 79q-18 56 -74 56q-57 0 -75 -56
q-9 -27 -9 -79t9 -79q18 -56 75 -56zM268 545q-63 0 -105.5 33.5t-42.5 81.5q0 18 10.5 29t27.5 11q16 0 24 -7t17 -23q20 -35 69 -35t69 35q9 16 17 23t24 7q17 0 27.5 -11t10.5 -29q0 -48 -42.5 -81.5t-105.5 -33.5z" />
    <glyph glyph-name="aring.alt01" horiz-adv-x="552" 
d="M489 416v-348q0 -34 -19.5 -54t-50.5 -20q-53 0 -67 51h-1q-40 -56 -126 -56q-59 0 -104 33t-64 90q-17 51 -17 130t17 130q19 57 64 90t104 33q86 0 126 -56h1q14 51 67 51q31 0 50.5 -20t19.5 -54zM266 107q56 0 74 56q9 27 9 79t-9 79q-18 56 -74 56q-57 0 -75 -56
q-9 -27 -9 -79t9 -79q18 -56 75 -56zM270 524q-47 0 -77.5 30.5t-30.5 76.5t30.5 76.5t77.5 30.5t77.5 -30.5t30.5 -76.5t-30.5 -76.5t-77.5 -30.5zM270 583q20 0 33 13.5t13 34.5t-13 34.5t-33 13.5t-33 -13.5t-13 -34.5t13 -34.5t33 -13.5z" />
    <glyph glyph-name="aringacute.alt01" horiz-adv-x="552" 
d="M324 775q-18 -15 -38 -15q-21 0 -36.5 14.5t-15.5 36.5q0 25 24 46l46 40q16 15 38 15q21 0 36.5 -14.5t15.5 -36.5q0 -26 -26 -48zM489 416v-348q0 -34 -19.5 -54t-50.5 -20q-53 0 -67 51h-1q-40 -56 -126 -56q-59 0 -104 33t-64 90q-17 51 -17 130t17 130q19 57 64 90
t104 33q86 0 126 -56h1q14 51 67 51q31 0 50.5 -20t19.5 -54zM266 107q56 0 74 56q9 27 9 79t-9 79q-18 56 -74 56q-57 0 -75 -56q-9 -27 -9 -79t9 -79q18 -56 75 -56zM270 524q-47 0 -77.5 30.5t-30.5 76.5t30.5 76.5t77.5 30.5t77.5 -30.5t30.5 -76.5t-30.5 -76.5
t-77.5 -30.5zM270 583q20 0 33 13.5t13 34.5t-13 34.5t-33 13.5t-33 -13.5t-13 -34.5t13 -34.5t33 -13.5z" />
    <glyph glyph-name="aogonek.alt01" horiz-adv-x="552" 
d="M352 45h-1q-40 -56 -126 -56q-59 0 -104 33t-64 90q-17 51 -17 130t17 130q19 57 64 90t104 33q86 0 126 -56h1q14 51 67 51q31 0 50.5 -20t19.5 -54v-348q0 -35 -20 -55q-51 -50 -62 -64t-11 -26q0 -18 16 -18q6 0 14 3q12 4 21 4q16 0 27.5 -12.5t11.5 -30.5
q0 -30 -26 -44q-27 -16 -67 -16q-49 0 -77.5 25.5t-28.5 68.5q0 60 77 115q-8 13 -12 27zM266 107q56 0 74 56q9 27 9 79t-9 79q-18 56 -74 56q-57 0 -75 -56q-9 -27 -9 -79t9 -79q18 -56 75 -56z" />
    <glyph glyph-name="ae.alt01" horiz-adv-x="816" 
d="M560 -11q-108 0 -167 59h-1q-34 -33 -72 -46t-94 -13q-91 0 -137.5 39t-46.5 109q0 78 53.5 117t146.5 39h87q6 0 6 6v5q0 72 -99 72q-42 0 -78 -14q-21 -7 -33 -7q-25 0 -40.5 15.5t-15.5 40.5q0 38 36 56q56 28 148 28q101 0 154 -45h1q55 45 144 45q80 0 134 -35.5
t75 -100.5q16 -49 16 -113q0 -21 -12.5 -33.5t-33.5 -12.5h-257q-6 0 -6 -6q0 -13 5 -28q20 -63 100 -63q45 0 91 25q26 15 48 15t36.5 -15t14.5 -37q0 -31 -28 -50q-75 -52 -175 -52zM474 293h159q6 0 6 6q0 19 -5 36q-17 52 -81 52q-63 0 -80 -52q-5 -17 -5 -36q0 -6 6 -6
zM245 94q90 0 90 67v33q0 6 -6 6h-68q-86 0 -86 -55q0 -51 70 -51z" />
    <glyph glyph-name="aeacute.alt01" horiz-adv-x="816" 
d="M560 -11q-108 0 -167 59h-1q-34 -33 -72 -46t-94 -13q-91 0 -137.5 39t-46.5 109q0 78 53.5 117t146.5 39h87q6 0 6 6v5q0 72 -99 72q-42 0 -78 -14q-21 -7 -33 -7q-25 0 -40.5 15.5t-15.5 40.5q0 38 36 56q56 28 148 28q101 0 154 -45h1q55 45 144 45q80 0 134 -35.5
t75 -100.5q16 -49 16 -113q0 -21 -12.5 -33.5t-33.5 -12.5h-257q-6 0 -6 -6q0 -13 5 -28q20 -63 100 -63q45 0 91 25q26 15 48 15t36.5 -15t14.5 -37q0 -31 -28 -50q-75 -52 -175 -52zM474 293h159q6 0 6 6q0 19 -5 36q-17 52 -81 52q-63 0 -80 -52q-5 -17 -5 -36q0 -6 6 -6
zM245 94q90 0 90 67v33q0 6 -6 6h-68q-86 0 -86 -55q0 -51 70 -51zM466 565q-19 -25 -47 -25q-22 0 -37 13.5t-15 35.5q0 21 13 41l43 61q18 24 47 24q21 0 37 -14.5t16 -36.5t-13 -40z" />
    <glyph glyph-name="germandbls.alt01" horiz-adv-x="582" 
d="M291 -180q-29 0 -44.5 16.5t-15.5 41.5t16 41t44 20q112 16 112 117q0 67 -68 102q-51 26 -51 76q0 32 23 64l57 73v2h-155q-6 0 -6 -6v-299q0 -34 -19.5 -54t-50.5 -20t-50.5 20t-19.5 54v445q0 88 41 127.5t129 39.5h10q31 0 47.5 -15.5t16.5 -41.5t-16 -42t-45 -16
q-23 0 -33 -11.5t-10 -38.5v-25q0 -6 6 -6h262q30 0 47 -15.5t17 -42.5q0 -31 -32 -72l-73 -98v-2q114 -55 114 -194q0 -107 -70.5 -173.5t-182.5 -66.5z" />
    <glyph glyph-name="q.alt01" horiz-adv-x="551" 
d="M428 -186q-37 0 -58.5 22.5t-21.5 61.5v143h-1q-35 -52 -123 -52q-59 0 -104 33t-64 90q-17 51 -17 130t17 130q19 57 64 90t104 33q86 0 126 -56h1q14 51 67 51q31 0 50.5 -19.5t19.5 -53.5v-467h1l30 25q17 14 37 14q19 0 32 -13t13 -32q0 -27 -24 -45l-71 -56
q-37 -29 -78 -29zM265 107q56 0 74 56q9 27 9 79t-9 79q-18 56 -74 56q-57 0 -75 -56q-9 -27 -9 -79t9 -79q18 -56 75 -56z" />
    <glyph glyph-name="C.alt01" horiz-adv-x="586" 
d="M308 -11q-90 0 -152.5 42.5t-89.5 124.5q-19 61 -19 184t19 184q27 82 89.5 124.5t152.5 42.5q76 0 136.5 -33.5t84.5 -92.5q10 -25 10 -47q0 -31 -18 -50t-50 -19q-47 0 -73 56t-89 56q-78 0 -102 -75q-11 -33 -11 -146t11 -146q24 -75 102 -75q63 0 89 56t73 56
q32 0 50 -19t18 -50q0 -22 -10 -47q-24 -59 -84.5 -92.5t-136.5 -33.5z" />
    <glyph glyph-name="Cacute.alt01" horiz-adv-x="586" 
d="M308 -11q-90 0 -152.5 42.5t-89.5 124.5q-19 61 -19 184t19 184q27 82 89.5 124.5t152.5 42.5q76 0 136.5 -33.5t84.5 -92.5q10 -25 10 -47q0 -31 -18 -50t-50 -19q-47 0 -73 56t-89 56q-78 0 -102 -75q-11 -33 -11 -146t11 -146q24 -75 102 -75q63 0 89 56t73 56
q32 0 50 -19t18 -50q0 -22 -10 -47q-24 -59 -84.5 -92.5t-136.5 -33.5zM340 761q-19 -22 -47 -22q-20 0 -35 14t-15 35q0 27 17 45l51 57q20 21 46 21q22 0 37.5 -14t15.5 -36q0 -27 -17 -44z" />
    </font>
</defs>
</svg>
